<?xml version="1.0" encoding="UTF-8"?> <svg xmlns="http://www.w3.org/2000/svg" id="Layer_1" data-name="Layer 1" viewBox="0 0 500 500"><title>arjs</title><path d="M189.19,283c-.86.17-1.34.86-1.9,1.42q-5.58,5.58-11.13,11.17L137.59,334.5c-.56.56-1.15,1.08-1.71,1.61-.69-.38-.43-.93-.43-1.36-.14-19.95-.31-39.9-.36-59.85-.09-36-.08-72.09-.18-108.14a6.69,6.69,0,0,1,2.22-5.49c4.05-3.72,7.83-7.71,11.74-11.58l49.29-48.78Q223.32,76,248.44,51.07c1.43-1.42,2.23-1.43,3.66,0q55.7,55.77,111.46,111.48c.65.65,1.66,1.15,1.4,2.36a6.81,6.81,0,0,0-2.2,1.86l-27.33,27.07c-.21-.6-.45-1.2-.64-1.82a122.9,122.9,0,0,0-29.69-49c-9.44-9.65-19.08-19.11-28.64-28.66-.6-.59-1.24-1.14-2.07-1.9-.06.65-.11,1-.11,1.26q0,46.44,0,92.88a3.81,3.81,0,0,0,1.34,2.93c4.37,4.32,8.7,8.68,13.06,13,.42.41.7,1.13,1.7.93v-31c4.24,4.2,8.19,8.1,12.11,12a3.42,3.42,0,0,1,.54,1.06q3.13,7.47,6.26,14.95c-.88.16-1.28.94-1.84,1.48q-4.25,4.14-8.44,8.32-9.9,9.93-19.77,19.9a.86.86,0,0,1-.42,0,13.47,13.47,0,0,0-1.06-1.31c-8.51-8.64-17.06-17.23-25.52-25.91-1.4-1.44-2.16-1.45-3.59,0q-25.37,25.56-50.87,51c-.68.68-1.42,1.31-2.13,2l-6.43-6.07Zm18.55-54c5.46-5.49,10.4-10.48,15.37-15.43a2.71,2.71,0,0,0,.7-2.2c0-20.53,0-41.06-.05-61.58a24.88,24.88,0,0,0-1.81-9.44c-2-4.9-5.58-6.81-10.78-5.8-4.92.95-8.93,3.65-12.68,6.73-13.2,10.85-22.92,24.38-30.12,39.79-5,10.75-8.49,22-8.58,33.91-.16,20.21,0,40.41,0,60.62,0,.3-.08.66.48.81,4.69-4.69,9.39-9.47,14.18-14.15a4.49,4.49,0,0,0,1.47-3.59c-.06-9.22,0-18.43-.06-27.65a4.55,4.55,0,0,1,1.49-3.58q14.3-14.17,28.48-28.45a13,13,0,0,0,1.35-1.9l.61.48ZM207,258.4c-1.73-9-5.84-16.56-13.61-21.86a5.24,5.24,0,0,0-1.55-.62c-2.35-.64-3.47.11-4.05,2.45a7.27,7.27,0,0,0,.08,3.35,32.72,32.72,0,0,0,12.84,19.81c1.35,1,3,1.77,4.74.81C206.93,261.5,206.86,259.94,207,258.4Z" fill="#80b8e3"></path><path d="M278.79,250.16a.86.86,0,0,0,.42,0l16.29,16.51q7.63,7.74,15.25,15.5c-2.32,2.68-4.73,5.29-6.93,8.06-7.78,9.76-14.44,20.16-18.11,32.22-1.27,4.18-2.1,8.43-1.27,12.85.72,3.75,3,5.37,6.74,4.71a20.61,20.61,0,0,0,5.45-1.89,111.13,111.13,0,0,0,11.42-6.75c3.19-2,6.28-4.23,9.83-5.63,1.06-.41,2.21-.91,3.19,0s.81,2,.57,3.17c-.85,4-3.05,7.41-5.31,10.74-7,10.32-16.75,17.3-27.88,22.52a2.92,2.92,0,0,0-2,2.64c-.37,4-.8,8-1.33,12-.19,1.46.24,1.44,1.4,1.06A44,44,0,0,0,299,371.6c12.78-9.38,22.39-21.54,30.31-35.11,4.82-8.27,8.43-17,9.09-26.72,5.88,5.83,11.81,11.62,17.64,17.5,2.89,2.91,6,5.61,8.55,8.83-2,2-3.94,4-5.94,6L252.44,448.26a4.87,4.87,0,0,1-2.21,1.74v-2.43q.17-68,.32-136c0-10.42.14-20.84.13-31.26a4.61,4.61,0,0,1,1.53-3.58C261.09,267.89,269.93,259,278.79,250.16Z" fill="#040404"></path><path d="M364.57,336.1c-2.55-3.22-5.66-5.92-8.55-8.83-5.83-5.88-11.76-11.67-17.64-17.5-.52-6.78-1.78-8-7.79-7.78l-11.73-12a56.87,56.87,0,0,1,10.95-6.14,4.36,4.36,0,0,0,2.78-3.25c.87-3.56,2-7.06,3.19-11.09l8.9,9.32.49-.41-25-59.88c1,.43,1.61.69,2.2.9,8.33,3.1,13.85-.26,14.9-9.07.09-.72.06-1.46.1-2.18.24-4.9-1-9.6-1.94-14.34l27.33-27.07a6.81,6.81,0,0,1,2.2-1.86c0,3.8,0,7.59,0,11.39q0,78.4,0,156.81C365,334.1,365.4,335.2,364.57,336.1Z" fill="#163c64"></path><path d="M189.19,283V269.83l6.43,6.07c2.81,2.89,5.61,5.79,8.46,8.64a3.78,3.78,0,0,1,1.31,2.91c-.06,25.7,0,51.39-.1,77.09a21.75,21.75,0,0,1-1.36,7.81c-2,5.11-5.61,6.83-10.76,4.94-6.2-2.27-10.67-6.85-14.89-11.64a93.31,93.31,0,0,1-10.36-14.85c-1.14-1.95-1.62-3.71-.81-5.85.55-1.48.89-3.05,1.39-4.82,3.09,4.21,5.91,8.25,9.47,11.67a19.56,19.56,0,0,0,4.78,3.65c3,1.47,4.94.66,5.88-2.52a18,18,0,0,0,.43-2.85l.12-.45c0-10.9.08-21.81.08-32.71C189.27,305.61,189.22,294.3,189.19,283Z" fill="#040404"></path><path d="M189.18,349.63l-.12.45c0-.12,0-.24,0-.36S189.13,349.66,189.18,349.63Z" fill="#80b8e3"></path><path d="M330.59,302c6-.26,7.27,1,7.79,7.78-.66,9.71-4.27,18.45-9.09,26.72-7.92,13.57-17.53,25.73-30.31,35.11a44,44,0,0,1-12.46,6.27c-1.16.38-1.59.4-1.4-1.06.53-4,1-8,1.33-12a2.92,2.92,0,0,1,2-2.64c11.13-5.22,20.86-12.2,27.88-22.52,2.26-3.33,4.46-6.7,5.31-10.74.24-1.16.32-2.32-.57-3.17s-2.13-.43-3.19,0c-3.55,1.4-6.64,3.6-9.83,5.63a111.13,111.13,0,0,1-11.42,6.75,20.61,20.61,0,0,1-5.45,1.89c-3.73.66-6-1-6.74-4.71-.83-4.42,0-8.67,1.27-12.85,3.67-12.06,10.33-22.46,18.11-32.22,2.2-2.77,4.61-5.38,6.93-8.06,6.53-6.25,13.22-12.25,22.56-15.05-1.54-1.5-2.73-2.8-4.05-3.93a20.42,20.42,0,0,1-5.54-8.3c-4.71-11.52-9.63-23-14.46-34.43Q306.13,213,303,205.47a3.42,3.42,0,0,0-.54-1.06c-3.92-3.92-7.87-7.82-12.11-12v31c-1,.2-1.28-.52-1.7-.93-4.36-4.33-8.69-8.69-13.06-13a3.81,3.81,0,0,1-1.34-2.93q0-46.44,0-92.88c0-.3.05-.61.11-1.26.83.76,1.47,1.31,2.07,1.9,9.56,9.55,19.2,19,28.64,28.66a122.9,122.9,0,0,1,29.69,49c.19.62.43,1.22.64,1.82,1,4.74,2.18,9.44,1.94,14.34,0,.72,0,1.46-.1,2.18-1,8.81-6.57,12.17-14.9,9.07-.59-.21-1.16-.47-2.2-.9l25,59.88-.49.41-8.9-9.32c-1.18,4-2.32,7.53-3.19,11.09a4.36,4.36,0,0,1-2.78,3.25A56.87,56.87,0,0,0,318.86,290a40.09,40.09,0,0,0-8.54,7.42c-4.15,4.75-8.13,9.62-9.6,16-.59,2.58.7,3.78,3.18,3a35.51,35.51,0,0,0,7.05-3.67C317.33,308.81,323.41,304.38,330.59,302ZM290.7,144.35a9.16,9.16,0,0,0-.4,1.42c0,9.69,0,19.38,0,29.07a3.07,3.07,0,0,0,1.05,2.32c5.22,5.17,10.38,10.41,15.65,15.53a18.34,18.34,0,0,0,7.73,4.83c2.93.82,5.18-.13,6-2.54a11.56,11.56,0,0,0,.51-5.72c-1.56-9.4-5.87-17.54-11.65-24.94-4.73-6-10.68-11-16-16.54C292.67,146.81,291.86,145.73,290.7,144.35Z" fill="#fcfcfd"></path><path d="M207.74,229V197.58l-.61-.48a13,13,0,0,1-1.35,1.9q-14.21,14.25-28.48,28.45a4.55,4.55,0,0,0-1.49,3.58c.07,9.22,0,18.43.06,27.65a4.49,4.49,0,0,1-1.47,3.59c-4.79,4.68-9.49,9.46-14.18,14.15-.56-.15-.48-.51-.48-.81,0-20.21-.11-40.41,0-60.62.09-12,3.56-23.16,8.58-33.91,7.2-15.41,16.92-28.94,30.12-39.79,3.75-3.08,7.76-5.78,12.68-6.73,5.2-1,8.77.9,10.78,5.8a24.88,24.88,0,0,1,1.81,9.44c.05,20.52,0,41,.05,61.58a2.71,2.71,0,0,1-.7,2.2C218.14,218.53,213.2,223.52,207.74,229Zm-31.59-16.73c.74-.7,1.33-1.24,1.9-1.8C186.57,202,195,193.31,203.67,185c3.13-3,4.62-6,4.19-10.28s.33-8.73-1-13-4-5.55-8.13-3.55c-3.86,1.86-6.8,4.87-9.55,8.06C177.82,179.47,174.32,195,176.15,212.28Z" fill="#040404"></path><path d="M309.26,220.42c4.83,11.47,9.75,22.91,14.46,34.43a20.42,20.42,0,0,0,5.54,8.3c1.32,1.13,2.51,2.43,4.05,3.93-9.34,2.8-16,8.8-22.56,15.05q-7.62-7.75-15.25-15.5l-16.29-16.51q9.89-10,19.77-19.9,4.18-4.18,8.44-8.32C308,221.36,308.38,220.58,309.26,220.42Z" fill="#163c64"></path><path d="M207,258.4c-.13,1.54-.06,3.1-1.55,3.94-1.73,1-3.39.18-4.74-.81a32.72,32.72,0,0,1-12.84-19.81,7.27,7.27,0,0,1-.08-3.35c.58-2.34,1.7-3.09,4.05-2.45a5.24,5.24,0,0,1,1.55.62C201.15,241.84,205.26,249.38,207,258.4Z" fill="#040404"></path><path d="M330.59,302c-7.18,2.39-13.26,6.82-19.64,10.68a35.51,35.51,0,0,1-7.05,3.67c-2.48.82-3.77-.38-3.18-3,1.47-6.36,5.45-11.23,9.6-16a40.09,40.09,0,0,1,8.54-7.42Z" fill="#040404"></path><path d="M290.7,144.35c1.16,1.38,2,2.46,2.89,3.43,5.29,5.55,11.24,10.49,16,16.54,5.78,7.4,10.09,15.54,11.65,24.94a11.56,11.56,0,0,1-.51,5.72c-.82,2.41-3.07,3.36-6,2.54a18.34,18.34,0,0,1-7.73-4.83c-5.27-5.12-10.43-10.36-15.65-15.53a3.07,3.07,0,0,1-1.05-2.32c0-9.69,0-19.38,0-29.07A9.16,9.16,0,0,1,290.7,144.35Z" fill="#80b8e3"></path><path d="M176.15,212.28c-1.83-17.3,1.67-32.81,13.08-46,2.75-3.19,5.69-6.2,9.55-8.06,4.16-2,6.8-.84,8.13,3.55s.52,8.67,1,13S206.8,182,203.67,185c-8.72,8.29-17.1,16.95-25.62,25.46C177.48,211,176.89,211.58,176.15,212.28Z" fill="#7fb6df"></path></svg> 