<?xml version="1.0" encoding="UTF-8"?> <svg xmlns="http://www.w3.org/2000/svg" xmlns:xlink="http://www.w3.org/1999/xlink" id="Layer_1" data-name="Layer 1" viewBox="0 0 500 500"><defs><radialGradient id="GradientFill_1" cx="282.67" cy="253.12" r="159.14" gradientTransform="translate(269.7 -122.46) rotate(45)" gradientUnits="userSpaceOnUse"><stop offset="0" stop-color="#bce0f8"></stop><stop offset="0.19" stop-color="#bce0f8"></stop><stop offset="0.45" stop-color="#b7def8"></stop><stop offset="0.51" stop-color="#a8d9f6"></stop><stop offset="0.74" stop-color="#009bde"></stop><stop offset="1" stop-color="#009bde"></stop></radialGradient><linearGradient id="GradientFill_2" x1="282.67" y1="159.95" x2="282.67" y2="302.32" gradientUnits="userSpaceOnUse"><stop offset="0" stop-color="#fff"></stop><stop offset="1" stop-color="#b4ddf7"></stop></linearGradient><linearGradient id="GradientFill_3" x1="282.67" y1="302.33" x2="282.67" y2="159.95" gradientUnits="userSpaceOnUse"><stop offset="0" stop-color="#008acf"></stop><stop offset="1" stop-color="#d4ebfb"></stop></linearGradient><linearGradient id="GradientFill_4" x1="-25.85" y1="262.29" x2="278.93" y2="267.61" gradientUnits="userSpaceOnUse"><stop offset="0" stop-color="#a67045"></stop><stop offset="1" stop-color="#c68f3c"></stop></linearGradient><linearGradient id="GradientFill_5" x1="96.26" y1="297.2" x2="158.88" y2="234.58" gradientUnits="userSpaceOnUse"><stop offset="0" stop-color="#b98543"></stop><stop offset="0.13" stop-color="#cd9b37"></stop><stop offset="1" stop-color="#e0b775"></stop></linearGradient><linearGradient id="GradientFill_6" x1="93.95" y1="299.52" x2="161.19" y2="232.27" gradientUnits="userSpaceOnUse"><stop offset="0" stop-color="#ca9b3b"></stop><stop offset="0.13" stop-color="#d5a733"></stop><stop offset="1" stop-color="#f0d9b4"></stop></linearGradient><linearGradient id="GradientFill_7" x1="-3.97" y1="268.45" x2="250.11" y2="268.45" gradientUnits="userSpaceOnUse"><stop offset="0" stop-color="#e6c61a"></stop><stop offset="0.13" stop-color="#e6c61a"></stop><stop offset="1" stop-color="#fff"></stop></linearGradient><linearGradient id="GradientFill_8" x1="79.02" y1="310.02" x2="165.1" y2="223.94" gradientUnits="userSpaceOnUse"><stop offset="0" stop-color="#deb52a"></stop><stop offset="0.25" stop-color="#deb52a"></stop><stop offset="1" stop-color="#fff"></stop></linearGradient><linearGradient id="GradientFill_9" x1="146.61" y1="246.5" x2="282.42" y2="110.69" gradientUnits="userSpaceOnUse"><stop offset="0" stop-color="#a67045"></stop><stop offset="1" stop-color="#cc9639"></stop></linearGradient><linearGradient id="GradientFill_5-2" x1="138.04" y1="255.07" x2="291.09" y2="102.02" xlink:href="#GradientFill_5"></linearGradient><linearGradient id="GradientFill_6-2" x1="131.51" y1="261.61" x2="297.68" y2="95.43" xlink:href="#GradientFill_6"></linearGradient><linearGradient id="GradientFill_10" x1="123.3" y1="269.82" x2="305.97" y2="87.15" gradientUnits="userSpaceOnUse"><stop offset="0" stop-color="#deb52a"></stop><stop offset="0.13" stop-color="#deb52a"></stop><stop offset="1" stop-color="#fff"></stop></linearGradient><linearGradient id="GradientFill_11" x1="153.93" y1="239.18" x2="277.55" y2="115.57" gradientUnits="userSpaceOnUse"><stop offset="0" stop-color="#fff"></stop><stop offset="1" stop-color="#d8a72f"></stop></linearGradient><linearGradient id="GradientFill_12" x1="157.81" y1="235.31" x2="273.67" y2="119.44" gradientUnits="userSpaceOnUse"><stop offset="0" stop-color="#38599c"></stop><stop offset="1" stop-color="#447dbe"></stop></linearGradient><linearGradient id="GradientFill_13" x1="215.59" y1="232.22" x2="215.59" y2="121.51" gradientUnits="userSpaceOnUse"><stop offset="0" stop-color="#38599c"></stop><stop offset="1" stop-color="#299ad6"></stop></linearGradient><linearGradient id="GradientFill_14" x1="238.24" y1="119.3" x2="238.24" y2="253.08" gradientUnits="userSpaceOnUse"><stop offset="0" stop-color="#fff"></stop><stop offset="1" stop-color="#d2eafb"></stop></linearGradient><linearGradient id="GradientFill_15" x1="241.49" y1="262.6" x2="241.49" y2="119.19" gradientUnits="userSpaceOnUse"><stop offset="0" stop-color="#00a2e5"></stop><stop offset="1" stop-color="#fff"></stop></linearGradient></defs><title>CaseStudies</title><circle cx="278.13" cy="268.86" r="146.86" transform="translate(-37.63 492.32) rotate(-79.31)" fill="#f7fbfe"></circle><circle cx="278.13" cy="268.86" r="142.36" transform="translate(-108.65 275.42) rotate(-45)" fill="#edf6fc"></circle><circle cx="278.13" cy="268.86" r="137.85" transform="translate(-108.65 275.42) rotate(-45)" fill="#dff0fc"></circle><circle cx="278.13" cy="268.86" r="133.34" transform="translate(-108.65 275.42) rotate(-45)" fill="#d4ebfb"></circle><circle cx="278.13" cy="268.86" r="128.84" transform="translate(-108.65 275.42) rotate(-45)" fill="#c5e5fa"></circle><circle cx="278.13" cy="268.85" r="124.33" transform="translate(-31.8 500.33) rotate(-80.78)" fill="#afdbf7"></circle><circle cx="278.13" cy="268.86" r="119.82" transform="translate(-7.35 7.82) rotate(-1.59)" fill="#a0d6f6"></circle><circle cx="282.67" cy="264.32" r="112.02" transform="translate(-104.11 277.29) rotate(-45)" fill="url(#GradientFill_1)"></circle><path d="M282.67,302.32c42.6,0,77.34-32,77.34-71.18S325.27,160,282.67,160s-77.35,32-77.35,71.19S240.06,302.32,282.67,302.32Z" fill-rule="evenodd" fill="url(#GradientFill_2)"></path><path d="M396.29,265.91v-3.18H354.36l0-2.08c-.37-19.06-3.65-38.58-10.42-56.44l-.88-2.34,2.45-.49a187,187,0,0,0,25.28-6.79l-1.1-3a185.54,185.54,0,0,1-26.23,6.94l-1.66.32-.69-1.54c-1.5-3.4-3.15-6.74-4.95-10-9.64-17.39-25-34.19-45.39-37.88a43.82,43.82,0,0,0-4.44-.58H279a44.19,44.19,0,0,0-4.44.58c-20.41,3.69-35.75,20.49-45.38,37.88-1.81,3.25-3.46,6.59-5,10l-.69,1.54-1.65-.32a185.67,185.67,0,0,1-26.24-6.94l-1.1,3a187.43,187.43,0,0,0,25.28,6.79l2.46.49-.89,2.34c-6.77,17.86-10.05,37.38-10.42,56.44l0,2.08H169v3.19H211l0,2.08a170.48,170.48,0,0,0,10.13,55.67L222,326l-2.44.49a186.44,186.44,0,0,0-25.52,6.92l1.11,3a184.29,184.29,0,0,1,26.41-7.05l1.67-.33.68,1.56q2.4,5.51,5.3,10.75c9.63,17.39,25,34.19,45.38,37.88a44.19,44.19,0,0,0,4.44.58h7.25a44.39,44.39,0,0,0,4.45-.58c20.4-3.69,35.74-20.49,45.38-37.88q2.89-5.24,5.29-10.75l.68-1.56,1.67.33a184.29,184.29,0,0,1,26.41,7.05l1.12-3a186.19,186.19,0,0,0-25.53-6.92l-2.44-.49.87-2.33A170.49,170.49,0,0,0,354.32,268l0-2.08Zm-57.88,59.22a330,330,0,0,0-52.05-4.35l-2.1,0V265.91h66.92l0,2.17c-.39,18.81-3.65,38.11-10.4,55.72l-.62,1.62-1.71-.29Zm-.65,5.82q-2,4.5-4.43,8.83c-9.14,16.5-23.76,32.78-43.16,36.29-1.19.21-2.39.38-3.59.49l-2.32.22V323.94l2.14,0a330.53,330.53,0,0,1,49.77,4l2.73.45L337.76,331Zm-59,45.61c-1.21-.11-2.41-.27-3.6-.49-19.4-3.51-34-19.79-43.16-36.29q-2.4-4.32-4.43-8.83l-1.14-2.52,2.73-.45a330.53,330.53,0,0,1,49.77-4l2.15,0v52.84l-2.32-.22ZM224.59,323.8c-6.75-17.61-10-36.9-10.4-55.72l0-2.16h66.93v54.83l-2.11,0a329.92,329.92,0,0,0-52,4.35l-1.72.29-.62-1.62Zm-10.4-63.23c.4-19.09,3.75-38.7,10.71-56.52l.63-1.61,1.7.29A330.87,330.87,0,0,0,279,207l2.11,0v55.68H214.15l0-2.16Zm13.75-63.66q1.88-4.09,4.06-8c9.15-16.5,23.76-32.78,43.17-36.29,1.19-.21,2.39-.38,3.59-.49l2.32-.22v52l-2.15,0a331.07,331.07,0,0,1-49.41-4l-2.75-.45,1.17-2.53Zm58.64-44.82c1.2.11,2.4.28,3.59.49,19.4,3.51,34,19.79,43.16,36.29q2.19,3.94,4.07,8l1.17,2.53-2.76.45a331,331,0,0,1-49.41,4l-2.14,0v-52l2.32.22Zm53.85,52c7,17.82,10.32,37.43,10.71,56.52l0,2.16H284.26V207.05l2.1,0a330.87,330.87,0,0,0,51.74-4.3l1.71-.29Z" fill="#0076be" fill-rule="evenodd"></path><path d="M354.26,258.12a169.18,169.18,0,0,0-10.36-53.91l-.88-2.34,2.45-.49c2.24-.45,4.49-.93,6.73-1.45-.52-1-1.06-1.94-1.63-2.89-2.37.54-4.76,1-7.15,1.5l-1.66.32-.69-1.54c-1.5-3.4-3.15-6.74-4.95-10a103.19,103.19,0,0,0-10.29-15.27,79.3,79.3,0,0,0-8.49-4.56,92.57,92.57,0,0,1,16,21.37q2.19,3.94,4.07,8l1.17,2.54-2.76.45a331,331,0,0,1-49.41,4l-2.14,0V160l-1.59,0-1.59,0v43.9l-2.15,0a331.07,331.07,0,0,1-49.41-4l-2.75-.45,1.17-2.54q1.88-4.08,4.06-8a92.62,92.62,0,0,1,16-21.37,80.27,80.27,0,0,0-8.49,4.56,101.91,101.91,0,0,0-10.29,15.27c-1.81,3.25-3.46,6.59-5,10l-.69,1.54-1.65-.32q-3.58-.69-7.16-1.5c-.56,1-1.1,1.91-1.62,2.89q3.36.78,6.72,1.45l2.46.49-.89,2.34a168.89,168.89,0,0,0-10.35,53.91,68.86,68.86,0,0,0,4.09,7.8h65.91v36.39l1.59,0,1.59,0v-36.4h65.91a67.89,67.89,0,0,0,4.09-7.79Zm-140.07,2.45c.4-19.09,3.75-38.7,10.71-56.52l.63-1.61,1.7.29A330.87,330.87,0,0,0,279,207l2.11,0v55.68H214.15l0-2.16Zm126.24-56.52c7,17.82,10.32,37.43,10.71,56.52l0,2.16H284.26V207.05l2.1,0a330.87,330.87,0,0,0,51.74-4.3l1.71-.29Z" fill-rule="evenodd" fill="url(#GradientFill_3)"></path><path d="M282.67,147.21c-64.52,0-117.12,52.6-117.12,117.11s52.6,117.12,117.12,117.12,117.11-52.6,117.11-117.12-52.6-117.11-117.11-117.11Zm0,6.2c61.09,0,110.91,49.82,110.91,110.91S343.76,375.24,282.67,375.24,171.75,325.42,171.75,264.32,221.58,153.41,282.67,153.41Z" fill="#0076be" fill-rule="evenodd"></path><path d="M325.11,256.51c2.37,36.61,4.29,38.54,40.91,40.91-36.62,2.37-38.54,4.29-40.91,40.91-2.37-36.62-4.29-38.54-40.91-40.91C320.82,295.05,322.74,293.12,325.11,256.51Z" fill="#fff" fill-rule="evenodd"></path><path d="M351.9,310.09c.82,12.64,1.48,13.3,14.12,14.12-12.64.82-13.3,1.48-14.12,14.12-.82-12.64-1.48-13.3-14.12-14.12C350.42,323.39,351.08,322.73,351.9,310.09Z" fill="#fff" fill-rule="evenodd"></path><path d="M163.54,211.61l4.58,4.57,4.58,4.58,4.58,4.58,4.58,4.58c-5.82,6-11.63,12.09-17.35,18.22s-11.36,12.33-16.82,18.7-10.76,12.94-15.88,19.66-10.06,13.64-14.88,20.65l-.08.11c-4.39,6.24-10.17,10.21-16.22,11a19.22,19.22,0,0,1-9.5-1.21,25.45,25.45,0,0,1-8.86-5.88,25.78,25.78,0,0,1-5.9-8.88,19.22,19.22,0,0,1-1.21-9.5c.82-6.05,4.81-11.81,11-16.2l.15-.11c7-4.82,13.92-9.76,20.63-14.88s13.27-10.41,19.65-15.87,12.59-11.12,18.7-16.83S157.51,217.42,163.54,211.61Z" fill-rule="evenodd" fill="url(#GradientFill_4)"></path><path d="M163.53,213.05q-8.7,8.38-17.5,16.64c-6.14,5.73-12.36,11.38-18.73,16.85s-13,10.8-19.7,15.92-13.68,10.09-20.68,14.91l-.13.09c-5.18,3.66-9.73,9-10.61,15.5a18.28,18.28,0,0,0,1.16,9A25.8,25.8,0,0,0,91.5,316.11a18.4,18.4,0,0,0,9,1.16c6.48-.88,11.86-5.41,15.51-10.59l.07-.11c4.82-7,9.76-13.93,14.91-20.69s10.43-13.3,15.93-19.71,11.11-12.6,16.85-18.74c5.49-5.89,11.06-11.7,16.65-17.49l-3.86-3.86L172,221.49l-4.58-4.58Z" fill-rule="evenodd" fill="url(#GradientFill_5)"></path><path d="M163.52,214.5q-8.34,8-16.78,15.94c-6.16,5.74-12.38,11.41-18.77,16.88s-13,10.83-19.74,16-13.7,10.11-20.73,14.94l-.11.09c-4.94,3.48-9.34,8.62-10.18,14.79a17.28,17.28,0,0,0,1.09,8.48,24.81,24.81,0,0,0,13.57,13.57,17.31,17.31,0,0,0,8.48,1.09c6.18-.83,11.32-5.21,14.79-10.14.07-.11,0-.08.08-.11,4.82-7,9.77-14,14.94-20.74s10.45-13.33,16-19.75,11.14-12.62,16.88-18.77q7.91-8.47,16-16.78l-3.15-3.15-4.58-4.58-4.58-4.58Z" fill-rule="evenodd" fill="url(#GradientFill_6)"></path><path d="M170.16,237.69c-4.95,5.3-9.9,10.62-14.79,16S145.67,264.49,141,270s-9.33,11.23-13.8,17-8.82,11.67-13.1,17.65c-3.86,5.13-8.84,8.36-14,9a16.68,16.68,0,0,1-7.92-.91A20.67,20.67,0,0,1,80.29,300.9a16.4,16.4,0,0,1-.91-7.91c.69-5.12,3.92-10.1,9.06-13.95,6-4.26,11.89-8.61,17.66-13.07s11.45-9.06,17-13.77,11-9.52,16.36-14.39,10.71-9.8,16-14.75a37.37,37.37,0,0,0,2.89,4.39,38.44,38.44,0,0,0,3.42,3.91,39.15,39.15,0,0,0,3.93,3.42A37.74,37.74,0,0,0,170.16,237.69Z" fill="url(#GradientFill_7)"></path><path d="M82.33,304.9a19.36,19.36,0,0,1-2-4,16.52,16.52,0,0,1-.91-7.91c.69-5.12,3.92-10.1,9.06-13.95,6-4.26,11.89-8.61,17.66-13.07s11.45-9.06,17-13.77,11-9.52,16.36-14.39,10.71-9.8,16-14.75a37.94,37.94,0,0,0,6.31,8.29,35.54,35.54,0,0,0,2.65,2.41q-6.91,7.73-13.65,15.6-9.45,11.11-18.41,22.67c-6,7.7-11.78,15.58-17.48,23.56-5.15,6.85-11.8,11.15-18.65,12.06a22.25,22.25,0,0,1-10.56-1.22A25.22,25.22,0,0,1,82.33,304.9Z" fill="url(#GradientFill_8)"></path><path d="M142.6,238.22Q136,244.13,129.39,250T116,261.44q-6.81,5.65-13.85,11.07c-4.69,3.62-9.46,7.14-14.28,10.62a13.67,13.67,0,0,0-5.34,8.74,10.76,10.76,0,0,0,3.21,9A11.72,11.72,0,0,0,95,304.31a14.23,14.23,0,0,0,9.24-4.83l.55-.68a3.71,3.71,0,0,0,.86-2.4,2.19,2.19,0,0,0-1-1.9c-.18-.13-.37-.24-.56-.37a10.81,10.81,0,0,1-2.87-8.65,17.07,17.07,0,0,1,4.44-9.66c6.25-6.16,12.49-12.37,18.64-18.62S136.54,244.59,142.6,238.22Z" fill="#fff" fill-rule="evenodd"></path><path d="M190.11,87.5a94.34,94.34,0,1,1-57.25,43.95A94.13,94.13,0,0,1,190.11,87.5Z" fill-rule="evenodd" fill="url(#GradientFill_9)"></path><path d="M190.41,88.43a93.33,93.33,0,1,1-56.65,43.48A93.09,93.09,0,0,1,190.41,88.43Z" fill-rule="evenodd" fill="url(#GradientFill_5-2)"></path><path d="M190.7,89.35a92.34,92.34,0,1,1-56,43A92.06,92.06,0,0,1,190.7,89.35Z" fill-rule="evenodd" fill="url(#GradientFill_6-2)"></path><path d="M191,90.28a91.32,91.32,0,1,1-64.57,111.83A91.32,91.32,0,0,1,191,90.28Z" fill-rule="evenodd" fill="url(#GradientFill_10)"></path><path d="M193.53,94.47a85.82,85.82,0,1,0,105.12,60.68A85.83,85.83,0,0,0,193.53,94.47Z" fill-rule="evenodd" fill="url(#GradientFill_11)"></path><path d="M194.92,99.66a80.45,80.45,0,1,0,98.53,56.88A80.45,80.45,0,0,0,194.92,99.66Z" fill-rule="evenodd" fill="url(#GradientFill_12)"></path><path d="M177.14,110.29a76.89,76.89,0,1,1-28.14,105A76.89,76.89,0,0,1,177.14,110.29Z" fill-rule="evenodd" fill="url(#GradientFill_13)"></path><path d="M202.15,133.33a12.53,12.53,0,1,1,0-17.72A12.54,12.54,0,0,1,202.15,133.33Z" fill="#fff" fill-rule="evenodd"></path><path d="M177.29,146.91a5.76,5.76,0,1,1,0-8.15A5.76,5.76,0,0,1,177.29,146.91Z" fill="#fff" fill-rule="evenodd"></path><path d="M149.06,215.42a127.82,127.82,0,0,1,120.19-93.63,76.89,76.89,0,1,1-120.19,93.63Z" fill="#00b5ef" fill-rule="evenodd"></path><path d="M272.21,130.47q2.4,0,4.77.12a76,76,0,0,1,5.19,7.84A76.87,76.87,0,0,1,195,250.94a75.8,75.8,0,0,1-11-39.28C184,166.83,223.5,130.47,272.21,130.47Z" fill-rule="evenodd" fill="url(#GradientFill_14)"></path><path d="M265.23,118.14c-.74.1-1.49.22-2.22.35-23.28,4.21-40.77,23.37-51.76,43.2-2.06,3.71-3.94,7.52-5.66,11.39l-.78,1.77-1.89-.37A211.58,211.58,0,0,1,173,166.56L171.74,170a214.91,214.91,0,0,0,28.84,7.75l2.8.56-1,2.67c-7.72,20.37-11.46,42.63-11.89,64.37l0,2.38h-4.76a78.22,78.22,0,0,0,10.76,3.63h38.41a76.93,76.93,0,0,0,10.69-3.63H194.06l.05-2.47c.45-21.78,4.28-44.14,12.21-64.46l.72-1.84,1.94.33a377.62,377.62,0,0,0,59,4.91l2.4,0v46.63q1.89-1.92,3.62-3.95V184.19l2.4,0q7.86-.07,15.75-.43c.11-1.21.19-2.42.24-3.64q-8,.38-15.94.44l-2.45,0V126.89c-1.17-1.37-2.37-2.69-3.62-4v57.63l-2.45,0A378.36,378.36,0,0,1,211.6,176l-3.15-.51,1.34-2.89q2.15-4.67,4.63-9.17c10.43-18.82,27.11-37.38,49.24-41.39,1.35-.25,2.72-.43,4.09-.56l1.1-.1Q267.08,119.7,265.23,118.14Z" fill="#0081c7" fill-rule="evenodd"></path><path d="M292.41,180.1q-8,.38-15.94.44l-2.45,0V130.49l-1.81,0-1.81,0v50.07l-2.45,0A378.36,378.36,0,0,1,211.6,176l-3.15-.51,1.34-2.89q2.15-4.67,4.63-9.17a105.61,105.61,0,0,1,18.25-24.38,90.75,90.75,0,0,0-9.68,5.21,116.81,116.81,0,0,0-11.74,17.41c-2.06,3.71-3.94,7.52-5.66,11.39l-.78,1.77-1.89-.37c-2.72-.53-5.44-1.09-8.16-1.71-.64,1.08-1.26,2.18-1.85,3.29q3.83.88,7.67,1.66l2.8.56-1,2.67c-7.38,19.46-11.12,40.67-11.81,61.49a77.06,77.06,0,0,0,4.44,8.5l1.43.39h38.4a78.27,78.27,0,0,0,10.69-3.63H194.06l.05-2.47c.45-21.78,4.28-44.14,12.21-64.46l.72-1.84,1.94.33a377.62,377.62,0,0,0,59,4.91l2.4,0v46.63q1.89-1.92,3.62-3.95V184.19l2.4,0q7.86-.07,15.75-.43C292.28,182.53,292.36,181.32,292.41,180.1Z" fill-rule="evenodd" fill="url(#GradientFill_15)"></path><path d="M160.58,187.35a128,128,0,0,1,85.35-62.89,46.14,46.14,0,0,1,4.25,6.14c13.49,23.37,3.84,54.2-21.55,68.86C204.62,213.32,175.12,207.76,160.58,187.35Z" fill="#d8edfc" fill-rule="evenodd"></path><path d="M184.33,204.56c3.3-35,30.79-63.71,67-71.8,11.71,23.07,1.89,52.49-22.72,66.7A54.88,54.88,0,0,1,184.33,204.56Z" fill="#fff" fill-rule="evenodd"></path><path d="M246,124.57c-14.95,8.16-26.63,22.46-34.76,37.12-2.06,3.71-3.94,7.52-5.66,11.39l-.78,1.77-1.89-.37A211.58,211.58,0,0,1,173,166.56L171.74,170a214.91,214.91,0,0,0,28.84,7.75l2.8.56-1,2.67a175.41,175.41,0,0,0-7.53,25.85c1.21.13,2.42.22,3.65.27a170.58,170.58,0,0,1,7.83-26.3l.72-1.84,1.94.33a353.9,353.9,0,0,0,37.42,4.18q1.23-1.73,2.31-3.51A356.51,356.51,0,0,1,211.6,176l-3.15-.51,1.34-2.89q2.15-4.67,4.63-9.17c7.85-14.15,19.23-28.16,33.8-35.94C247.52,126.49,246.78,125.52,246,124.57Z" fill="#0081c7" fill-rule="evenodd"></path><path d="M248.71,179.93A356.51,356.51,0,0,1,211.6,176l-3.15-.51,1.34-2.89q2.15-4.67,4.63-9.17a105.61,105.61,0,0,1,18.25-24.38,90.75,90.75,0,0,0-9.68,5.21,116.81,116.81,0,0,0-11.74,17.41c-2.06,3.71-3.94,7.52-5.66,11.39l-.78,1.77-1.89-.37c-2.72-.53-5.44-1.09-8.16-1.71-.64,1.08-1.26,2.18-1.85,3.29q3.83.88,7.67,1.66l2.8.56-1,2.67a175.41,175.41,0,0,0-7.53,25.85c1.21.13,2.42.22,3.65.27a170.58,170.58,0,0,1,7.83-26.3l.72-1.84,1.94.33a353.9,353.9,0,0,0,37.42,4.18Q247.63,181.71,248.71,179.93Z" fill="#d6edfb" fill-rule="evenodd"></path><path d="M145.7,208.92q1.49,3.24,3.3,6.4c.32.55.65,1.09,1,1.63C164.26,163.5,212.82,123.8,270.5,123c-1.71-1.75-3.5-3.4-5.35-5C210.09,122.3,163.89,159,145.7,208.92Z" fill="#0081c7" fill-rule="evenodd"></path></svg> 