<?xml version="1.0" encoding="UTF-8"?> <svg xmlns="http://www.w3.org/2000/svg" id="Layer_1" data-name="Layer 1" viewBox="0 0 500 500"><title>ChickenWaffle</title><path d="M31.5,306l-.95-3.51c1.65-2,1.55-3.67-1-4.8l-.74-3.47c1.77-2,1.68-3.67-.94-4.84L27,284.28c1.81-2.47,2.3-4.75-.89-6.54A53.21,53.21,0,0,1,25.3,261a42.55,42.55,0,0,0,0-23,51.43,51.43,0,0,1,.91-16.69c3.08-1.8,2.55-4.09.87-6.53l.54-3.43c3.41-1.58,2.73-4,1.27-6.49l.78-3.48c4-10.73,8.44-21.31,9.81-32.81.49-1.24,1-2.48,1.45-3.72,2.36-.74,2.36-2.51,2-4.45,3.69-11,9.36-21,16-30.44,2.28-.33,2.8-1.83,2.56-3.84a204.68,204.68,0,0,1,59.83-61.07c2,.17,3.39-.42,3.7-2.59a1,1,0,0,1,1.23-.76c2,.2,3.43-.32,3.77-2.52a123.67,123.67,0,0,1,30.62-15.91c1.86.33,3.6.34,4.38-1.86L168.82,40c9.14-1.36,17.69-4.57,26.13-8.16l3.5-.93c2,1.72,3.69,1.61,4.84-1l3.47-.75c2,1.79,3.66,1.71,4.86-.87a7,7,0,0,1,5.13-.8c3.55,1.52,7.08,2.86,9.86-1.32,16.09-.66,32.19-1,48.27.21,2.28,3.88,5.25,2.58,8.23,1.08l5.1.77,55.42,16.92c7.77,2.29,14.55,6.52,21.24,10.91.38,2.12,1.84,2.57,3.71,2.39a1,1,0,0,1,1.3.65c.34,2.36,1.9,2.86,4,2.58a45.91,45.91,0,0,1,12.69,9c.19,2.15,1.51,2.92,3.51,2.83a168.07,168.07,0,0,1,36.58,36.38c-.11,2.09.77,3.38,2.94,3.63A92.29,92.29,0,0,1,445,136.36c1.93,6.23,3.71,12.54,9.16,16.88.33.85.67,1.69,1,2.53,1.6,6.16,2.68,12.54,7.37,17.4.92,2.93,1.85,5.87,2.76,8.81-.38,1.73-.55,3.39,1.32,4.46.37,1.16.74,2.33,1.12,3.49-1.7,1.49-1,2.43.71,3.17l1,3.46c-1.71,1.47-1,2.43.67,3.18l.84,3.52c-1.43,2.53-2.07,4.89,1.31,6.45.18,1.15.37,2.3.55,3.45-1.71,2.47-2.23,4.77,1,6.51a72.37,72.37,0,0,1,.76,20,37.58,37.58,0,0,0,0,21.33,67.63,67.63,0,0,1-.63,18.36c-3.39,1.72-2.81,4.05-1,6.56A6.77,6.77,0,0,1,472,291c-2.62,1.16-2.64,2.84-1,4.85l-.78,3.46a188.79,188.79,0,0,0-10,32.71c-.49,1.28-1,2.55-1.48,3.82-2.23.75-2.24,2.47-1.91,4.34a82.36,82.36,0,0,1-11.23,22.24c-2,.44-2.44,1.88-2.28,3.67-4.35,9.12-10.38,17.06-17.15,24.48-2.09.24-3,1.47-2.95,3.51-15.78,19.53-34.2,36-56.29,48.23-1.91-.2-3.37.29-3.75,2.44-7,4.43-14.13,8.69-22.19,11.05a176.78,176.78,0,0,0-32.79,11.38l-3.51,1c-4.81-1-9.27-.37-13.17,2.84l-3.46.59c-2.53-1.72-4.86-2.28-6.53,1.09-2.2,1.06-4.51.79-6.81.53a211.68,211.68,0,0,0-49.68,0c-2.3.26-4.6.53-6.78-.6-1.7-3.31-4-2.7-6.55-1.06l-3.44-.62c-3.92-3.11-8.38-3.73-13.17-2.85l-3.52-1a11.21,11.21,0,0,0-9.65-2.77l-5.33-1.49c-2.24-3.63-5.89-3.63-9.52-3.69l-3.81-1.5c-.74-2.23-2.47-2.23-4.35-1.91a80.72,80.72,0,0,1-22.31-11.3c-.47-1.93-1.88-2.33-3.61-2.2l-1.4-.7c-.35-2.27-1.87-2.76-3.87-2.52a43.65,43.65,0,0,1-12.8-8.87c-.2-2.22-1.55-3-3.61-2.85a186.89,186.89,0,0,1-44.79-46.41c.08-1.87-.55-3.23-2.61-3.53a1,1,0,0,1-.8-1.27c.19-2-.39-3.4-2.59-3.71a27.12,27.12,0,0,1-5.74-9.57c-1.75-6.37-3.64-12.67-9.17-17l-1-2.46c-3.22-10.46-5.67-21.19-11.37-30.73l-1.11-3.52C33.81,307.66,33.12,306.72,31.5,306ZM405.58,98.32l-.52-.09-.08-.51a3.19,3.19,0,0,0-1.07-1.06l-.51-.09-.09-.51A3.22,3.22,0,0,0,402.24,95l-.51-.06-.08-.5-1.23-1.11L400,93l-1.52-1.27a246,246,0,0,0-65.26-41.8L330,48.56,317.93,44a2.11,2.11,0,0,0-1.37-.41L313,42.5,311.41,42l-3.28-.75-3.07-1-1.88-.39c-1.34-1.55-3.16-1.24-4.9-1.23l-3.5-.67c-1.4-1.33-3.15-1-4.83-1l-3.49-.68c-1.46-1.32-3.23-1-4.95-.94L273,34.39l-4.83-.73H231.64c-2.25,0-4.6-.64-6.61,1l-6.66.71c-1.75-.08-3.55-.41-5,1l-3.42.66c-1.72,0-3.5-.37-4.92,1l-3.44.62-3.17.86-3.53.78-3.22,1.13-3.12.66-1.76.56-3.4,1-1.55.51a273.51,273.51,0,0,0-60.22,31l-1.76,1.26-.44.28a2.08,2.08,0,0,0-1,.75l-5.36,4.3L111.51,83l-.11.41-.41,0a2.08,2.08,0,0,0-.82.58L83.74,110.27a2.1,2.1,0,0,0-.56.73l0,.48-.47.12L81.54,113a12.79,12.79,0,0,1-4.43,5.59,2.12,2.12,0,0,0-.61.84l-.34.51-1.22,1.7a308.56,308.56,0,0,0-25.33,44.93l-1.36,3.17-2.71,7a2,2,0,0,0-.57,1.48l-.47,1.68-1.23,3.21-1.19,3.66a2,2,0,0,0-.42,1.47l-.77,3.33-.78,2c-.23,1-.45,2-.68,3-1.48,1.31-1.17,3.07-1.19,4.75l-.38,1.87c-1.59,1.37-1.26,3.2-1.22,5l-1,5.14L35,216.5,34.4,223c-1.78,2-1,4.38-1.08,6.64l0,39.82c.09,2.22-.64,4.57,1.07,6.52l.64,6.65c-.07,1.73-.4,3.51,1,5l.79,4.73L37.7,296l.6,3.39c.32,1.08.64,2.15,1,3.23s.47,2.26.7,3.39l1.16,3.3.44,1.88,1.14,3.09,2.18,6.92,1.21,3.06.49,1.83a2,2,0,0,0,.41,1.23,319.06,319.06,0,0,0,26.26,48.56l1.2,1.68.42.13,0,.44a2.16,2.16,0,0,0,.48.72l2.93,3.72,1.2,1.63.43.13,0,.44a2.11,2.11,0,0,0,.69.82l7.68,8.82a1.88,1.88,0,0,0,.88,1.21l24.47,23,.61.44h.5l.17.47,1.55,1.15a293.9,293.9,0,0,0,45.25,26.89l3,1.38,10.47,4.26,1.53.61,3.58,1.27a2,2,0,0,0,1.34.42l1.75.47,3.3,1.17,3.39.72,2,.81,3,.72,3.6,1,3.07.69c1.38,1.45,3.16,1.13,4.87,1.11l3.5.67c1.43,1.33,3.2,1,4.91,1,1.46-.35,4.41-.26,3.14-2.4-4.77-8.07-10.11-15.81-16.07-24.94l-2.17,16.8c-20.8-19.78-28.42-45-35.21-70.25-3.55.59-2.35,4.88-5.39,4.37-1.84-.3-2.16-2.25-2.65-3.82-7.22-23.1-13.17-46.34-9-70.9,1-5.59,2.52-11.39-4.67-14.82-3.05-1.45-2.67-5.13-2.85-8.2-.48-8.14,0-16.38-2-25.36-7.22,5.87-12.78,12.53-20.5,16.37-3.76,1.87-7.68,3.93-11.65.74-4.16-3.34-3.44-7.88-2.11-12.22,2.4-7.79,7.23-14.26,11.89-20.8,2.41-3.38,4.88-6.73,7-10.3,1.34-2.27,3.26-5.06,0-7.32-3-2.06-5.36,0-7.31,1.94-2.72,2.74-5.17,5.75-7.67,8.72-5,5.93-9.53,12.29-16,16.83-3.53,2.48-7.47,4.39-11.46,1.21-4.19-3.33-6.21-7.69-4.48-13.2A23.58,23.58,0,0,1,81.36,237c7.81-8.25,15.67-16.46,23.49-24.69,2.86-3,6-5.85,7.65-9.75a7.38,7.38,0,0,0-2.07-9c-3.12-2.76-6.12-1.69-9,.58-3.1,2.45-5.29,5.63-7.44,8.87-5.05,7.62-10,15.33-17,21.45-5.92,5.23-13.29,5.63-19,1-5.86-4.79-7.42-10.53-3.65-17.63,3-5.65,6.14-11.17,10.37-16,40.92-46.4,89.65-82.34,146.57-106.78,19.57-8.4,39.92-15.39,61.74-15.57,15.83-.13,23.95,6.14,28.75,21.13,5.6,17.44,3.36,34.38-2.67,51.17-.86,2.4-3.27,5.24.89,6.92,12.8,5.19,19.69,15.62,24.9,27.58l-.21,2.87q-58.93,3.38-117.89,6.7c-10.67.59-11.35.64-10.82,11.54q2,41.79,4.87,83.55c.9,13,5.19,15.12,18.11,10.26,9.26-3.85,2.07-8.86,1-13.44-.13-2.89-.08-5.76,1.47-8.36l2.33-.31c2.41,7-.5,17,4.92,21,5.83,4.35,14.95-.62,22.69-.38.83,0,1.66-.12,2.49-.06,3.62.26,4.77-1.34,4.61-4.93a34.31,34.31,0,0,1,3.11-16.94l2.23-.26c.82,4.32,2.24,8.62,2.33,12.95.16,7.4,3.7,9.28,10.58,9s13.15-3.87,20.24-3.37c3.67.26,2.82-3.27,2.88-5.65.14-6.63-.23-13.32.51-19.89,2.29-20.21,13-29.85,33.41-28.72,10,.56,19.87-.57,29.8-.39,6.36.11,12.87-.17,19.06,1,15.7,3,18.21,5,17.21,20.41l.05-.09c-6.35,9.79-14.18,18.34-22.22,26.72-2.64,1.53-3,4-2.79,6.71-1.6.83-5.3-.85-4.3,3,.76,3,3.15,4.1,6.42,3.76,10.94-1.14,21.89-2.08,32.85-3.1v2.65c-7.59,2.84-15.7,2.53-23.57,3.65-7,1-15.25-.29-13.47,11.72-9.43-8.93-14.35-9.63-19.6-3.55l-1.49,3.32c-.49-1.52-.83-3.44-2.76-3.51s-2.39,1.76-2.63,3.4c-2.33-.08-3.73,3.49-6.51,1.63,6-11.51,16.1-14.09,28.45-11.93C361.71,286,347.5,283.89,334.56,292c-3,1.87-8.88,3.68-6.72,7.81s4.82,10.38,12,9.44c.61,5.91,4.47,8.16,9.87,8.65,2.42.84,3.08,5.91,7.09,2.93l2.8.13c1.15,1.55,2.27,3.12,3.46,4.64,5.19,6.68,4.92,7.57-3.63,9.38-8.22,1.73-16.55,1-24.85.7-1.49-.06-3.66-1-4.08,1.3-.19,1,.86,2.49,1.71,3.45,7.16,8.07,16.42,13.09,26.29,16.88,19.62,7.55,39.45,14.55,59,22.25,4.76,1.87,6.49-.33,8.7-3.4,8.76-12.15,15.78-25.29,22.4-38.66l1.38-3,4.17-10.39.71-1.62,1.24-3.49a2,2,0,0,0,.45-1.41c.42-1.19.83-2.39,1.24-3.59a2.09,2.09,0,0,0,.4-1.47l.72-3.3c.28-.67.55-1.33.83-2l.68-3c1.47-1.29,1.17-3,1.21-4.69.29-1.25.57-2.49.86-3.73l.75-3.1.61-3.44c1.4-1.44,1.08-3.23,1-5l.82-6.7c1.24-1.52.92-3.28.82-5,.07-4.43-.53-8.89.77-13.25a32.79,32.79,0,0,0-.08-18q-.32-6.72-.62-13.42c-.09-2.21.64-4.56-1.06-6.52l-.69-6.56-.68-3.31-1-4.88c-.29-1.17-.57-2.33-.85-3.5l-.68-3.52c-.31-1-.61-2.06-.92-3.1l-.77-3.48a2.09,2.09,0,0,0-.33-1.28l-1.26-4-1.12-3L455,177.91c-.4-1-.79-2-1.18-3l-.52-1.85a2.1,2.1,0,0,0-.41-1.21l-6.2-13.94-1.33-2.94a341.77,341.77,0,0,0-25.39-40.07l-1.14-1.45-10.5-12L407,100l-.36-.45A3,3,0,0,0,405.58,98.32ZM388,252.62a4,4,0,0,1-.91.78c-1.36-.15-2.84-.7-4.07-.37-21.69,5.77-42,14.27-58.07,30.55-1.81,1.83-5.18,3.84-2.36,6.76,2.44,2.52,4.33-.95,6.35-2,9.34-4.69,18.27-10.83,29.64-7.67,2.46.79,4.47,3.08,7.59.92,10.08-7,19.07-15,25.65-25.4,1.39-2.2,3-4.71-1.73-4.84A1.69,1.69,0,0,0,388,252.62ZM156.71,262.91c-.05-1.37-.07-2.74-.16-4.11-.13-1.84.58-4-1.39-5.23a2.43,2.43,0,0,0-2.29.06c-1.89,1.71-1.21,4.07-1.07,6.19.2,3.08,2.7,2.93,4.89,3.11,1.12,2.68-.19,4.37-2.57,5-2.22.61-3.73-.92-4.38-2.88-1.45-4.34-2.69-8.75-4-13.13-3.35,12.38-1.77,24.76-2.27,38.92,7.27-5.31,12.39-9.52,18-13,4.6-2.87,5.77-6.35,5.65-11.63-.38-17.36-.05-34.74-.14-52.11,0-1.81,1.51-4.44-2.09-5.61-2.3,5-4.43,10.08-6.91,15-2.34,4.61-2.29,8.23-.07,13.54C161.29,245.15,163.47,254.6,156.71,262.91ZM262.34,154.77c-3.43-4.28-8.33-5.24-13.32-5.19-16,.16-31,3.84-44.25,13.23l-1.49.83c-11.73,6.43-20.12,16.35-28,26.76-.76.66-2.27,1.39-1.4,2.38,1.13,1.29,2.42.51,3.17-.92,7.34-5.09,15.11-9.58,24.19-10.05,29.28-1.54,58.57-2.7,87.87-4a4.18,4.18,0,0,0,4-.43c6.34-.42,12.67-.86,19-1.22,2.65-.16,5.44-.06,3.67-4.07-2.93-6.67-6.68-12.64-13.27-16.44-4.2-2.42-7.08-2.17-8.89,2.84-1,2.76-1.94,5.93-5.93,6-9.18,0-19.93,4.53-24.37-8.66A1.21,1.21,0,0,0,262.34,154.77ZM198,410.74c5.18,19.68,17.41,35.52,28.53,51.95,1.59,2.35,4.22,2.21,6.72,2.45,29.68,2.83,58.72-1.56,86.57-10.94a208.86,208.86,0,0,0,68.87-38.83c2-1.72,4.84-3,5-6.24l4.59-3.43c8.45-4.9,13.34-13.08,20.69-20.93l-27.36-7.19-1.56-.44L386.55,376l-1.57-.46c-15.49-6.29-30.81-12.93-44.74-22.31-5.47-4.67-10.87-9.43-16.44-14-2-1.65-2.94-5.87-6.08-4.66-3.59,1.39-3.47,5.56-2.81,8.74,1.73,8.38,4.17,16.61,5.88,25,2.58,12.59-6.49,27.61-18.75,31.61-7.73,2.51-18.54.38-20.34-6.5-2.43-9.27-8.59-13.35-15.55-17.64-4.91-10.54-1.9-19.92,4.33-28.76,6.76-9.6,15.37-17.4,24.44-24.75,1.43-1.16,3.63-1.8,3.58-4.17-.09-4.47-9.29-12.36-14.06-12.06-27.4,1.78-54.85,3.09-82.2,5.56-14.59,1.32-24.22-3.44-29.19-17.23-.53-1.46-.7-3.29-3-3.29-4.91,0-16.69,10.38-17.26,15.43-2.22,19.51.77,38.61,4.87,57.57.51,2.37-.53,5.69,2.57,7,3.22-.87,1.7-6.65,6.41-5.42,1.13,4.83,2.43,9.63,3.37,14.5,3.78,19.71,13,36.95,24.06,53.59a145.46,145.46,0,0,0,.79-18.8C194.86,412.76,194.34,410.24,198,410.74Zm103.3-298.63c.55-4.79-.64-9.4-1.56-14-4-19.83-12.39-26.37-32.5-24.64-16.15,1.4-31.6,6.24-46.58,12-56.94,22-104.42,57.88-146.51,101.31A85.09,85.09,0,0,0,58.2,209c-2.44,5.05-2.65,9.68,2.26,13.3s9.75,3.18,14.28-1c6.15-5.71,10.86-12.54,15.45-19.47,2.6-3.94,5.23-7.83,9.06-10.74,4.42-3.35,9-4.5,13.56-.44s5.75,8.86,2.87,14.16a42,42,0,0,1-6.44,8.6c-7.78,8.27-15.8,16.31-23.64,24.53-2.67,2.81-5.28,5.78-5.94,9.8-.52,3.15-.14,6.2,2.82,8.09,2.77,1.78,5.37.57,7.66-1.17,4.9-3.72,8.78-8.43,12.55-13.22,3.59-4.57,6.94-9.37,11.63-12.94,3.61-2.75,7.43-3.91,11.32-.56,3.57,3.07,3.48,6.82,1.25,10.48-2.88,4.72-6,9.29-9.17,13.81-4.3,6.14-8.57,12.28-10.55,19.63-.59,2.2-.7,4.42,1.22,6.15,2.11,1.91,4.28.81,6.15-.27,9.45-5.46,18-11.75,22.72-22.2,7.69-16.85,16.22-33.33,23.74-50.26,7-15.87,18.08-28.38,31-39.52,16.41-14.17,35.75-20.72,57.3-21.16,9-.18,16,3.45,21,11.13,3.9,6,16.1,5.71,19.25-.75C296.08,141.44,300.67,127.28,301.27,112.11ZM395.4,245.75c-3.86-6.55-9.43-7.25-14.81-7.85a158.79,158.79,0,0,0-47.28,1.63c-26.28,5-30.48,6.57-29.07,37.78.34,7.51-.27,13.7-6.12,18.57-4.1,3.42-3.54,6.5-.84,10.65,12.42,19.15,38.21,29.17,60.8,23.29-.08-1.4-1.19-1.65-2.23-2-15.78-4.91-26.46-15.71-34.28-29.7-2.52-4.49-3.78-9.87-9.18-11C336.59,266.89,361.55,248.66,395.4,245.75ZM287,372.28c-5.11,10.27-4.59,16.64,1.2,20.58s14.06,2.33,20.95-4.37c8.09-7.87,9.88-16.58,5.11-27.15-4.32-9.6-7.25-19.17-1.85-29.31,2.36-4.44-2.07-5-4-6.72-2.41-2.19-4.94-4.57-8.56-1.27-11.49,10.5-22.5,21.35-28.38,36.17-1.72,4.34-3.76,9.16,0,13.26,4.06,4.39,8.13.34,12.14-.89A21.62,21.62,0,0,1,287,372.28Zm4.2-77.33a17.45,17.45,0,0,0-3.3-.5C260,296.18,232,297.8,204.1,299.8c-12,.85-15.22-1.66-15.91-13.78q-1.73-30.61-3.6-61.23c-.63-10.33-1.44-20.64-2.23-31.78-7.57,4.61-12.09,9.14-11.39,18.2,1,13.48.17,27.1,1,40.61,1,16.77,1.15,33.85,11.31,48.6,2.34,3.41,4.56,5.6,9.29,5.33,30.17-1.73,60.36-3.17,90.55-4.62C287.13,300.93,289.8,299.35,291.24,295ZM190.75,189.1c-2.94,3.33-2.48,5.34-2.59,7.23-1,17.14.82,34.22,2.19,51.21,1.05,13.15.74,26.4,2.72,39.5.72,4.7,1.33,8.49,5.38,8.69C192.18,260.89,193.09,225.65,190.75,189.1ZM148.92,294.74c7.7-1,12.74-6.74,19.22-9.79.63-.3.67-1.84,1-2.8-1-.27-2.28-1.07-2.92-.72C159.77,285,153.07,288.24,148.92,294.74Zm5.23-57.45c-1.06,2.33-3,4.22-1.16,6.68a2.31,2.31,0,0,0,2.24.08C157.6,241.6,155.83,239.61,154.15,237.29Zm107.71,43.65c0,4-1.35,6.49,1.84,7.84C264.84,286.16,263.37,284.53,261.86,280.94Z" fill="#312a29"></path><path d="M225.06,473.25a211.68,211.68,0,0,1,49.68,0A255.31,255.31,0,0,1,225.06,473.25Z" fill="#332f30"></path><path d="M343.63,45.12,288.21,28.2A166.08,166.08,0,0,1,343.63,45.12Z" fill="#332f30"></path><path d="M39.49,168.59c-1.37,11.5-5.84,22.08-9.81,32.81A116.31,116.31,0,0,1,39.49,168.59Z" fill="#332f30"></path><path d="M460.24,332a188.79,188.79,0,0,1,10-32.71A110.77,110.77,0,0,1,460.24,332Z" fill="#332f30"></path><path d="M308.22,467.2A176.78,176.78,0,0,1,341,455.82,108.76,108.76,0,0,1,308.22,467.2Z" fill="#332f30"></path><path d="M33.32,312.64c5.7,9.54,8.15,20.27,11.37,30.73A101.84,101.84,0,0,1,33.32,312.64Z" fill="#332f30"></path><path d="M25.31,238a42.55,42.55,0,0,1,0,23Z" fill="#332f30"></path><path d="M195,31.79c-8.44,3.59-17,6.8-26.13,8.16A85.38,85.38,0,0,1,195,31.79Z" fill="#332f30"></path><path d="M474.47,261a37.58,37.58,0,0,1,0-21.33A108.59,108.59,0,0,1,474.47,261Z" fill="#332f30"></path><path d="M45.64,345.83c5.53,4.34,7.42,10.64,9.17,17C50.59,357.79,48,351.87,45.64,345.83Z" fill="#332f30"></path><path d="M454.13,153.24c-5.45-4.34-7.23-10.65-9.16-16.88C449.19,141.36,451.78,147.23,454.13,153.24Z" fill="#332f30"></path><path d="M462.5,173.17c-4.69-4.86-5.77-11.24-7.37-17.4C458.79,161.07,460.81,167.05,462.5,173.17Z" fill="#332f30"></path><path d="M195.12,468.12c4.79-.88,9.25-.26,13.17,2.85A33.52,33.52,0,0,1,195.12,468.12Z" fill="#332f30"></path><path d="M291.54,471c3.9-3.21,8.36-3.84,13.17-2.84A34.31,34.31,0,0,1,291.54,471Z" fill="#332f30"></path><path d="M226.61,26.14c-2.78,4.18-6.31,2.84-9.86,1.32A20.85,20.85,0,0,1,226.61,26.14Z" fill="#332f30"></path><path d="M283.11,27.43c-3,1.5-5.95,2.8-8.23-1.08A14.52,14.52,0,0,1,283.11,27.43Z" fill="#332f30"></path><path d="M167.1,459.18c3.63.06,7.28.06,9.52,3.69C173.23,462.2,169.91,461.35,167.1,459.18Z" fill="#332f30"></path><path d="M182,464.36a11.21,11.21,0,0,1,9.65,2.77A18.28,18.28,0,0,1,182,464.36Z" fill="#332f30"></path><path d="M26.12,277.74c3.19,1.79,2.7,4.07.89,6.54C26.14,282.17,25.37,280.06,26.12,277.74Z" fill="#332f30"></path><path d="M27.09,214.8c1.68,2.44,2.21,4.73-.87,6.53C25.54,219,26.26,216.91,27.09,214.8Z" fill="#332f30"></path><path d="M473.72,219.67c-3.2-1.74-2.68-4-1-6.51C473.61,215.25,474.37,217.36,473.72,219.67Z" fill="#332f30"></path><path d="M472.84,286c-1.81-2.51-2.39-4.84,1-6.56C474.54,281.74,473.71,283.85,472.84,286Z" fill="#332f30"></path><path d="M28.9,204.88c1.46,2.53,2.14,4.91-1.27,6.49A9.36,9.36,0,0,1,28.9,204.88Z" fill="#332f30"></path><path d="M281.55,472.72c1.67-3.37,4-2.81,6.53-1.09C286,472.53,283.87,473.23,281.55,472.72Z" fill="#332f30"></path><path d="M472.2,209.71c-3.38-1.56-2.74-3.92-1.31-6.45A9.43,9.43,0,0,1,472.2,209.71Z" fill="#332f30"></path><path d="M211.73,471.59c2.51-1.64,4.85-2.25,6.55,1.06A10.55,10.55,0,0,1,211.73,471.59Z" fill="#332f30"></path><path d="M27.85,289.36c2.62,1.17,2.71,2.82.94,4.84A5.42,5.42,0,0,1,27.85,289.36Z" fill="#332f30"></path><path d="M203.29,29.88c-1.15,2.59-2.81,2.7-4.84,1A5.49,5.49,0,0,1,203.29,29.88Z" fill="#332f30"></path><path d="M29.53,297.67c2.57,1.13,2.67,2.78,1,4.8A5.47,5.47,0,0,1,29.53,297.67Z" fill="#332f30"></path><path d="M211.62,28.26c-1.2,2.58-2.86,2.66-4.86.87A5.42,5.42,0,0,1,211.62,28.26Z" fill="#332f30"></path><path d="M471,295.87c-1.67-2-1.65-3.69,1-4.85A5.55,5.55,0,0,1,471,295.87Z" fill="#332f30"></path><path d="M165,41.43c-.78,2.2-2.52,2.19-4.38,1.86A4.9,4.9,0,0,1,165,41.43Z" fill="#332f30"></path><path d="M466.58,186.44c-1.87-1.07-1.7-2.73-1.32-4.46C466.68,183.18,466.8,184.76,466.58,186.44Z" fill="#332f30"></path><path d="M456.85,340.2c-.33-1.87-.32-3.59,1.91-4.34A5,5,0,0,1,456.85,340.2Z" fill="#332f30"></path><path d="M368.58,58.42c-1.87.18-3.33-.27-3.71-2.39C366.39,56.39,367.83,56.87,368.58,58.42Z" fill="#332f30"></path><path d="M130,59.2c-.34,2.2-1.81,2.72-3.77,2.52A5.12,5.12,0,0,1,130,59.2Z" fill="#332f30"></path><path d="M373.85,61.65c-2.07.28-3.63-.22-4-2.58A5.54,5.54,0,0,1,373.85,61.65Z" fill="#332f30"></path><path d="M443.34,366.11c-.16-1.79.27-3.23,2.28-3.67A4.45,4.45,0,0,1,443.34,366.11Z" fill="#332f30"></path><path d="M60.55,372.41c2.2.31,2.78,1.74,2.59,3.71A5.11,5.11,0,0,1,60.55,372.41Z" fill="#332f30"></path><path d="M63.94,377.39c2.06.3,2.69,1.66,2.61,3.53A4.82,4.82,0,0,1,63.94,377.39Z" fill="#332f30"></path><path d="M125,62.48c-.31,2.17-1.73,2.76-3.7,2.59A4.92,4.92,0,0,1,125,62.48Z" fill="#332f30"></path><path d="M390.05,73.44c-2,.09-3.32-.68-3.51-2.83A5.08,5.08,0,0,1,390.05,73.44Z" fill="#332f30"></path><path d="M423.24,394.1c-.05-2,.86-3.27,2.95-3.51A4.88,4.88,0,0,1,423.24,394.1Z" fill="#332f30"></path><path d="M111.34,427.33c2.06-.13,3.41.63,3.61,2.85A5.34,5.34,0,0,1,111.34,427.33Z" fill="#332f30"></path><path d="M470.05,199.74c-1.68-.75-2.38-1.71-.67-3.18A2.76,2.76,0,0,1,470.05,199.74Z" fill="#332f30"></path><path d="M127.75,439.05c2-.24,3.52.25,3.87,2.52A5.47,5.47,0,0,1,127.75,439.05Z" fill="#332f30"></path><path d="M133,442.27c1.73-.13,3.14.27,3.61,2.2A4.09,4.09,0,0,1,133,442.27Z" fill="#332f30"></path><path d="M363.2,444.77c.38-2.15,1.84-2.64,3.75-2.44A4.91,4.91,0,0,1,363.2,444.77Z" fill="#332f30"></path><path d="M158.94,455.77c1.88-.32,3.61-.32,4.35,1.91A5.06,5.06,0,0,1,158.94,455.77Z" fill="#332f30"></path><path d="M429.57,113.45c-2.17-.25-3.05-1.54-2.94-3.63A5.24,5.24,0,0,1,429.57,113.45Z" fill="#332f30"></path><path d="M61.43,126.14c.24,2-.28,3.51-2.56,3.84A5.33,5.33,0,0,1,61.43,126.14Z" fill="#332f30"></path><path d="M42.91,160.42c.39,1.94.39,3.71-2,4.45A5.15,5.15,0,0,1,42.91,160.42Z" fill="#332f30"></path><path d="M468.41,193.1c-1.68-.74-2.41-1.68-.71-3.17C467.93,191,468.17,192,468.41,193.1Z" fill="#332f30"></path><path d="M31.5,306c1.62.74,2.31,1.68.71,3.14Z" fill="#332f30"></path><path d="M113.07,81.76l5.36-4.3a.76.76,0,0,0,1-.75l.44-.28,1.76-1.26a273.51,273.51,0,0,1,60.22-31l1.55-.51,3.4-1,1.76-.57,3.12-.66,3.22-1.13,3.53-.78,3.17-.86L205,38l4.92-1,3.42-.66,5-1,6.66-.71a11.08,11.08,0,0,0,6.61-1h36.57l4.83.73,8.47.94,4.95.94L290,37l4.83,1,3.5.67,4.9,1.23,1.88.39,3.07,1,3.28.75,1.59.49,3.56,1.11,1.37.41L330,48.56l3.21,1.35a246,246,0,0,1,65.26,41.8L400,93l.44.34,1.23,1.11.08.5.51.06,1.07,1.07.09.51.51.09L405,97.72l.08.51.52.09,1.08,1.2.36.45,1.26,1.48,10.5,12,1.14,1.45a341.77,341.77,0,0,1,25.39,40.07l1.33,2.94,6.2,13.94a.79.79,0,0,0,.41,1.21l.52,1.85c.39,1,.78,2,1.18,3l2.22,6.94,1.12,3,1.26,4a.81.81,0,0,0,.33,1.28c.26,1.16.51,2.32.77,3.48s.61,2.07.92,3.1c.22,1.18.45,2.35.68,3.52s.56,2.33.85,3.5l1,4.88c.23,1.1.46,2.21.68,3.31l.69,6.56c.35,2.17.7,4.35,1.06,6.52q.3,6.71.62,13.42,0,9,.08,18c-1.3,4.36-.7,8.82-.77,13.25-.28,1.67-.55,3.34-.82,5-.27,2.23-.54,4.47-.82,6.7-.34,1.66-.67,3.31-1,5-.2,1.15-.41,2.29-.61,3.44l-.75,3.1c-.29,1.24-.57,2.48-.86,3.73-.4,1.56-.8,3.13-1.21,4.69l-.68,3c-.28.66-.55,1.32-.83,2l-.72,3.3c-.13.49-.26,1-.4,1.47-.41,1.2-.82,2.4-1.24,3.59l-.45,1.41-1.24,3.49c-.24.54-.48,1.08-.71,1.62L450,334.51l-1.38,3c-6.62,13.37-13.64,26.51-22.4,38.66-2.21,3.07-3.94,5.27-8.7,3.4-19.56-7.7-39.39-14.7-59-22.25-9.87-3.79-19.13-8.81-26.29-16.88-.85-1-1.9-2.43-1.71-3.45.42-2.29,2.59-1.36,4.08-1.3,8.3.33,16.63,1,24.85-.7,8.55-1.81,8.82-2.7,3.63-9.38-1.19-1.52-2.31-3.09-3.46-4.64q-3.18-8.3-6.34-16.59c5.25-6.08,10.17-5.38,19.6,3.55-1.78-12,6.45-10.72,13.47-11.72,7.87-1.12,16-.81,23.57-3.65,15.14-4.25,22.11-13.11,22.05-28-.07-17.61-.22-35.22-.13-52.83,0-9.92-.16-19.82-1.87-29.6-.79-4.52-1.65-9.6-8.28-9.17l0,0a1.68,1.68,0,0,0-1.84-1.6l-3.29.05c-18.32,1.69-36.8.75-55.05,3.52-1.91-.17-3.85-.54-5.61.62-3.3-1.06-6.56-1.73-9.59.71l-21.33,0c-5.21-12-12.1-22.39-24.9-27.58-4.16-1.68-1.75-4.52-.89-6.92,6-16.79,8.27-33.73,2.67-51.17-4.8-15-12.92-21.26-28.75-21.13-21.82.18-42.17,7.17-61.74,15.57-56.92,24.44-105.65,60.38-146.57,106.78-4.23,4.79-7.37,10.31-10.37,16-3.77,7.1-2.21,12.84,3.65,17.63,5.69,4.66,13.06,4.26,19-1C84,218.35,89,210.64,94,203c2.15-3.24,4.34-6.42,7.44-8.87,2.86-2.27,5.86-3.34,9-.58a7.38,7.38,0,0,1,2.07,9c-1.67,3.9-4.79,6.74-7.65,9.75C97,220.58,89.17,228.79,81.36,237a23.58,23.58,0,0,0-5.51,9.17c-1.73,5.51.29,9.87,4.48,13.2,4,3.18,7.93,1.27,11.46-1.21,6.44-4.54,11-10.9,16-16.83,2.5-3,4.95-6,7.67-8.72,1.95-2,4.34-4,7.31-1.94,3.25,2.26,1.33,5,0,7.32-2.11,3.57-4.58,6.92-7,10.3-4.66,6.54-9.49,13-11.89,20.8-1.33,4.34-2,8.88,2.11,12.22,4,3.19,7.89,1.13,11.65-.74,7.72-3.84,13.28-10.5,20.5-16.37,2.06,9,1.53,17.22,2,25.36.18,3.07-.2,6.75,2.85,8.2,7.19,3.43,5.63,9.23,4.67,14.82-4.21,24.56,1.74,47.8,9,70.9.49,1.57.81,3.52,2.65,3.82,3,.51,1.84-3.78,5.39-4.37,6.79,25.26,14.41,50.47,35.21,70.25l2.17-16.8c6,9.13,11.3,16.87,16.07,24.94,1.27,2.14-1.68,2.05-3.14,2.4l-4.91-1-3.5-.67L201.67,461l-3.07-.69-3.6-1-3-.72-2-.81-3.39-.72-3.3-1.17-1.75-.47a.88.88,0,0,0-1.34-.42l-3.58-1.27-1.53-.61-10.47-4.26-3-1.38a293.33,293.33,0,0,1-45.24-26.89l-1.56-1.15-.17-.47h-.5l-.13-.49-.48.05-24.47-23c-.29-.41-.59-.81-.88-1.21l-7.68-8.82-.1-.61-.59-.21,0-.44-.43-.13-1.2-1.63-2.92-3.72,0-.53-.52-.19,0-.44-.42-.13-1.2-1.68A319.06,319.06,0,0,1,47,327.27a.81.81,0,0,0-.41-1.23l-.49-1.83c-.41-1-.81-2-1.21-3.06l-2.18-6.92-1.14-3.09-.44-1.88L40,306c-.23-1.13-.47-2.26-.7-3.39l-1-3.23L37.7,296l-.94-3.59L36,287.63c-.33-1.65-.65-3.31-1-5q-.33-3.33-.64-6.65l-1.07-6.52q0-19.9,0-39.82L34.4,223,35,216.5l.66-3.3c.32-1.71.63-3.43,1-5.14l1.22-5,.38-1.87c.39-1.58.79-3.17,1.19-4.75.23-1,.45-2,.68-3l.78-2c.26-1.11.51-2.22.77-3.33l.42-1.47c.4-1.22.79-2.44,1.19-3.66l1.23-3.21.47-1.68.57-1.48,2.71-7,1.36-3.17a308.56,308.56,0,0,1,25.33-44.93l1.22-1.7.34-.51.56-.24,0-.6A12.79,12.79,0,0,0,81.54,113l1.15-1.37.47-.12,0-.48.54-.18,0-.55,26.43-26.33.58,0,.24-.55.41,0,.11-.41Z" fill="#f9f9f9"></path><path d="M398.22,405.7l-4.59,3.43c-2.88-.35-4.44,1.72-6.4,3.26-5.61,4.45-11.18,9-17.11,13-19.9,13.45-41.83,22.51-64.86,29.1-20.89,6-42.28,7.86-63.88,7.49-5.4-.1-11.15-.86-14.89-5.86-8.8-11.74-17-23.78-22.08-37.73-1.11-3.06-1.61-7.38-6.44-7.66-3.63-.5-3.11,2-3.11,4.21a145.46,145.46,0,0,1-.79,18.8c-11-16.64-20.28-33.88-24.06-53.59-.94-4.87-2.24-9.67-3.37-14.5.88-5.63-6.45-5-7.35-10.89-2.41-15.89-2.71-31.73-2.71-47.66,0-6.49,5.16-8,9.63-9.92,4.79-2,5.15,3.1,6.84,5.32,7.39,9.7,15.87,16.05,29,12.08,2.3-.7,4.95-.21,7.44-.31,13.78-.55,27.69-.16,41.29-2,9.94-1.36,19.9-.18,29.68-1.87,4.16-.72,7.59-2.35,10.69,2.59,3.53,5.63-.47,8-3.46,11-10,10.21-21.26,19.26-26.62,33.26-3,7.94-1.23,16,5.1,18.49,7,4.29,13.12,8.37,15.55,17.64,1.8,6.88,12.61,9,20.34,6.5,12.26-4,21.33-19,18.75-31.61-1.71-8.38-4.15-16.61-5.88-25-.66-3.18-.78-7.35,2.81-8.74,3.14-1.21,4.06,3,6.08,4.66,5.57,4.55,11,9.31,16.44,14-.76,3.16,1.66,4.38,3.66,5.76,10.22,7.07,21.35,12.43,32.88,17,2.74,1.09,5.65,2.83,8.2-.46l1.57.46c.47,2.38,1.23,3.89,3.44,1.16l1.56.44c1.63,7,8.1,5.56,12.73,6.94,6,1.79,8.39,3.44,2.46,8.74C403,396.57,397.69,399.3,398.22,405.7Z" fill="#e7e7e7"></path><path d="M416.55,171.49l3.29-.05c-.39,1.69.16,2.29,1.84,1.6l0,0c1.05,4.08,4.94,6.59,5.18,11.41,1.39,28.13,1.29,56.28,1.59,84.43,0,3.17-.59,6.54-4.32,7-4.62.61-9.68,1.48-13.94.21-3.92-1.17-1.2-6.45-2.54-9.62-2-4.83.65-12.37-7.75-13.59,1-15.43-1.51-17.42-17.21-20.41-6.19-1.18-12.7-.9-19.06-1-9.93-.18-19.78.95-29.8.39-20.41-1.13-31.12,8.51-33.41,28.72-.74,6.57-.37,13.26-.51,19.89-.06,2.38.79,5.91-2.88,5.65-7.09-.5-13.31,3.07-20.24,3.37s-10.42-1.58-10.58-9c-.09-4.33-1.51-8.63-2.34-12.95-.89-1.21-1.66-1.39-2.22.26a34.31,34.31,0,0,0-3.11,16.94c.16,3.59-1,5.19-4.61,4.93-.83-.06-1.66.09-2.49.06-7.74-.24-16.86,4.73-22.69.38-5.42-4.05-2.51-14-4.92-21-.95-1.21-1.74-1.21-2.33.3-1.55,2.6-1.6,5.47-1.47,8.36-2.51,4.33-1.35,8.91-1,13.44-12.92,4.86-17.21,2.73-18.11-10.26q-2.88-41.74-4.87-83.55c-.53-10.9.15-10.95,10.82-11.54q58.95-3.23,117.9-6.7c12.28,1.13,24.43-1.57,36.68-1.35,16.76-.91,33.52-1.76,50.26-2.8C413.75,174.89,417.3,175.84,416.55,171.49Zm-204,23.09a4,4,0,0,0-3.65-3.83c-2.64-.36-4.22,1.14-4.21,3.71,0,2.23,1.61,3.43,3.8,3.35A3.88,3.88,0,0,0,212.56,194.58Z" fill="#898685"></path><path d="M301.27,112.11c-.6,15.17-5.19,29.33-11.78,42.84-3.15,6.46-15.35,6.79-19.25.75-4.95-7.68-11.93-11.31-21-11.13-21.55.44-40.89,7-57.3,21.16-12.9,11.14-23.94,23.65-31,39.52-7.52,16.93-16.05,33.41-23.74,50.26-4.77,10.45-13.27,16.74-22.72,22.2-1.87,1.08-4,2.18-6.15.27-1.92-1.73-1.81-4-1.22-6.15,2-7.35,6.25-13.49,10.55-19.63,3.17-4.52,6.29-9.09,9.17-13.81,2.23-3.66,2.32-7.41-1.25-10.48-3.89-3.35-7.71-2.19-11.32.56-4.69,3.57-8,8.37-11.63,12.94-3.77,4.79-7.65,9.5-12.55,13.22-2.29,1.74-4.89,2.95-7.66,1.17-3-1.89-3.34-4.94-2.82-8.09.66-4,3.27-7,5.94-9.8,7.84-8.22,15.86-16.26,23.64-24.53a42,42,0,0,0,6.44-8.6c2.88-5.3,1.63-10.19-2.87-14.16s-9.14-2.91-13.56.44c-3.83,2.91-6.46,6.8-9.06,10.74-4.59,6.93-9.3,13.76-15.45,19.47-4.53,4.21-9.33,4.69-14.28,1s-4.7-8.25-2.26-13.3a85.09,85.09,0,0,1,15.92-22.18c42.09-43.43,89.57-79.27,146.51-101.31,15-5.79,30.43-10.63,46.58-12,20.11-1.73,28.51,4.81,32.5,24.64C300.63,102.71,301.82,107.32,301.27,112.11Z" fill="#e92328"></path><path d="M395.4,245.75c-33.85,2.91-58.81,21.14-83,41.37,5.4,1.16,6.66,6.54,9.18,11,7.82,14,18.5,24.79,34.28,29.7,1,.32,2.15.57,2.24,2-22.6,5.88-48.39-4.14-60.81-23.29-2.7-4.15-3.26-7.23.84-10.65,5.85-4.87,6.46-11.06,6.12-18.57-1.41-31.21,2.79-32.81,29.07-37.78a158.79,158.79,0,0,1,47.28-1.63C386,238.5,391.54,239.2,395.4,245.75Zm-73.08-.32c-3.26-.25-4.73,1.83-6.4,3.49-1.49,1.48-2,3.26-.86,5.12.7,1.14,1.76,2.22,3.3,1.91,2.65-.52,2.32-2.47,1.88-4.4C319.71,249.19,323.4,248.52,322.32,245.43Z" fill="#efe05b"></path><path d="M287,372.28a21.62,21.62,0,0,0-3.36.3c-4,1.23-8.08,5.28-12.14.89-3.79-4.1-1.75-8.92,0-13.26,5.88-14.82,16.89-25.67,28.38-36.17,3.62-3.3,6.15-.92,8.56,1.27,1.93,1.76,6.36,2.28,4,6.72-5.4,10.14-2.47,19.71,1.85,29.31,4.77,10.57,3,19.28-5.11,27.15-6.89,6.7-15,8.4-20.95,4.37S281.93,382.55,287,372.28Z" fill="#e62428"></path><path d="M291.24,295c-1.44,4.4-4.11,6-8.16,6.18-30.19,1.45-60.38,2.89-90.55,4.62-4.73.27-6.95-1.92-9.29-5.33-10.16-14.75-10.33-31.83-11.31-48.6-.79-13.51.08-27.13-1-40.61-.7-9.06,3.82-13.59,11.39-18.2.79,11.14,1.6,21.45,2.23,31.78q1.89,30.61,3.6,61.23c.69,12.12,3.94,14.63,15.91,13.78,27.93-2,55.89-3.62,83.84-5.35A17.45,17.45,0,0,1,291.24,295ZM174.87,254.54c1.22,2.94-.32,9.28,4.84,9.1,3.63-.12,3.51-6.23,3.19-9.91s.55-10-4.44-9.83C174.82,244,175.38,250.08,174.87,254.54Zm5.1-43.48c-.59-2.83.82-7.61-3.49-7.67-3.54,0-3,4.48-3.06,7.3,0,3.1-.54,7.78,3.39,7.87C180.25,218.63,179.48,214,180,211.06Z" fill="#898685"></path><path d="M203.28,163.64l1.49-.83c3.15,3.72,5.56,0,7.81-1.13,11.55-5.7,23.74-8,36.53-8.7,4.75-.28,8.37,5.05,13.23,1.79a1.21,1.21,0,0,1,1,1c-2.26,6.38.84,10.76,6,13.4,6.55,3.33,21.41-.51,26.23-6.09,1.62-1.88,2.39-6.26,5.9-3.63,3.35,2.51,8.33,5,7.84,9.87-.38,3.76-4.84,3.76-8.2,3.83-1.93,0-3.87-.07-5.81,0-12.93.63-25.89,1-38.8,2-19.49,1.52-39,2.6-58.56,2.93-1.32,0-2.95.32-3.68-1.17-1-1.94.85-2.91,1.81-4.14C198.48,169.73,204.1,169.19,203.28,163.64Z" fill="#e7e7e7"></path><path d="M266.15,375.77c-6.33-2.51-8.13-10.55-5.1-18.49,5.36-14,16.66-23,26.62-33.26,3-3.06,7-5.39,3.46-11-3.1-4.94-6.53-3.31-10.69-2.59-9.78,1.69-19.74.51-29.68,1.87-13.6,1.84-27.51,1.45-41.29,2-2.49.1-5.14-.39-7.44.31-13.11,4-21.59-2.38-29-12.08-1.69-2.22-2.05-7.33-6.84-5.32-4.47,1.88-9.63,3.43-9.63,9.92,0,15.93.3,31.77,2.71,47.66.9,5.92,8.23,5.26,7.35,10.89-4.71-1.23-3.19,4.55-6.41,5.42-3.1-1.32-2.06-4.64-2.57-7-4.1-19-7.09-38.06-4.87-57.57.57-5.05,12.35-15.43,17.26-15.43,2.3,0,2.47,1.83,3,3.29,5,13.79,14.6,18.55,29.19,17.23,27.35-2.47,54.8-3.78,82.2-5.56,4.77-.3,14,7.59,14.06,12.06.05,2.37-2.15,3-3.58,4.17-9.07,7.35-17.68,15.15-24.44,24.75C264.25,355.85,261.24,365.23,266.15,375.77Z" fill="#e1e0e0"></path><path d="M399.86,252.88c8.4,1.22,5.72,8.76,7.75,13.59,1.34,3.17-1.38,8.45,2.54,9.62,4.26,1.27,9.32.4,13.94-.21,3.73-.5,4.35-3.87,4.32-7-.3-28.15-.2-56.3-1.59-84.43-.24-4.82-4.13-7.33-5.18-11.41,6.63-.43,7.49,4.65,8.28,9.17,1.71,9.78,1.92,19.68,1.87,29.6-.09,17.61.06,35.22.13,52.83.06,14.86-6.91,23.72-22.05,28v-2.65c2.78-1.25,6.43-1.31,8-5.91-7.63.6-14.49,1.28-21.37,1.63-7.2.36-14.42.4-21.63.58-.18-2.7.15-5.18,2.79-6.71,23.56-1.07,23.56-1.07,22.58-24.31a22.63,22.63,0,0,0-.36-2.41Z" fill="#332f30"></path><path d="M203.28,163.64c.82,5.55-4.8,6.09-7.17,9.16-1,1.23-2.78,2.2-1.81,4.14.73,1.49,2.36,1.19,3.68,1.17,19.56-.33,39.07-1.41,58.56-2.93,12.91-1,25.87-1.38,38.8-2,1.94-.09,3.88,0,5.81,0,3.36-.07,7.82-.07,8.2-3.83.49-4.84-4.49-7.36-7.84-9.87-3.51-2.63-4.28,1.75-5.9,3.63-4.82,5.58-19.68,9.42-26.23,6.09-5.2-2.64-8.3-7-6-13.4,4.44,13.19,15.19,8.71,24.37,8.66,4,0,4.93-3.19,5.93-6,1.81-5,4.69-5.26,8.89-2.84,6.59,3.8,10.34,9.77,13.27,16.44,1.77,4-1,3.91-3.67,4.07-6.34.36-12.67.8-19,1.22a4.29,4.29,0,0,0-4,.43c-29.3,1.31-58.59,2.47-87.87,4-9.08.47-16.85,5-24.19,10.05l-1.77-1.46C183.16,180,191.55,170.07,203.28,163.64Z" fill="#e1e0e0"></path><path d="M198,410.74c4.83.28,5.33,4.6,6.44,7.66,5.06,14,13.28,26,22.08,37.73,3.74,5,9.49,5.76,14.89,5.86,21.6.37,43-1.51,63.88-7.49,23-6.59,45-15.65,64.86-29.1,5.93-4,11.5-8.56,17.11-13,2-1.54,3.52-3.61,6.4-3.26-.13,3.28-2.94,4.52-5,6.24a208.86,208.86,0,0,1-68.87,38.83c-27.85,9.38-56.89,13.77-86.57,10.94-2.5-.24-5.13-.1-6.72-2.45C215.38,446.26,203.15,430.42,198,410.74Z" fill="#e1e0e0"></path><path d="M156.71,262.91c6.76-8.31,4.58-17.76,1.16-25.9-2.22-5.31-2.27-8.93.07-13.54,2.48-4.88,4.61-9.94,6.91-15,3.6,1.17,2.08,3.8,2.09,5.61.09,17.37-.24,34.75.14,52.11.12,5.28-1.05,8.76-5.65,11.63-5.59,3.48-10.71,7.69-18,13,.5-14.16-1.08-26.54,2.27-38.92,1.33,4.38,2.57,8.79,4,13.13.65,2,2.16,3.49,4.38,2.88,2.38-.65,3.69-2.34,2.57-5Z" fill="#898685"></path><path d="M358.55,280.71c-11.37-3.16-20.3,3-29.64,7.67-2,1-3.91,4.48-6.35,2-2.82-2.92.55-4.93,2.36-6.76C341,267.3,361.3,258.8,383,253c1.23-.33,2.71.22,4.07.37-1.66,8.18-9.4,10.77-14.53,15.78C368.19,273.43,361.27,274.55,358.55,280.71Z" fill="#8f833d"></path><path d="M339.81,309.27c-7.15.94-9.77-5.24-12-9.44s3.74-5.94,6.72-7.81c12.94-8.13,27.15-6,33.73,5.28-12.35-2.16-22.44.42-28.45,11.93Z" fill="#e62428"></path><path d="M190.75,189.1c2.34,36.55,1.43,71.79,7.7,106.63-4-.2-4.66-4-5.38-8.69-2-13.1-1.67-26.35-2.72-39.5-1.37-17-3.22-34.07-2.19-51.21C188.27,194.44,187.81,192.43,190.75,189.1Z" fill="#4b4847"></path><path d="M374.9,286.22c7.21-.18,14.43-.22,21.63-.58,6.88-.35,13.74-1,21.37-1.63-1.6,4.6-5.25,4.66-8,5.91-11,1-21.91,2-32.85,3.1-3.27.34-5.66-.78-6.42-3.76C369.6,285.37,373.3,287.05,374.9,286.22Z" fill="#898685"></path><path d="M358.55,280.71c2.72-6.16,9.64-7.28,14-11.53,5.13-5,12.87-7.6,14.53-15.78a4,4,0,0,0,.91-.78l2.09-1.23c4.72.13,3.12,2.64,1.73,4.84-6.58,10.43-15.57,18.43-25.65,25.4C363,283.79,361,281.5,358.55,280.71Z" fill="#efe05b"></path><path d="M399.91,252.79a22.63,22.63,0,0,1,.36,2.41c1,23.24,1,23.24-22.58,24.31C385.73,271.13,393.56,262.58,399.91,252.79Z" fill="#898685"></path><path d="M262.34,154.77c-4.86,3.26-8.48-2.07-13.23-1.79-12.79.74-25,3-36.53,8.7-2.25,1.12-4.66,4.85-7.81,1.13C218,153.42,233,149.74,249,149.58,254,149.53,258.91,150.49,262.34,154.77Z" fill="#e1e0e0"></path><path d="M398.22,405.7c-.53-6.4,4.82-9.13,8.52-12.44,5.93-5.3,3.56-6.95-2.46-8.74-4.63-1.38-11.1.07-12.73-6.94l27.36,7.19C411.56,392.62,406.67,400.8,398.22,405.7Z" fill="#e1e0e0"></path><path d="M385,375.52c-2.55,3.29-5.46,1.55-8.2.46-11.53-4.58-22.66-9.94-32.88-17-2-1.38-4.42-2.6-3.66-5.76C354.17,362.59,369.49,369.23,385,375.52Z" fill="#e1e0e0"></path><path d="M148.92,294.74c4.15-6.5,10.85-9.77,17.28-13.31.64-.35,1.93.45,2.92.72-.31,1-.35,2.5-1,2.8C161.66,288,156.62,293.77,148.92,294.74Z" fill="#4b4847"></path><path d="M361.45,177.82c-12.25-.22-24.4,2.48-36.68,1.35.06-1,.13-1.91.2-2.87l21.33,0,9.59-.71c1.76-1.16,3.7-.79,5.61-.62C361.48,176,361.47,176.89,361.45,177.82Z" fill="#413f3f"></path><path d="M356.77,320.85c-4,3-4.67-2.09-7.09-2.93a12.47,12.47,0,0,0-3.33-10.32c.24-1.64.58-3.48,2.63-3.4s2.27,2,2.76,3.51A28.61,28.61,0,0,0,356.77,320.85Z" fill="#bbae45"></path><path d="M346.35,307.6a12.47,12.47,0,0,1,3.33,10.32c-5.4-.49-9.26-2.74-9.87-8.65l0,0C342.62,311.09,344,307.52,346.35,307.6Z" fill="#8f833d"></path><path d="M219,291.22c-.39-4.53-1.55-9.11,1-13.44C221.1,282.36,228.29,287.37,219,291.22Z" fill="#413f3f"></path><path d="M156.69,262.93c-2.19-.18-4.69,0-4.89-3.11-.14-2.12-.82-4.48,1.07-6.19a2.43,2.43,0,0,1,2.29-.06c2,1.25,1.26,3.39,1.39,5.23.09,1.37.11,2.74.16,4.11Z" fill="#4b4847"></path><path d="M356.77,320.85a28.61,28.61,0,0,1-5-13.14l1.49-3.32q3.16,8.3,6.34,16.59Z" fill="#4a4641"></path><path d="M467.25,259.37q0-9-.08-18A32.79,32.79,0,0,1,467.25,259.37Z" fill="#332f30"></path><path d="M154.15,237.29c1.68,2.32,3.45,4.31,1.08,6.76A2.31,2.31,0,0,1,153,244C151.2,241.51,153.09,239.62,154.15,237.29Z" fill="#4b4847"></path><path d="M261.86,280.94c1.51,3.59,3,5.22,1.84,7.84C260.51,287.43,261.86,285,261.86,280.94Z" fill="#332f30"></path><path d="M231.64,33.67a11.08,11.08,0,0,1-6.61,1C227,33,229.39,33.71,231.64,33.67Z" fill="#332f30"></path><path d="M390,377.14c-2.21,2.73-3,1.22-3.44-1.16Z" fill="#e1e0e0"></path><path d="M34.4,223l-1.08,6.64C33.37,227.42,32.62,225,34.4,223Z" fill="#332f30"></path><path d="M466.55,227.92c-.36-2.17-.71-4.35-1.06-6.52C467.19,223.36,466.46,225.71,466.55,227.92Z" fill="#332f30"></path><path d="M33.28,269.5,34.35,276C32.64,274.07,33.37,271.72,33.28,269.5Z" fill="#332f30"></path><path d="M463.83,289.3c.34-1.66.67-3.31,1-5C464.91,286.07,465.23,287.86,463.83,289.3Z" fill="#332f30"></path><path d="M218.37,35.35l-5,1C214.82,34.94,216.62,35.27,218.37,35.35Z" fill="#332f30"></path><path d="M465.66,277.63c.27-1.67.54-3.34.82-5C466.58,274.35,466.9,276.11,465.66,277.63Z" fill="#332f30"></path><path d="M273,34.39l-4.83-.73Z" fill="#332f30"></path><path d="M35,282.67c.33,1.65.65,3.31,1,5C34.59,286.18,34.92,284.4,35,282.67Z" fill="#332f30"></path><path d="M37.86,203.09l-1.22,5C36.6,206.29,36.27,204.46,37.86,203.09Z" fill="#332f30"></path><path d="M39.43,196.47c-.4,1.58-.8,3.17-1.19,4.75C38.26,199.54,38,197.78,39.43,196.47Z" fill="#332f30"></path><path d="M303.18,39.84l-4.9-1.23C300,38.6,301.84,38.29,303.18,39.84Z" fill="#332f30"></path><path d="M460.4,304.26c.41-1.56.81-3.13,1.21-4.69C461.57,301.23,461.87,303,460.4,304.26Z" fill="#332f30"></path><path d="M201.67,461l4.87,1.11C204.83,462.14,203.05,462.46,201.67,461Z" fill="#332f30"></path><path d="M210,462.79l4.91,1C213.24,463.8,211.47,464.12,210,462.79Z" fill="#332f30"></path><path d="M294.78,37.94,290,37C291.63,36.93,293.38,36.61,294.78,37.94Z" fill="#332f30"></path><path d="M209.94,37,205,38C206.44,36.61,208.22,36.94,209.94,37Z" fill="#332f30"></path><path d="M286.46,36.27l-4.95-.94C283.23,35.27,285,35,286.46,36.27Z" fill="#332f30"></path><path d="M461.57,199.63c-.31-1-.61-2.06-.92-3.1C461,197.57,461.26,198.6,461.57,199.63Z" fill="#332f30"></path><path d="M177,191.86c-.75,1.43-2,2.21-3.17.92-.87-1,.64-1.72,1.4-2.38Z" fill="#e1e0e0"></path><path d="M194.88,40.27l-3.22,1.13Z" fill="#332f30"></path><path d="M333.2,49.91,330,48.56Z" fill="#332f30"></path><path d="M458.29,187.82l-1.12-3Z" fill="#332f30"></path><path d="M40,306l1.16,3.3Z" fill="#332f30"></path><path d="M44.5,179.84l-1.23,3.21Z" fill="#332f30"></path><path d="M35.69,213.2,35,216.5Z" fill="#332f30"></path><path d="M308.13,41.26l-3.07-1Z" fill="#332f30"></path><path d="M36.76,292.36,37.7,296Z" fill="#332f30"></path><path d="M462.47,295.84l.75-3.1Z" fill="#332f30"></path><path d="M41.57,311.14l1.14,3.09Z" fill="#332f30"></path><path d="M161.64,447.53l3,1.38Z" fill="#332f30"></path><path d="M201.58,38.63l-3.17.86Z" fill="#332f30"></path><path d="M183.32,455.94l3.3,1.17Z" fill="#332f30"></path><path d="M38.3,299.34l1,3.23C38.94,301.49,38.62,300.42,38.3,299.34Z" fill="#332f30"></path><path d="M455,177.91c-.4-1-.79-2-1.18-3C454.16,175.89,454.55,176.9,455,177.91Z" fill="#332f30"></path><path d="M195,459.36l3.6,1Z" fill="#332f30"></path><path d="M49.61,166.54l-1.36,3.17C48.7,168.65,49.15,167.6,49.61,166.54Z" fill="#332f30"></path><path d="M446.64,157.87l-1.33-2.94Z" fill="#332f30"></path><path d="M448.58,337.52l1.38-3Z" fill="#332f30"></path><path d="M463.1,206.65c-.29-1.17-.57-2.33-.85-3.5Z" fill="#332f30"></path><path d="M289.09,177.8a4.29,4.29,0,0,1,4-.43A4.18,4.18,0,0,1,289.09,177.8Z" fill="#413f3f"></path><path d="M464.8,214.84c-.22-1.1-.45-2.21-.68-3.31C464.35,212.63,464.58,213.74,464.8,214.84Z" fill="#332f30"></path><path d="M44.89,321.15c.4,1,.8,2,1.21,3.06Z" fill="#332f30"></path><path d="M46.59,326a.81.81,0,0,1,.41,1.23A2,2,0,0,1,46.59,326Z" fill="#332f30"></path><path d="M408.28,101.45,407,100Z" fill="#332f30"></path><path d="M83.74,110.27l0,.55-.54.18A2.1,2.1,0,0,1,83.74,110.27Z" fill="#332f30"></path><path d="M82.69,111.6,81.54,113Z" fill="#332f30"></path><path d="M419.92,114.86l-1.14-1.45Z" fill="#332f30"></path><path d="M77.11,118.56l0,.6-.56.24A2.12,2.12,0,0,1,77.11,118.56Z" fill="#332f30"></path><path d="M76.16,119.91l-1.22,1.7Z" fill="#332f30"></path><path d="M73.26,375.83l1.2,1.68Z" fill="#332f30"></path><path d="M453.25,173a.79.79,0,0,1-.41-1.21A2.1,2.1,0,0,1,453.25,173Z" fill="#332f30"></path><path d="M45.54,176.68,45,178.16A2,2,0,0,1,45.54,176.68Z" fill="#332f30"></path><path d="M74.84,378.08l.52.19,0,.53A2.05,2.05,0,0,1,74.84,378.08Z" fill="#332f30"></path><path d="M42.08,186.71l-.42,1.47A2,2,0,0,1,42.08,186.71Z" fill="#332f30"></path><path d="M78.25,382.52l1.2,1.63Z" fill="#332f30"></path><path d="M79.84,384.72l.59.21.1.61A2.11,2.11,0,0,1,79.84,384.72Z" fill="#332f30"></path><path d="M40.89,191.51l-.78,2Z" fill="#332f30"></path><path d="M88.21,394.36c.29.4.59.8.88,1.21A1.88,1.88,0,0,1,88.21,394.36Z" fill="#332f30"></path><path d="M459.88,193.05a.81.81,0,0,1-.33-1.28A2.09,2.09,0,0,1,459.88,193.05Z" fill="#332f30"></path><path d="M317.93,44l-1.37-.41A2.11,2.11,0,0,1,317.93,44Z" fill="#332f30"></path><polygon points="113.56 418.58 114.04 418.53 114.17 419.02 113.56 418.58" fill="#332f30"></polygon><path d="M454.13,324.12c.23-.54.47-1.08.71-1.62Z" fill="#332f30"></path><path d="M188.54,42.06l-1.76.57Z" fill="#332f30"></path><path d="M313,42.5,311.41,42Z" fill="#332f30"></path><path d="M183.38,43.65l-1.55.51Z" fill="#332f30"></path><path d="M121.61,75.17l-1.76,1.26Z" fill="#332f30"></path><path d="M119.41,76.71a.76.76,0,0,1-1,.75A2.08,2.08,0,0,1,119.41,76.71Z" fill="#332f30"></path><path d="M113.07,81.76,111.51,83Z" fill="#332f30"></path><path d="M175.12,453.17l1.53.61Z" fill="#332f30"></path><path d="M180.23,455.05a.88.88,0,0,1,1.34.42A2,2,0,0,1,180.23,455.05Z" fill="#332f30"></path><path d="M111,83.36l-.24.55-.58,0A2.08,2.08,0,0,1,111,83.36Z" fill="#332f30"></path><path d="M390.06,251.39,388,252.62A1.69,1.69,0,0,1,390.06,251.39Z" fill="#8f833d"></path><path d="M400,93l-1.52-1.27Z" fill="#332f30"></path><path d="M190,457.83l2,.81Z" fill="#332f30"></path><path d="M401.65,94.43l-1.23-1.11Z" fill="#332f30"></path><path d="M458.89,309.24c.28-.67.55-1.33.83-2C459.44,307.91,459.17,308.57,458.89,309.24Z" fill="#332f30"></path><path d="M403.31,96.06,402.24,95A3.22,3.22,0,0,1,403.31,96.06Z" fill="#332f30"></path><path d="M405,97.72l-1.07-1.06A3.19,3.19,0,0,1,405,97.72Z" fill="#332f30"></path><path d="M457.77,314c.14-.49.27-1,.4-1.47A2.09,2.09,0,0,1,457.77,314Z" fill="#332f30"></path><path d="M456.08,319l.45-1.41A2,2,0,0,1,456.08,319Z" fill="#332f30"></path><path d="M261.61,267.81c.56-1.65,1.33-1.47,2.22-.26Z" fill="#332f30"></path><path d="M221.46,269.42c.59-1.51,1.38-1.51,2.33-.3Z" fill="#413f3f"></path><path d="M406.66,99.52l-1.08-1.2A3,3,0,0,1,406.66,99.52Z" fill="#332f30"></path><path d="M114.84,419.49l1.56,1.15Z" fill="#332f30"></path><path d="M361.45,177.82c0-.93,0-1.87.05-2.81,18.25-2.77,36.73-1.83,55.05-3.52.75,4.35-2.8,3.4-4.84,3.53C395,176.06,378.21,176.91,361.45,177.82Z" fill="#555152"></path><path d="M355.89,175.63l-9.59.71C349.33,173.9,352.59,174.57,355.89,175.63Z" fill="#555152"></path><path d="M421.68,173c-1.68.69-2.23.09-1.84-1.6A1.68,1.68,0,0,1,421.68,173Z" fill="#332f30"></path><path d="M212.56,194.58a3.88,3.88,0,0,1-4.06,3.23c-2.19.08-3.79-1.12-3.8-3.35,0-2.57,1.57-4.07,4.21-3.71A4,4,0,0,1,212.56,194.58Z" fill="#312a29"></path><path d="M322.32,245.43c1.08,3.09-2.61,3.76-2.08,6.12.44,1.93.77,3.88-1.88,4.4-1.54.31-2.6-.77-3.3-1.91-1.15-1.86-.63-3.64.86-5.12C317.59,247.26,319.06,245.18,322.32,245.43Z" fill="#312a29"></path><path d="M174.87,254.54c.51-4.46-.05-10.54,3.59-10.64,5-.13,4.12,6.07,4.44,9.83s.44,9.79-3.19,9.91C174.55,263.82,176.09,257.48,174.87,254.54Z" fill="#413f3f"></path><path d="M180,211.06c-.49,3,.28,7.57-3.16,7.5-3.93-.09-3.42-4.77-3.39-7.87,0-2.82-.48-7.35,3.06-7.3C180.79,203.45,179.38,208.23,180,211.06Z" fill="#332f30"></path></svg> 