<?xml version="1.0" encoding="UTF-8"?> <svg xmlns="http://www.w3.org/2000/svg" xmlns:xlink="http://www.w3.org/1999/xlink" id="svg3039" viewBox="0 0 500 500"><defs><radialGradient id="radial-gradient" cx="-142.74" cy="352.92" r="42.71" gradientTransform="matrix(0.1, -4.59, -4.58, -0.11, 1880.75, -366.38)" gradientUnits="userSpaceOnUse"><stop offset="0" stop-color="#fff"></stop><stop offset="1" stop-opacity="0"></stop></radialGradient><linearGradient id="linear-gradient" x1="307.26" y1="322.68" x2="405.63" y2="333.34" gradientTransform="matrix(1, 0, 0, -1, 3.39, 509.42)" gradientUnits="userSpaceOnUse"><stop offset="0" stop-color="#b2cde9"></stop><stop offset="1" stop-color="#c4dbee"></stop></linearGradient><radialGradient id="radial-gradient-2" cx="-34.32" cy="626.89" r="160.28" gradientTransform="matrix(-0.01, 0.56, 1.03, 0.01, -402.51, 96.65)" gradientUnits="userSpaceOnUse"><stop offset="0" stop-color="#658db6"></stop><stop offset="0.77" stop-color="#527fab"></stop><stop offset="1" stop-color="#4071a0"></stop></radialGradient><radialGradient id="radial-gradient-3" cx="-11.83" cy="360.95" r="101.37" gradientTransform="matrix(0.81, 1.7, 2.15, -1.03, -513.52, 633.39)" gradientUnits="userSpaceOnUse"><stop offset="0" stop-color="#d0e2f1"></stop><stop offset="0.86" stop-color="#cadef0"></stop><stop offset="1" stop-color="#95bee3"></stop></radialGradient><radialGradient id="radial-gradient-4" cx="-461.58" cy="346.02" r="99.57" gradientTransform="matrix(-1.29, -0.09, -0.11, 1.71, -365.35, -387.96)" gradientUnits="userSpaceOnUse"><stop offset="0" stop-color="#96d0e1"></stop><stop offset="0.68" stop-color="#89b7e1"></stop><stop offset="1" stop-color="#699dd3"></stop></radialGradient><linearGradient id="linear-gradient-2" x1="-242.88" y1="169.21" x2="-242.46" y2="333.19" gradientTransform="matrix(0.77, 0, 0, -0.78, 436.13, 443.15)" gradientUnits="userSpaceOnUse"><stop offset="0" stop-color="#3b79bc"></stop><stop offset="1" stop-color="#94b8e0"></stop></linearGradient><linearGradient id="linear-gradient-3" x1="-243.2" y1="353.39" x2="-242.15" y2="145.14" gradientTransform="matrix(0.77, 0, 0, -0.78, 436.13, 443.15)" gradientUnits="userSpaceOnUse"><stop offset="0" stop-color="#d7def0"></stop><stop offset="0.5" stop-color="#fff"></stop><stop offset="1" stop-color="#d5def0"></stop></linearGradient></defs><title>Chromium</title><path id="path2814" d="M453.65,260.41c0,113.21-89.54,205-200,205s-200-91.79-200-205,89.55-205,200-205S453.65,147.19,453.65,260.41Z" fill="url(#radial-gradient)"></path><path id="path3655" d="M422.14,176.12c0,26.27-33.18,58.55-76.84,58.55s-100.44-26.95-100.44-53.23,35.4-47.56,79.07-47.56c33.36,0,77.7,30.66,94.63,34.11C419.89,170.86,420.85,172.89,422.14,176.12Z" fill="url(#linear-gradient)"></path><path id="path3655-4-8" d="M98.06,139c20.75-16.11,59.19-2.09,86,32.4s29.66,85.6,8.91,101.7-57.28-8.86-84.06-43.36c-20.46-26.35-6.79-69-14.44-84.53C95.46,143.33,96.74,141.09,98.06,139Z" fill="#2e5c91"></path><path id="path3596" d="M418.57,168c-11.75-.06-102.36.48-180.46.11C209,176.65,185,190.31,172.43,217c-8.94-7.61-68.29-70.75-74.43-77.84C150.61,69.3,222.92,62.75,237,62.75S355.39,48.28,418.57,168Z" fill="url(#radial-gradient-2)"></path><path id="path3655-4" d="M229.3,437.34c-21-15.85-24.43-61.91,1.92-96.73S300,282,321,297.88,333.44,363.2,307.09,398c-20.14,26.6-59.49,28.3-72.46,39.71A43,43,0,0,1,229.3,437.34Z" fill="#699dd3"></path><path id="path3596-1" d="M234.63,437.73C240.64,427.64,283,349.07,323,282c7.39-29.43,9-56.38-7.64-80.7,11.09-3.85,97.61-23.43,106.83-25.12,33.46,80.75,2.43,146.39-4.7,158.5S369.83,444,234.63,437.73Z" fill="url(#radial-gradient-3)"></path><path id="path3596-1-7" d="M94.49,145.15c5.82,10.21,51.5,88.47,90.14,156.34,22,21,46.41,32.66,75.75,30.22-2.13,11.55-27.87,96.8-30.95,105.65C142.68,426.6,100.92,367.21,93.91,355s-71.62-95.39.58-209.87Z" fill="url(#radial-gradient-4)"></path><path id="path3645" d="M325.15,249.67a76.59,76.59,0,1,1-76.59-76.91A76.75,76.75,0,0,1,325.15,249.67Z" stroke-width="10.07" fill="url(#linear-gradient-2)" stroke="url(#linear-gradient-3)"></path><path id="rect3782" d="M307.11,210.94C338.17,239.6,334,260.49,324,284.69,318.77,247.4,320.05,230.34,307.11,210.94Z" fill="#fff"></path><path id="rect3782-4" d="M203,319.46c-38-24.26-50-76.63-14.77-105.58C170,247,177.77,268.19,203,319.46Z" fill="#fff"></path></svg> 