<?xml version="1.0" encoding="UTF-8"?> <svg xmlns="http://www.w3.org/2000/svg" id="Layer_1" data-name="Layer 1" viewBox="0 0 500 500"><title>drei</title><path d="M53.14,318.79l54.59-54.28H50.47l-.47-.84,57.65-57.6c-8.85,0-16.81-.16-24.75.09-3,.09-3.64-.83-3.54-3.64.22-6.23.14-12.47,0-18.71,0-1.91.39-2.66,2.51-2.66,28.28.07,56.57,0,85.86,0l-58.14,58.07h57.12c.34,1.43-.7,1.75-1.25,2.3q-37.53,37.53-75.06,75a6.6,6.6,0,0,1-5.14,2.24C74.91,318.73,64.52,318.79,53.14,318.79Z" fill="#ec1e59"></path><path d="M237.38,299.29c-4.36,6.61-9.68,10.41-16.62,11.84-20.22,4.15-36.44-5-42.69-24.74-5.14-16.23-4.41-32.17,5.42-46.71,10.54-15.58,33.89-18.92,48.09-7.12a53.22,53.22,0,0,1,4.32,4.5c.71-1,.42-2,.42-2.87,0-11.6.09-23.2,0-34.8,0-2.45.62-3.21,3.12-3.12,5.47.19,11,.19,16.44,0,2.54-.09,3.3.57,3.28,3.21-.12,19.48-.07,39-.07,58.44,0,16.31,0,32.62.06,48.92,0,2.33-.37,3.24-3,3.13-5.47-.23-11-.15-16.44,0-1.88,0-2.47-.52-2.36-2.38C237.5,305.16,237.38,302.75,237.38,299.29Zm-39.51-31a32.8,32.8,0,0,0,3.37,16.47c3.61,7,9.38,10.85,17.45,10.42s13.49-4.54,16.12-12.16a43.4,43.4,0,0,0,.61-26.67c-2.49-8.69-8.53-13.45-16.92-13.71-9.15-.28-15.39,3.88-18.59,12.51A33.93,33.93,0,0,0,197.87,268.31Z" fill="#080808"></path><path d="M373.3,312c-19-.06-32.79-8.25-38.69-24.6-6.27-17.37-4.95-34.23,7.81-48.75,7.09-8.06,16.35-12.16,27.08-12.92,10.39-.73,20,1.25,28.31,7.94,9.38,7.58,13.74,17.83,15.19,29.46.45,3.65,2,8.34-.33,10.75-1.66,1.72-6.44.49-9.83.49-15.45,0-30.91.07-46.36-.05-2.52,0-2.8.8-2.5,3,1.15,8.26,4.33,14.89,13.2,17.13,9.36,2.36,19.85-.2,24.29-8.75a2.32,2.32,0,0,1,2.46-1.18c5.26,0,10.52.09,15.78,0,2,0,2.05.46,1.45,2.2C405.39,303.41,392.57,312,373.3,312Zm17.31-52c-.26-1.31-.37-2.18-.62-3-1.5-5-3.33-9.92-8.31-12.39-9-4.46-25.2-2.4-27.66,13.45-.21,1.37-.09,2,1.52,2C367.15,259.93,378.75,260,390.61,260Z" fill="#080808"></path><path d="M297.61,241.84c5.14-8.26,11.85-13.71,21.16-15.79.11,0,.2-.1.31-.11,3.15-.31,6.75-1.36,9.29.45,2.09,1.48.66,4.87.78,7.41.16,3.49-.17,7,.1,10.49.22,2.72-.73,2.91-3.12,2.64-5-.56-10.05-.76-14.85,1.32-7.76,3.37-11.18,9.81-12,17.74-1.36,13-.32,26-.61,39a32.62,32.62,0,0,0,0,3.28c.11,1.29-.4,1.67-1.67,1.66q-9.71-.07-19.39,0c-1.2,0-1.56-.44-1.46-1.54.05-.54,0-1.09,0-1.64,0-25.25.05-50.51-.07-75.76,0-2.8.76-3.45,3.44-3.32,5,.23,10.08.23,15.11,0,2.6-.12,3.15.79,3,3.15C297.48,234.47,297.61,238.16,297.61,241.84Z" fill="#080808"></path><path d="M427.44,268.54c0-12.59.06-25.17-.05-37.75,0-2.3.29-3.26,3-3.14,5.8.24,11.62.13,17.43,0,1.71,0,2.22.44,2.21,2.19q-.08,38.89,0,77.8c0,2-.68,2.3-2.44,2.27-5.7-.11-11.4-.17-17.1,0-2.41.08-3.11-.49-3.08-3C427.52,294.15,427.44,281.34,427.44,268.54Z" fill="#080808"></path><path d="M438.87,196.33c3.07,0,6.13,0,9.19,0,1.39,0,1.94.38,1.92,1.84-.07,5-.06,10,0,15.06,0,1.29-.21,2-1.76,2-6.34-.07-12.69-.06-19,0-1.24,0-1.76-.37-1.75-1.66,0-5.13.05-10.26,0-15.39,0-1.46.56-1.86,1.94-1.83C432.53,196.38,435.7,196.33,438.87,196.33Z" fill="#080808"></path></svg> 