<?xml version="1.0" encoding="UTF-8"?> <svg xmlns="http://www.w3.org/2000/svg" xmlns:xlink="http://www.w3.org/1999/xlink" id="Layer_1" data-name="Layer 1" viewBox="0 0 500 500"><defs><linearGradient id="linear-gradient" x1="213.35" y1="259.07" x2="123.73" y2="160.55" gradientUnits="userSpaceOnUse"><stop offset="0"></stop><stop offset="0.14" stop-color="#1e2a32"></stop><stop offset="0.32" stop-color="#415a6c"></stop><stop offset="0.4" stop-color="#647988"></stop><stop offset="0.52" stop-color="#8ea0ab"></stop><stop offset="0.58" stop-color="#9fafb8"></stop><stop offset="0.6" stop-color="#aab8c0"></stop><stop offset="0.68" stop-color="#c7cfd4"></stop><stop offset="0.72" stop-color="#d2d8db"></stop><stop offset="0.74" stop-color="#c9d1d5"></stop><stop offset="0.77" stop-color="#b2bdc4"></stop><stop offset="0.8" stop-color="#8c9da8"></stop><stop offset="0.81" stop-color="#889aa5"></stop><stop offset="0.9" stop-color="#415a6c"></stop><stop offset="1"></stop></linearGradient><radialGradient id="New_Gradient_Swatch_5" cx="143.02" cy="212.58" r="79.63" gradientUnits="userSpaceOnUse"><stop offset="0" stop-color="#fff"></stop><stop offset="0.12" stop-color="#dadfe3"></stop><stop offset="0.33" stop-color="#a0aeb8"></stop><stop offset="0.4" stop-color="#92a2ad"></stop><stop offset="0.54" stop-color="#6e8290"></stop><stop offset="0.68" stop-color="#415a6c"></stop><stop offset="0.79" stop-color="#22354d"></stop><stop offset="0.9" stop-color="#000b2b"></stop><stop offset="0.98" stop-color="#000208"></stop><stop offset="1"></stop></radialGradient><radialGradient id="radial-gradient" cx="62.13" cy="-3774.03" fx="106.2646420379258" r="63.8" gradientTransform="matrix(2.78, -0.02, 0, 0.44, 76.54, 2039.04)" gradientUnits="userSpaceOnUse"><stop offset="0" stop-color="#282c36"></stop><stop offset="0.14" stop-color="#6d7482"></stop><stop offset="0.2" stop-color="#838995"></stop><stop offset="0.31" stop-color="#a9adb5"></stop><stop offset="0.43" stop-color="#c8cbd0"></stop><stop offset="0.55" stop-color="#e0e2e5"></stop><stop offset="0.69" stop-color="#f2f2f3"></stop><stop offset="0.83" stop-color="#fcfcfc"></stop><stop offset="1" stop-color="#fff"></stop></radialGradient><linearGradient id="linear-gradient-2" x1="320.71" y1="297.27" x2="293.84" y2="271.14" xlink:href="#linear-gradient"></linearGradient><linearGradient id="linear-gradient-3" x1="321.64" y1="340.91" x2="359.51" y2="307.99" gradientUnits="userSpaceOnUse"><stop offset="0"></stop><stop offset="0.29" stop-color="#1e2a32"></stop><stop offset="0.65" stop-color="#415a6c"></stop><stop offset="0.66" stop-color="#496172"></stop><stop offset="0.67" stop-color="#607685"></stop><stop offset="0.68" stop-color="#728693"></stop><stop offset="0.69" stop-color="#7f919d"></stop><stop offset="0.71" stop-color="#8698a3"></stop><stop offset="0.76" stop-color="#889aa5"></stop><stop offset="0.87" stop-color="#415a6c"></stop><stop offset="1"></stop></linearGradient><linearGradient id="linear-gradient-4" x1="355.06" y1="379.35" x2="392.93" y2="346.43" gradientUnits="userSpaceOnUse"><stop offset="0"></stop><stop offset="0.03" stop-color="#08090a"></stop><stop offset="0.46" stop-color="#798d9c"></stop><stop offset="0.65" stop-color="#a6c2d6"></stop><stop offset="0.66" stop-color="#c0d4e2"></stop><stop offset="0.67" stop-color="#d7e3ec"></stop><stop offset="0.68" stop-color="#e9f0f5"></stop><stop offset="0.7" stop-color="#f6f9fb"></stop><stop offset="0.72" stop-color="#fdfefe"></stop><stop offset="0.76" stop-color="#fff"></stop><stop offset="0.87" stop-color="#a6c2d6"></stop><stop offset="1"></stop></linearGradient><linearGradient id="linear-gradient-5" x1="276.11" y1="276.31" x2="302.29" y2="253.56" gradientUnits="userSpaceOnUse"><stop offset="0" stop-color="#1c2226"></stop><stop offset="0.19" stop-color="#626c73"></stop><stop offset="0.22" stop-color="#6c757c"></stop><stop offset="0.39" stop-color="#b1b5b8"></stop><stop offset="0.51" stop-color="#dcdede"></stop><stop offset="0.58" stop-color="#ededed"></stop><stop offset="0.62" stop-color="#f4f4f4"></stop><stop offset="0.72" stop-color="#fff"></stop><stop offset="0.76" stop-color="#f6f8fa"></stop><stop offset="0.81" stop-color="#e5ebef"></stop><stop offset="0.93" stop-color="#879aa8"></stop><stop offset="1" stop-color="#5c6e7d"></stop></linearGradient><radialGradient id="New_Gradient_Swatch_5-2" cx="318.99" cy="184.63" r="162.25" xlink:href="#New_Gradient_Swatch_5"></radialGradient><radialGradient id="radial-gradient-2" cx="557.37" cy="86.28" r="294.93" gradientTransform="translate(-314.82 210.62) scale(0.95 0.95)" gradientUnits="userSpaceOnUse"><stop offset="0" stop-color="#7da0e5"></stop><stop offset="0" stop-color="#8cabe8"></stop><stop offset="0" stop-color="#b3c8f0"></stop><stop offset="0" stop-color="#f1f7fe"></stop><stop offset="0" stop-color="#f7fbff"></stop><stop offset="0.11" stop-color="#f0f9ff"></stop><stop offset="0.14" stop-color="#e6f0f6"></stop><stop offset="0.2" stop-color="#ccd7de"></stop><stop offset="0.27" stop-color="#a1aeb8"></stop><stop offset="0.36" stop-color="#667682"></stop><stop offset="0.46" stop-color="#1b2f3e"></stop><stop offset="0.46" stop-color="#1a2e3d"></stop><stop offset="0.46" stop-color="#1d303f"></stop><stop offset="0.46" stop-color="#253846"></stop><stop offset="0.46" stop-color="#334552"></stop><stop offset="0.46" stop-color="#485864"></stop><stop offset="0.46" stop-color="#62707a"></stop><stop offset="0.47" stop-color="#828d95"></stop><stop offset="0.47" stop-color="#a9b0b6"></stop><stop offset="0.47" stop-color="#d4d8db"></stop><stop offset="0.47" stop-color="#fff"></stop><stop offset="0.52" stop-color="#f5f6f7"></stop><stop offset="0.6" stop-color="#dbdee0"></stop><stop offset="0.71" stop-color="#b0b7bb"></stop><stop offset="0.83" stop-color="#758088"></stop><stop offset="0.98" stop-color="#2a3c48"></stop><stop offset="1" stop-color="#1d303d"></stop></radialGradient><radialGradient id="New_Gradient_Swatch_6" cx="182.44" cy="230.69" r="333.15" gradientUnits="userSpaceOnUse"><stop offset="0" stop-color="#fff"></stop><stop offset="0.26" stop-color="#cfecf7"></stop><stop offset="0.56" stop-color="#77d1f2"></stop><stop offset="0.76" stop-color="#24c2f0"></stop><stop offset="1" stop-color="#0faee7"></stop></radialGradient><radialGradient id="New_Gradient_Swatch_6-2" cx="182.44" cy="230.69" fx="190.81675966906235" fy="199.75417984378694" r="333.16" xlink:href="#New_Gradient_Swatch_6"></radialGradient><radialGradient id="radial-gradient-3" cx="244.3" cy="176.16" r="115.43" gradientUnits="userSpaceOnUse"><stop offset="0.14" stop-color="#cbebf7"></stop><stop offset="0.64" stop-color="#6cbcd4"></stop><stop offset="1" stop-color="#32728a"></stop></radialGradient><radialGradient id="radial-gradient-4" cx="255.13" cy="138.17" fy="154.41438793315425" r="95.18" xlink:href="#radial-gradient-3"></radialGradient><linearGradient id="linear-gradient-6" x1="276.71" y1="193.81" x2="202.11" y2="111.82" xlink:href="#linear-gradient"></linearGradient><radialGradient id="radial-gradient-5" cx="229.11" cy="138.86" r="85.44" gradientUnits="userSpaceOnUse"><stop offset="0" stop-color="#fff"></stop><stop offset="0.36" stop-color="#cfecf7"></stop><stop offset="0.7" stop-color="#24c2f0"></stop><stop offset="1" stop-color="#0c8ab8"></stop></radialGradient><radialGradient id="radial-gradient-6" cx="202.66" cy="135.72" fy="122.49857140297154" r="51.25" xlink:href="#radial-gradient-5"></radialGradient></defs><title>featured</title><path d="M264.6,276.86l-16.11,5.22a76.81,76.81,0,0,1-22.31,3.65,89.91,89.91,0,0,1-24.47-3,104.33,104.33,0,0,1-25.14-10.36,117.88,117.88,0,0,1-23.91-18.18,121.54,121.54,0,0,1-22-29.33,111.63,111.63,0,0,1-11.5-32.7,94.49,94.49,0,0,1-.44-32.05,76.73,76.73,0,0,1,10.11-27.78l9.67-15.81s3.83.14,2.63,2.72a81.89,81.89,0,0,0-6.5,21.7,100.77,100.77,0,0,0,.65,34,121.55,121.55,0,0,0,12.34,35A132.34,132.34,0,0,0,171,241.5a126,126,0,0,0,25.25,19.61,109.65,109.65,0,0,0,26.38,11.26,92.8,92.8,0,0,0,25.51,3.4,81.63,81.63,0,0,0,10.57-.8C263,274.36,264.6,276.86,264.6,276.86Z" fill="url(#linear-gradient)"></path><path d="M157.36,97.34A71.13,71.13,0,0,1,190.2,85.6,89.55,89.55,0,0,1,224.35,89a112.58,112.58,0,0,1,31.8,15.19,128.82,128.82,0,0,1,27.05,24.94,130.59,130.59,0,0,1,16.74,26.31,120.62,120.62,0,0,1,9.35,27.61,104,104,0,0,1,2,27.7,84.73,84.73,0,0,1-5.9,26.4q-.86,2.11-1.84,4.17c-.65,1.37-1.35,2.73-2.1,4.06s-1.53,2.67-2.37,4-1.72,2.59-2.65,3.85-1.9,2.49-2.9,3.67-2,2.33-3.11,3.43-2.18,2.18-3.32,3.2-2.32,2-3.52,3a68.59,68.59,0,0,1-24.93,12.27,81.49,81.49,0,0,1-30.3,1.91,101.94,101.94,0,0,1-33.13-10.08A123.3,123.3,0,0,1,163,247.21a130.59,130.59,0,0,1-27.35-39.79,113.86,113.86,0,0,1-9.9-43.44,86.35,86.35,0,0,1,7.92-38.88A68.88,68.88,0,0,1,157.36,97.34Z" fill="url(#New_Gradient_Swatch_5)"></path><path d="M75,389.68c0-15.21,78.35-28,175-28.56s175,11.31,175,26.52-78.35,28-175,28.57S75,404.9,75,389.68Z" fill="url(#radial-gradient)"></path><path d="M310.2,259.42c-2.09,2.18-4.57,4.63-7.26,7.2s-5.62,5.27-8.54,7.89-5.81,5.13-8.51,7.4-5.15,4.24-7.24,5.81a35.29,35.29,0,0,1-4.43,3c-.41.21-1.75-.69-1.93-.7s-.27-.14-.18-.41a11.77,11.77,0,0,1,2-2.8c1.13-1.34,2.74-3.07,4.81-5.18s4.35-4.33,6.78-6.63,5-4.64,7.53-6.94,5.11-4.53,7.55-6.6,4.79-4,6.87-5.62,3.75-2.82,4.92-3.55,1.89-1,2.08-.85a.28.28,0,0,1,0,.23c-.06.33.62,1.93,0,2.79C313.74,255.61,312.27,257.27,310.2,259.42Z" fill="url(#linear-gradient-2)"></path><path d="M401.82,353.8a5.48,5.48,0,0,0-1.1-2L314.65,251.44c.09.1.05.32-.13.65a8.72,8.72,0,0,1-.93,1.37c-.45.58-1,1.28-1.78,2.11s-1.62,1.77-2.64,2.84c-2.09,2.18-4.58,4.63-7.27,7.2s-5.62,5.27-8.53,7.88-5.82,5.14-8.52,7.41-5.15,4.24-7.23,5.81c-.86.64-1.61,1.19-2.27,1.64s-1.2.81-1.66,1.07a6,6,0,0,1-1.07.53c-.26.08-.43.09-.5,0l90.52,96.36h0a7.11,7.11,0,0,0,3.62,1.75,11.09,11.09,0,0,0,2.5.14,18.21,18.21,0,0,0,3-.44,31.07,31.07,0,0,0,8.08-3.28,51.66,51.66,0,0,0,8.28-5.82,55.52,55.52,0,0,0,7.23-7.41,38.92,38.92,0,0,0,5.06-8,22.49,22.49,0,0,0,1.33-3.69,13.11,13.11,0,0,0,.46-3.17A8.07,8.07,0,0,0,401.82,353.8Z" fill="url(#linear-gradient-3)"></path><path d="M358.59,379.24a18,18,0,0,0,3.21-.47,33.47,33.47,0,0,0,8.72-3.54,55,55,0,0,0,8.93-6.27,60,60,0,0,0,7.8-8,42,42,0,0,0,5.45-8.63,23.73,23.73,0,0,0,1.44-4,14.15,14.15,0,0,0,.49-3.41,1.62,1.62,0,0,0,0-.22l-5.2-6.06a2.64,2.64,0,0,1,0,.28,14.3,14.3,0,0,1-.49,3.42,24.56,24.56,0,0,1-1.44,4,41.75,41.75,0,0,1-5.46,8.63,59.35,59.35,0,0,1-7.79,8,56.61,56.61,0,0,1-8.93,6.28,33.91,33.91,0,0,1-8.72,3.53,18.17,18.17,0,0,1-3.21.47,11.14,11.14,0,0,1-2.7-.14l-.61-.14,5.75,6.13h.05A12.28,12.28,0,0,0,358.59,379.24Z" fill="url(#linear-gradient-4)"></path><path d="M291.87,272.37c2.92-2.61,5.82-5.3,8.53-7.88s5.18-5,7.27-7.2l.37-.39-8.92-10.4q.09.1-.09.45a7.12,7.12,0,0,1-.65.94c-.31.4-.72.89-1.22,1.46s-1.12,1.22-1.83,2c-1.45,1.51-3.16,3.2-5,5s-3.88,3.64-5.89,5.45-4,3.55-5.89,5.12-3.56,2.93-5,4c-.59.45-1.11.83-1.57,1.14s-.83.56-1.14.74a4.72,4.72,0,0,1-.74.36c-.18.06-.3.06-.35,0l9.47,10.09q2-1.57,4.17-3.42C286.06,277.51,289,275,291.87,272.37Z" fill="url(#linear-gradient-5)"></path><path d="M263.35,255.48l-15.78,6.29a59.76,59.76,0,0,1-18.71,4.08,70.51,70.51,0,0,1-20.69-2,82.59,82.59,0,0,1-21.25-8.53,93.76,93.76,0,0,1-20.06-15.42A97.12,97.12,0,0,1,149,215.32a88.56,88.56,0,0,1-8.71-27.21,73.81,73.81,0,0,1,.78-26.34A59.56,59.56,0,0,1,151,139.44l.51-.69q1.54-2.15,3.1-4.27l7.13-9.83A61.32,61.32,0,0,0,151.5,148a78.57,78.57,0,0,0-.65,27.9,96.16,96.16,0,0,0,9.34,29,106.05,106.05,0,0,0,18.91,26.42A101.7,101.7,0,0,0,200.23,248a87,87,0,0,0,22.26,9.28A72.32,72.32,0,0,0,244,259.6,60.26,60.26,0,0,0,263.35,255.48Z" fill="none"></path><path d="M158.78,95.92a71.07,71.07,0,0,1,32.84-11.73,89.78,89.78,0,0,1,34.15,3.39,112.56,112.56,0,0,1,31.79,15.2,128.25,128.25,0,0,1,27.05,24.93A130.7,130.7,0,0,1,301.35,154a120.3,120.3,0,0,1,9.35,27.61,104.08,104.08,0,0,1,2,27.71,84.85,84.85,0,0,1-5.9,26.4c-.57,1.4-1.18,2.79-1.83,4.16s-1.36,2.73-2.1,4.07-1.54,2.66-2.37,4-1.73,2.59-2.65,3.85-1.91,2.49-2.91,3.67-2,2.33-3.11,3.43-2.18,2.17-3.32,3.2-2.31,2-3.51,2.95a68.71,68.71,0,0,1-24.94,12.27,81.28,81.28,0,0,1-30.3,1.91,101.62,101.62,0,0,1-33.12-10.07,123.37,123.37,0,0,1-32.22-23.34A130.66,130.66,0,0,1,137.08,206a113.8,113.8,0,0,1-9.89-43.44,86.37,86.37,0,0,1,7.91-38.88A68.82,68.82,0,0,1,158.78,95.92Z" fill="url(#New_Gradient_Swatch_5-2)"></path><path d="M162.68,99.07A68,68,0,0,1,194,87.87a85.68,85.68,0,0,1,32.61,3.24A107.57,107.57,0,0,1,257,105.61a122.62,122.62,0,0,1,25.83,23.8,124.62,124.62,0,0,1,16,25.1,115,115,0,0,1,8.93,26.35,99.55,99.55,0,0,1,1.93,26.44A81,81,0,0,1,304,232.5c-.55,1.34-1.13,2.66-1.76,4s-1.29,2.6-2,3.88-1.47,2.54-2.26,3.78-1.65,2.47-2.54,3.67-1.81,2.37-2.77,3.5-1.95,2.23-3,3.28-2.08,2.07-3.17,3-2.21,1.92-3.35,2.82a65.52,65.52,0,0,1-23.82,11.71A77.55,77.55,0,0,1,230.48,274a97,97,0,0,1-31.63-9.61,118,118,0,0,1-30.77-22.27,124.89,124.89,0,0,1-26.12-38,108.68,108.68,0,0,1-9.44-41.46,82.38,82.38,0,0,1,7.55-37.1A65.76,65.76,0,0,1,162.68,99.07Z" fill="url(#radial-gradient-2)"></path><path d="M254.44,131.48c-12.89,5.38-64.09,31.72-63.79,110.09a94.81,94.81,0,0,0,17.93,10.78,78.48,78.48,0,0,0,30.25,7.3,62.85,62.85,0,0,0,19.86-2.56c6.08-3.37,22.47-14.62,27.91-40.3,6.72-31.75-8.23-62.32-25.5-79.43A80.84,80.84,0,0,0,254.44,131.48Z" fill="url(#New_Gradient_Swatch_6)"></path><path d="M256.35,133c-18.09-15.2-48-27.06-79.29-16.32A49.18,49.18,0,0,0,158.27,130a58.47,58.47,0,0,0-2.66,5.24,70.51,70.51,0,0,0-5.66,30.8,92.56,92.56,0,0,0,7.93,34,105.47,105.47,0,0,0,21.22,31.32,103.47,103.47,0,0,0,13.67,11.76C191,194.25,216.27,150.24,256.35,133Z" fill="url(#New_Gradient_Swatch_6-2)"></path><path d="M297.44,191.16a94.71,94.71,0,0,0-7.27-27,106,106,0,0,0-15.84-25.64q-1.17-1.38-2.37-2.73l-.7-.77c-.55-.6-1.1-1.2-1.66-1.78l-.12-.13q-.37-.41-.75-.78c-.44-.46-.9-.9-1.35-1.35l-.7-.7-.48-.47h0c-.85-.81-1.71-1.61-2.58-2.39l-.47-.42a162,162,0,0,0-16.46,7.79l.53.42.79.63c.67.55,1.32,1.1,2,1.66l.55.47c.83.73,1.66,1.47,2.48,2.23l.4.39c.67.64,1.33,1.28,2,1.94l.71.72c.57.59,1.14,1.19,1.7,1.8l.67.72q1.14,1.24,2.25,2.55a96.2,96.2,0,0,1,15,24.09A86.58,86.58,0,0,1,282.49,198a72.14,72.14,0,0,1-1.7,25.05,58.72,58.72,0,0,1-11.07,22.41c-.73.9-1.47,1.77-2.24,2.61l-.18.18c-.69.76-1.41,1.49-2.14,2.2-.21.21-.43.4-.64.6q-.86.8-1.74,1.56l-.78.66c-.6.5-1.21,1-1.84,1.45l-.65.5c-.84.61-1.7,1.21-2.58,1.77-.17.12-.35.22-.52.33-.42.26-.86.51-1.29.76a56.73,56.73,0,0,0,9.22-3c.61-.26,1.21-.51,1.81-.79.78-.36,1.55-.73,2.31-1.12l.42-.24c.54-.29,1.08-.6,1.61-.91s1.12-.66,1.67-1,.94-.59,1.4-.9.92-.64,1.37-1l1.25-.92.09-.07.76-.59c.53-.42,1.05-.86,1.57-1.31l.35-.3c.49-.43,1-.87,1.43-1.31s.66-.61,1-.93h0l.22-.21c.77-.77,1.52-1.57,2.25-2.39l0,0c.74-.83,1.45-1.69,2.15-2.58a58.06,58.06,0,0,0,5.38-8.25c.32-.6.64-1.21.94-1.82A63.83,63.83,0,0,0,296,217.53a72.8,72.8,0,0,0,2-16.26A82,82,0,0,0,297.44,191.16Z" fill="url(#radial-gradient-3)"></path><path d="M263.62,127.45l-.6-.53c-.67-.59-1.35-1.17-2-1.74l-.86-.72-.48-.38c-.49-.4-1-.79-1.46-1.17l-.8-.62h0c-.9-.69-1.81-1.36-2.72-2l-.1-.06c-.48-.34-1-.67-1.46-1s-1-.7-1.5-1l-.57-.36-.62-.39-1.47-.93L248,116c-.78-.47-1.58-.93-2.37-1.37l-.58-.33-1.56-.82c-.47-.25-.93-.5-1.41-.74-.22-.12-.45-.22-.68-.34-.78-.38-1.56-.76-2.35-1.12l-.93-.42-1.79-.76c-.65-.28-1.3-.54-2-.8s-1-.41-1.58-.6-1.35-.49-2-.72c-.51-.17-1-.35-1.54-.51-.69-.23-1.4-.44-2.1-.64s-1.3-.39-1.95-.56l-.32-.08-1.36-.33h-.05l-1.44-.35c-.81-.18-1.62-.33-2.44-.48l-.8-.16-.44-.08c-1.15-.2-2.31-.37-3.47-.52l-.16,0-.44,0c-1.08-.13-2.16-.24-3.25-.31l-1.34-.07c-.77,0-1.54-.08-2.31-.09h0c-.95,0-1.9,0-2.85,0H204c-.86,0-1.71.08-2.57.14-.16,0-.32,0-.48,0s-.26,0-.39,0c-1.06.09-2.12.2-3.17.34h-.05c-1.11.15-2.22.33-3.32.54l-.15,0c-1.06.21-2.12.45-3.17.71l-.36.09c-1,.26-2,.55-3,.86l-.47.15-.48.17c-.81.27-1.62.55-2.41.86l-.46.18c-1,.38-1.92.79-2.87,1.23l-.35.16c-1,.46-2,1-2.93,1.48l-.07,0h0c-1,.55-2,1.14-3,1.77h0s0,0,0,0q-1.51,1-3,2c-.41.3-.79.62-1.18.92-.64.55-1.27,1.11-1.87,1.68l-.45.44c-.76.74-1.51,1.5-2.22,2.28l-.31.35c-.57.64-1.12,1.3-1.66,2-.33.4-.65.8-1,1.21a56.94,56.94,0,0,0-5.76,9.16c.77-.74,1.55-1.48,2.36-2.19l.42-.35c.91-.77,1.84-1.52,2.8-2.24s1.87-1.34,2.82-2l0,0c.94-.61,1.9-1.19,2.87-1.74l.07,0c.91-.52,1.84-1,2.77-1.45l.36-.18c.89-.43,1.79-.83,2.7-1.21l.48-.2c.89-.36,1.8-.7,2.71-1l.5-.17c.93-.31,1.85-.6,2.79-.87l.44-.12c.64-.17,1.28-.32,1.92-.47s1.3-.3,2-.43c.5-.1,1-.2,1.52-.28s1.32-.22,2-.32l1.45-.19c.68-.08,1.37-.14,2.05-.19.48,0,1-.09,1.44-.12.71,0,1.43-.06,2.15-.08l1.36,0c.75,0,1.51,0,2.27,0l1.22,0c1,0,2.1.12,3.15.22l.35,0c1.16.12,2.32.26,3.49.43l1.21.21c.77.12,1.53.25,2.29.4.49.09,1,.21,1.46.31.68.15,1.35.29,2,.46l1.43.37c.66.18,1.33.36,2,.56.5.14,1,.3,1.49.45l1.91.63,1.52.54,1.87.71,1.72.7.88.37c.75.32,1.49.66,2.23,1l.67.31c.95.45,1.89.92,2.84,1.42l.51.28c.77.41,1.54.83,2.3,1.26l.84.49c.68.4,1.35.81,2,1.22l.8.5c.87.56,1.74,1.12,2.59,1.71l.06,0c.89.61,1.76,1.24,2.63,1.88l.72.54c.63.48,1.27,1,1.89,1.47l.79.63c.31.25.6.51.9.76a94,94,0,0,1,17-7.08C265.14,128.84,264.38,128.14,263.62,127.45Z" fill="url(#radial-gradient-4)"></path><path d="M298.55,188.84a94.7,94.7,0,0,0-7.2-26.83,105.23,105.23,0,0,0-15.68-25.5c-.77-.93-1.55-1.83-2.34-2.72l-.7-.77c-.54-.6-1.09-1.19-1.64-1.78l-.12-.13-.74-.77c-.44-.46-.89-.9-1.34-1.34l-.69-.7c-.16-.15-.32-.31-.47-.47h0c-.84-.81-1.69-1.6-2.55-2.38l-.6-.53q-1-.89-2-1.74l-.85-.7-.48-.39-1.43-1.16-.8-.62h0c-.89-.68-1.79-1.35-2.69-2l-.1-.07c-.48-.34-1-.66-1.45-1s-1-.7-1.48-1l-.56-.35-.62-.39-1.46-.92-.88-.55c-.78-.47-1.57-.92-2.36-1.36l-.57-.33c-.51-.28-1-.54-1.54-.81l-1.39-.74-.68-.33c-.77-.39-1.55-.76-2.33-1.12l-.92-.42-1.77-.76c-.64-.27-1.29-.54-1.94-.79s-1-.41-1.56-.6c-.67-.25-1.34-.49-2-.71l-1.52-.52c-.7-.22-1.39-.43-2.09-.63s-1.28-.39-1.93-.56l-.31-.08-1.36-.32h0l-1.42-.35c-.81-.18-1.61-.33-2.42-.48l-.79-.16-.44-.08c-1.14-.2-2.29-.37-3.43-.51l-.16,0-.44,0c-1.07-.13-2.14-.23-3.21-.31l-1.33-.06c-.76,0-1.53-.08-2.29-.09h0q-1.41,0-2.82,0h-.05l-.48,0c-.85,0-1.69.07-2.54.13l-.48,0-.38,0c-1.05.09-2.1.2-3.14.34h0c-1.1.15-2.2.33-3.29.54l-.14,0c-1.06.21-2.1.44-3.14.71l-.36.09c-1,.25-2,.54-3,.85l-.46.15-.48.17c-.8.27-1.6.55-2.39.86l-.45.17c-1,.38-1.91.79-2.84,1.23l-.35.16c-1,.46-1.94,1-2.9,1.47l-.06,0h0c-1,.55-2,1.14-3,1.76h0l0,0c-1,.63-2,1.3-2.94,2s-1.8,1.37-2.66,2.09l-.39.32c-.82.69-1.6,1.4-2.37,2.13l-.45.44c-.76.74-1.51,1.5-2.22,2.28l-.31.35c-.57.64-1.12,1.3-1.66,2-.33.4-.65.8-1,1.21l-.56.76a54.76,54.76,0,0,1,9-8.35A56.3,56.3,0,0,1,197,105.54a70.38,70.38,0,0,1,27.53,2,89.46,89.46,0,0,1,26.13,11.89,103.66,103.66,0,0,1,22.5,20.29A105.47,105.47,0,0,1,288.8,165.2,94.72,94.72,0,0,1,296,192a76.54,76.54,0,0,1-1.45,26.25,60.85,60.85,0,0,1-10.29,22.3c.59-.68,1.18-1.37,1.74-2.09a58.06,58.06,0,0,0,5.38-8.25,62.55,62.55,0,0,0,5.72-15.15,72.73,72.73,0,0,0,1.95-16.18A83.06,83.06,0,0,0,298.55,188.84Z" fill="url(#linear-gradient-6)"></path><path d="M246.38,133.79c2.26-5-1.93-11.95-9.35-15.47S221.76,116,219.5,121s1.92,11.94,9.34,15.46S244.11,138.81,246.38,133.79Z" fill="#fff"></path><path d="M211.6,118.68c.1-3.45-3.95-6.59-9-7s-9.32,2-9.42,5.49,3.94,6.6,9,7S211.49,122.14,211.6,118.68Z" fill="#fff"></path><path d="M237,118.32c-7.08-3.35-14.53-2.39-17.17,2.05l1.27.42,1.52.54,1.87.71,1.72.7.88.37c.75.32,1.49.66,2.23,1l.67.31c.95.45,1.89.92,2.84,1.42l.51.28c.77.41,1.54.83,2.3,1.26l.84.49c.68.4,1.35.81,2,1.22l.8.5c.87.56,1.74,1.12,2.59,1.71l.06,0c.89.61,1.76,1.24,2.63,1.88l.72.54.74.58c.11-.19.22-.37.31-.56C248.64,128.77,244.45,121.84,237,118.32Z" fill="url(#radial-gradient-5)"></path><path d="M202.55,111.66c-4.92-.4-9,1.87-9.39,5.14l.18,0c.71,0,1.43-.06,2.15-.08l1.36,0c.75,0,1.51,0,2.27,0l1.22,0c1,0,2.1.12,3.15.22l.35,0c1.16.12,2.32.26,3.49.43l1.21.21c.77.12,1.53.25,2.29.4l.75.16C211.29,114.92,207.4,112.07,202.55,111.66Z" fill="url(#radial-gradient-6)"></path></svg> 