<svg id="Layer_1" data-name="Layer 1" xmlns="http://www.w3.org/2000/svg" viewBox="0 0 2500 2500"><path d="M1298.09,1899.81l730.44-421.08V1622.6a140.36,140.36,0,0,1-70.18,121.53l-660.26,381.18Z" fill="#6dc286" fill-rule="evenodd"/><path d="M1834.25,1253.22V971.81L2029,859.4v506.23l-486.92,280.71V1421.89l292.41-168.66" fill="#6dc286" fill-rule="evenodd"/><path d="M1319.61,394.12l660.27,381.19L1785,887.71,1054.68,466.05l124.57-71.93A140.37,140.37,0,0,1,1319.61,394.12Z" fill="#4e98d2" fill-rule="evenodd"/><path d="M957,522.31,1443.94,803,1249.43,915.9,957,747.12,713.62,887.48,519,775.31Z" fill="#4e98d2" fill-rule="evenodd"/><path d="M470.33,859.64,664.61,971.81v843.43l-124.1-71.46a140.37,140.37,0,0,1-70.18-121.53Z" fill="#e02a43" fill-rule="evenodd"/><path d="M762.51,1309.49,957,1421.89v337.32l243.52,140.36V2124.5l-438-252.77Z" fill="#e02a43" fill-rule="evenodd"/></svg>