<svg id="Layer_1" data-name="Layer 1" xmlns="http://www.w3.org/2000/svg" viewBox="0 0 500 500"><path d="M259.35,380.21,405.44,296v28.77a28.07,28.07,0,0,1-14,24.31l-132,76.23Z" fill="#6dc286" fill-rule="evenodd"/><path d="M366.58,250.9V194.61l38.95-22.48V273.38l-97.38,56.14V284.63l58.48-33.73" fill="#6dc286" fill-rule="evenodd"/><path d="M263.65,79.08l132.06,76.23-39,22.48L210.67,93.46l24.91-14.38A28,28,0,0,1,263.65,79.08Z" fill="#4e98d2" fill-rule="evenodd"/><path d="M191.14,104.71l97.38,56.15-38.9,22.57-58.48-33.75-48.68,28.07-38.93-22.44Z" fill="#4e98d2" fill-rule="evenodd"/><path d="M93.8,172.18l38.85,22.43V363.3L107.83,349a28.08,28.08,0,0,1-14-24.31Z" fill="#e02a43" fill-rule="evenodd"/><path d="M152.23,262.15l38.91,22.48v67.46l48.7,28.08v45L152.23,374.6Z" fill="#e02a43" fill-rule="evenodd"/></svg>