<svg id="Layer_1" data-name="Layer 1" xmlns="http://www.w3.org/2000/svg" viewBox="0 0 500 500"><path d="M394.81,306.41s-.48-3-.76-2.92l-53.56,5.17a8.71,8.71,0,0,0-7.87,8.08l-1.47,21.08-41.43,3-2.82-19.11a8.79,8.79,0,0,0-8.64-7.46H221.74a8.79,8.79,0,0,0-8.64,7.46l-2.82,19.11-41.43-3-1.47-21.08a8.72,8.72,0,0,0-7.88-8.09l-53.58-5.16c-.28,0-.48,2.93-.76,2.93L105.09,318l45.38,7.31L152,346.6a8.77,8.77,0,0,0,8.09,8.1l57.06,4.07.64,0a8.77,8.77,0,0,0,8.62-7.46l2.9-19.67h41.46l2.9,19.67a8.76,8.76,0,0,0,8.63,7.45c.21,0,.42,0,.62,0L340,354.7a8.77,8.77,0,0,0,8.08-8.1l1.49-21.28L394.89,318Z" fill="#fff"/><path d="M216.67,84.5a9.27,9.27,0,0,0-2.4.23c-15.63,3.47-31.35,8.36-46.3,15.89a10,10,0,0,0-5.5,9.19c.27,10.42,1.18,20.55,2.33,30.78a95.57,95.57,0,0,0-12.06,7.89c-3.05,2.34-6.46,5.31-9.78,8.06-7.76-4.86-15.59-9.71-23.89-13.89a10,10,0,0,0-11.83,2.13c-11.28,12.14-22,25.43-30.86,40.5a10,10,0,0,0,.12,10.33,325.49,325.49,0,0,0,18.66,26.91V330.07c0,29.67,19.74,52.31,48,65.81s65.61,19.68,106.72,19.82h.27c41.1-.15,78.47-6.31,106.71-19.82s48-36.14,48-65.81l0-104.75c6.67-9.79,12.2-19.25,18.67-29.7a10,10,0,0,0,.11-10.33c-8.85-15.07-19.58-28.36-30.86-40.5a10,10,0,0,0-11.83-2.13c-8.29,4.18-16.13,9-23.88,13.9-3.33-2.75-6.72-5.73-9.79-8.08,0,0,0,0,0,0a97.62,97.62,0,0,0-12-7.87c1.14-10.22,2.05-20.36,2.32-30.77a10,10,0,0,0-5.5-9.2c-14.95-7.52-30.67-12.41-46.3-15.89A10,10,0,0,0,275,89.37c-5.06,8.5-9.39,17.52-13.58,26.44-3.74-.34-7.53-.86-11.15-.9h-.45c-3.63,0-7.42.56-11.16.9-4-8.56-8.22-17.19-13.05-25.39a10.4,10.4,0,0,0-.54-1,10,10,0,0,0-8.36-4.89Z" fill="#fff"/><path d="M216.44,94.24c-15.08,3.35-30,8-44,15.06a332.39,332.39,0,0,0,2.74,36.18C169.78,149,164.07,152,159,156s-10.42,7.76-15.08,12.39a289.18,289.18,0,0,0-29.35-17.07c-11,11.79-21.2,24.52-29.57,38.75a314.66,314.66,0,0,0,20,28.79h.2v87.4a2.48,2.48,0,0,1,.47,0l53.58,5.17a5.76,5.76,0,0,1,5.2,5.34l1.65,23.65,46.74,3.34L216,322a5.77,5.77,0,0,1,5.71-4.93h56.52A5.78,5.78,0,0,1,284,322l3.22,21.83,46.74-3.34,1.65-23.65a5.76,5.76,0,0,1,5.2-5.34l53.55-5.17.48,0v-7h0V218.89h.2a312.62,312.62,0,0,0,20-28.79c-8.36-14.24-18.61-27-29.56-38.75a289.18,289.18,0,0,0-29.35,17.07C351.41,163.79,346.16,160,341,156s-10.79-7.06-16.2-10.54a334.9,334.9,0,0,0,2.73-36.19c-14-7-28.89-11.7-44-15A312.39,312.39,0,0,0,267.23,126a112,112,0,0,0-17.12-1.37h-.22A112,112,0,0,0,232.76,126a310.45,310.45,0,0,0-16.33-31.79ZM105.08,317.84c0,5.17.09,10.85.09,12,0,50.88,64.54,75.33,144.73,75.61h.2c80.19-.28,144.72-24.73,144.72-75.61,0-1.15.07-6.8.09-12l-48.16,4.64-1.66,23.78a5.77,5.77,0,0,1-5.34,5.35l-57.07,4.07h-.42a5.77,5.77,0,0,1-5.7-4.93l-3.27-22.19H226.72l-3.27,22.19a5.77,5.77,0,0,1-6.12,4.92l-57.07-4.07a5.78,5.78,0,0,1-5.34-5.36l-1.66-23.77Z" fill="#478cbf"/><path d="M206.34,254.45a32.29,32.29,0,1,1-32.29-32.27,32.29,32.29,0,0,1,32.29,32.27" fill="#fff"/><path d="M250,289.81c-5.74,0-10.39-4.23-10.39-9.44V250.65c0-5.22,4.65-9.45,10.39-9.45s10.4,4.23,10.4,9.45v29.72c0,5.21-4.66,9.44-10.4,9.44" fill="#fff"/><path d="M293.66,254.45A32.29,32.29,0,1,0,326,222.18a32.29,32.29,0,0,0-32.3,32.27" fill="#fff"/><path d="M177.14,235a21.43,21.43,0,1,0,21.43,21.43A21.44,21.44,0,0,0,177.14,235Zm145.71,0a21.43,21.43,0,1,0,21.43,21.43A21.43,21.43,0,0,0,322.85,235Z" fill="#414042"/></svg>