<?xml version="1.0" encoding="UTF-8"?> <svg xmlns="http://www.w3.org/2000/svg" id="Layer_1" data-name="Layer 1" viewBox="0 0 500 500"><path d="M158.66,129.39c-37.59,4.27-69.83,24-90,55-7.68,11.75-14.3,28.12-17.29,42.85-1.85,9.19-1.85,36.38,0,45.56C59,310.4,82.71,341.44,116.3,358.1a121.29,121.29,0,0,0,43.21,12.45c4.49.5,36.59.79,90.9.79,70.9,0,85.27-.15,92.39-1.07,29.54-3.85,53.6-15.73,73.53-36.45A112.14,112.14,0,0,0,437,305.14c9.19-18,13-34.31,13-55.17s-3.84-37.15-13-55.16a112.19,112.19,0,0,0-20.64-28.69c-19.93-20.71-44-32.6-73.53-36.44-7.12-.93-21.21-1.07-93.6-1-46.84.07-87.62.36-90.54.71Zm179.3,82c14.38,3.92,26.12,15.24,29.61,28.62a49.19,49.19,0,0,1,0,19.93c-3.56,13.59-15.37,24.91-30,28.61-4.56,1.21-10.89,1.28-87.84,1.28-77.37,0-83.21-.07-87.55-1.28-14.17-3.84-23.92-12.31-29-25.12-1.71-4.42-1.93-5.84-1.93-13.46s.22-9,1.93-13.45c5.62-14.31,17.65-23.63,33.59-26,2.35-.36,40.79-.57,85.42-.5,74.46.14,81.5.21,85.7,1.35Z" fill="#010101"></path></svg> 