<?xml version="1.0" encoding="UTF-8"?> <svg xmlns="http://www.w3.org/2000/svg" xmlns:xlink="http://www.w3.org/1999/xlink" id="Layer_1" data-name="Layer 1" viewBox="0 0 500 500"><defs><linearGradient id="linear-gradient" x1="256.64" y1="79.17" x2="103.66" y2="231.64" gradientTransform="matrix(0.95, 0.3, 0.3, -0.95, 18.58, 355.58)" gradientUnits="userSpaceOnUse"><stop offset="0" stop-color="#4169b1"></stop><stop offset="1" stop-color="#3598d4"></stop></linearGradient><linearGradient id="linear-gradient-2" x1="332.35" y1="188.49" x2="213.07" y2="320.27" gradientTransform="matrix(0.95, 0.3, 0.3, -0.95, 18.58, 355.58)" gradientUnits="userSpaceOnUse"><stop offset="0" stop-color="#6450a0"></stop><stop offset="1" stop-color="#4169b1"></stop></linearGradient><linearGradient id="linear-gradient-3" x1="252.03" y1="25.24" x2="168.14" y2="125.34" xlink:href="#linear-gradient-2"></linearGradient><linearGradient id="linear-gradient-4" x1="281.18" y1="11.95" x2="238.36" y2="77.74" gradientTransform="matrix(0.95, 0.3, 0.3, -0.95, 18.58, 355.58)" gradientUnits="userSpaceOnUse"><stop offset="0" stop-color="#bb1b86"></stop><stop offset="0.34" stop-color="#ad238a"></stop><stop offset="0.99" stop-color="#883995"></stop><stop offset="1" stop-color="#873a95"></stop></linearGradient><linearGradient id="linear-gradient-5" x1="376.59" y1="149.05" x2="324.45" y2="195.56" gradientTransform="matrix(0.95, 0.3, 0.3, -0.95, 18.58, 355.58)" gradientUnits="userSpaceOnUse"><stop offset="0" stop-color="#873a95"></stop><stop offset="1" stop-color="#6450a0"></stop></linearGradient><linearGradient id="linear-gradient-6" x1="270.67" y1="292.44" x2="199.51" y2="382.12" gradientTransform="matrix(0.95, 0.3, 0.3, -0.95, 18.58, 355.58)" gradientUnits="userSpaceOnUse"><stop offset="0" stop-color="#3598d4"></stop><stop offset="1" stop-color="#41c5eb"></stop></linearGradient><linearGradient id="linear-gradient-7" x1="137.25" y1="197.48" x2="69.93" y2="290.18" xlink:href="#linear-gradient-6"></linearGradient><linearGradient id="linear-gradient-8" x1="153.72" y1="-46.15" x2="42.18" y2="92.08" xlink:href="#linear-gradient-5"></linearGradient><linearGradient id="linear-gradient-9" x1="76.23" y1="100.93" x2="-39.11" y2="223.67" xlink:href="#linear-gradient"></linearGradient><linearGradient id="linear-gradient-10" x1="112.63" y1="293.01" x2="95.62" y2="335.5" gradientTransform="matrix(0.95, 0.3, 0.3, -0.95, 18.58, 355.58)" gradientUnits="userSpaceOnUse"><stop offset="0" stop-color="#41c5eb"></stop><stop offset="1" stop-color="#7ecfda"></stop></linearGradient></defs><title>react-three-fiber</title><polygon points="287.19 131.37 127.83 278.92 333.94 343.41 287.19 131.37" fill="url(#linear-gradient)"></polygon><polygon points="450 206.06 333.94 343.41 287.19 131.37 450 206.06" fill="url(#linear-gradient-2)"></polygon><polygon points="189.04 445.18 333.94 343.41 127.83 278.92 189.04 445.18" fill="url(#linear-gradient-3)"></polygon><polygon points="389.12 400.84 333.94 343.41 189.04 445.18 389.12 400.84" fill="url(#linear-gradient-4)"></polygon><polygon points="450 206.06 389.12 400.84 333.94 343.41 450 206.06" fill="url(#linear-gradient-5)"></polygon><polygon points="311.13 54.82 450 206.06 287.19 131.37 311.13 54.82" fill="url(#linear-gradient-6)"></polygon><polygon points="110.88 99.96 127.83 278.92 287.19 131.37 110.88 99.96" fill="url(#linear-gradient-7)"></polygon><polygon points="50 294.82 127.83 278.92 189.04 445.18 50 294.82" fill="url(#linear-gradient-8)"></polygon><polygon points="110.88 99.96 50 294.82 127.83 278.92 110.88 99.96" fill="url(#linear-gradient-9)"></polygon><polygon points="311.13 54.82 110.88 99.96 287.19 131.37 311.13 54.82" fill="url(#linear-gradient-10)"></polygon></svg> 