<svg id="Layer_1" data-name="Layer 1" xmlns="http://www.w3.org/2000/svg" xmlns:xlink="http://www.w3.org/1999/xlink" viewBox="0 0 424.7 573.22"><defs><linearGradient id="linear-gradient" x1="-3.04" y1="721.65" x2="-2.67" y2="721.65" gradientTransform="matrix(-45.7, 252.22, 252.22, 45.7, -182027.35, -32005.08)" gradientUnits="userSpaceOnUse"><stop offset="0" stop-color="red"/><stop offset="1" stop-color="#900"/></linearGradient><linearGradient id="linear-gradient-2" x1="-2.51" y1="721.93" x2="-2.15" y2="721.93" gradientTransform="translate(-147463.72 76680.33) rotate(-117.56) scale(230.25)" xlink:href="#linear-gradient"/><linearGradient id="linear-gradient-3" x1="-2.82" y1="721.83" x2="-2.45" y2="721.83" gradientTransform="matrix(127.94, 219.93, 219.93, -127.94, -158283.6, 93174.67)" gradientUnits="userSpaceOnUse"><stop offset="0" stop-color="#900" stop-opacity="0.65"/><stop offset="1" stop-color="#fe0000" stop-opacity="0.65"/></linearGradient><linearGradient id="linear-gradient-4" x1="-3.04" y1="721.74" x2="-2.67" y2="721.74" gradientTransform="matrix(-45.7, 252.22, 252.22, 45.7, -182027.35, -32005.08)" gradientUnits="userSpaceOnUse"><stop offset="0" stop-color="red" stop-opacity="0.65"/><stop offset="1" stop-color="#900" stop-opacity="0.65"/></linearGradient></defs><g style="isolation:isolate"><path d="M233.21,274.12h-5.27l-9.27-30.75c-.44-1.36-.93-3.07-1.47-5.15a28.8,28.8,0,0,1-.85-3.73,70.38,70.38,0,0,1-2.2,9.07l-9,30.56h-5.28l-12.21-45.91h5.65l7.26,28.35a106.34,106.34,0,0,1,2.19,10.81,79,79,0,0,1,2.52-11.25l8.22-27.91h5.66l8.63,28.17a84.09,84.09,0,0,1,2.55,11,92.13,92.13,0,0,1,2.26-10.87l7.22-28.29h5.65Z" transform="translate(-35.25 -40.46)" fill="#fff"/><path d="M266.44,274.75q-7.63,0-12-4.65T250,257.19q0-8.33,4.1-13.22a13.6,13.6,0,0,1,11-4.9,13,13,0,0,1,10.24,4.26c2.51,2.83,3.77,6.58,3.77,11.22v3.3H255.39q.15,6.06,3.06,9.2c1.93,2.1,4.66,3.14,8.18,3.14a27.71,27.71,0,0,0,11-2.32v4.65a28.36,28.36,0,0,1-5.23,1.71A29.76,29.76,0,0,1,266.44,274.75ZM265,243.44a8.5,8.5,0,0,0-6.61,2.7,12.38,12.38,0,0,0-2.91,7.47h18c0-3.28-.74-5.8-2.2-7.55A7.74,7.74,0,0,0,265,243.44Z" transform="translate(-35.25 -40.46)" fill="#fff"/><path d="M304,239.13q6.78,0,10.54,4.64t3.75,13.11q0,8.47-3.79,13.17t-10.5,4.7a15,15,0,0,1-6.14-1.24,11.52,11.52,0,0,1-4.66-3.82h-.38l-1.1,4.43H288V225.25h5.22v11.87c0,2.66-.09,5-.25,7.16h.25C295.62,240.85,299.23,239.13,304,239.13Zm-.75,4.37q-5.34,0-7.7,3.06t-2.35,10.32q0,7.25,2.41,10.38c1.62,2.08,4.2,3.12,7.76,3.12a8.05,8.05,0,0,0,7.16-3.5q2.36-3.5,2.36-10.07t-2.36-10Q308.17,243.5,303.25,243.5Z" transform="translate(-35.25 -40.46)" fill="#fff"/><path d="M358.74,274.12h-6.06l-12.35-20.19-12.56,20.19h-5.65l15.26-24-14.22-21.92h5.9l11.4,18.18L352,228.21h5.69l-14.23,21.73Z" transform="translate(-35.25 -40.46)" fill="#fff"/><path d="M370.64,255v19.1H365.3V228.21h12.59q8.44,0,12.49,3.23t4,9.74q0,9.1-9.23,12.31l12.47,20.63h-6.32L380.22,255Zm0-4.58H378c3.76,0,6.53-.75,8.29-2.25s2.63-3.74,2.63-6.73-.89-5.22-2.68-6.56-4.66-2-8.62-2h-6.94Z" transform="translate(-35.25 -40.46)" fill="#fff"/></g><path d="M117.37,284l-14.61-35.12s-3.15-7.46,8.14-12.76,25-12,25-12v50.69s-8.14,8.06-11.36,11.3c-2.92,2.94-6,.65-7.21-2.13Z" transform="translate(-35.25 -40.46)" fill-rule="evenodd" fill="url(#linear-gradient)"/><path d="M154.5,284c1.17-2.78,14.62-35.12,14.62-35.12s3.14-7.46-8.15-12.76-25-12-25-12v50.69s8.14,8.06,11.35,11.3c2.93,2.94,6.05.65,7.21-2.13Z" transform="translate(-35.25 -40.46)" fill-rule="evenodd" fill="url(#linear-gradient-2)"/><path d="M135.94,224.14l-23.33-11.32s-5-2.19-3.73,4.82l3.19,17.93Z" transform="translate(-35.25 -40.46)" fill-rule="evenodd" fill="url(#linear-gradient-3)"/><path d="M135.94,224.14l23.33-11.32s5-2.19,3.73,4.82l-3.19,17.93Z" transform="translate(-35.25 -40.46)" fill-rule="evenodd" fill="url(#linear-gradient-4)"/><g id="Foreground"><path d="M184.19,41.12l21.2,72.06,21.19-72.06H284v7.2L262.4,85.58a30.08,30.08,0,0,1,17.22,13.31q5.83,9.64,5.85,22.65,0,16.08-8.56,27t-22.14,11A26.54,26.54,0,0,1,237,153q-7.6-6.5-11.26-17.61l12-5a27.6,27.6,0,0,0,6.94,10.6,14.72,14.72,0,0,0,10.15,3.87q6.15,0,10.38-6.87a30.82,30.82,0,0,0,4.24-16.52q0-10.66-4.53-16.51-5.3-6.87-16.52-6.87h-5.84v-7L263,55.74H238.28l-1.41,2.39-30,101.37h-1.47L183.45,86.13,161.53,159.5h-1.46L125,41.12h15.35l21.19,72.06,14.32-48.52-7-23.54Z" transform="translate(-35.25 -40.46)" fill="#005a9c"/><path d="M363.78,41.12A10.63,10.63,0,0,0,356,44.3a11.44,11.44,0,0,0-3.39,8A11.31,11.31,0,0,0,363.78,63.5a11.49,11.49,0,0,0,8-3.31,10.77,10.77,0,0,0,3.27-7.9,11.18,11.18,0,0,0-11.22-11.17Zm9.72,11.26a9.29,9.29,0,0,1-2.83,6.75,9.79,9.79,0,0,1-7,2.86,9.55,9.55,0,0,1-6.77-2.89,9.67,9.67,0,0,1-2.86-6.81,9.89,9.89,0,0,1,3-6.95,9.33,9.33,0,0,1,6.76-2.77,9.66,9.66,0,0,1,9.7,9.62v.19Zm-9.42-6.62h-4.79V58.44h2.39V53H364l2.58,5.41h2.65l-2.83-5.78a3.32,3.32,0,0,0,2.89-3.42c0-2.3-1.7-3.49-5.25-3.49Zm-.43,1.56c2.24,0,3.26.62,3.26,2.17s-1,2-3.2,2h-2V47.32Z" transform="translate(-35.25 -40.46)" fill="#fff" fill-rule="evenodd"/></g><g id="Calque_1" data-name="Calque 1"><path d="M345,40.46l2.49,15.14-8.8,16.83s-3.38-7.14-9-11.09c-4.73-3.31-7.81-4.05-12.63-3.06-6.18,1.28-13.2,8.67-16.26,17.79-3.66,10.91-3.69,16.2-3.83,21a48.22,48.22,0,0,0,1,12.38,55.42,55.42,0,0,1-5.29-24.37c0-10.33,1.66-19.7,6.44-28.95,4.21-8.12,10.45-13,16-13.58,5.74-.59,10.28,2.17,13.78,5.16,3.68,3.15,7.39,10,7.39,10Z" transform="translate(-35.25 -40.46)" fill="#fff"/><path d="M346,126s-3.89,6.95-6.31,9.63-6.76,7.4-12.12,9.76-8.16,2.8-13.45,2.29-10.2-3.57-11.92-4.84a46.18,46.18,0,0,1-8.61-8.54c-2.49-3.51-6.38-10.53-6.38-10.53s2.17,7,3.53,10a64.78,64.78,0,0,0,6.58,11.53c3.17,4.27,9.34,11.61,18.71,13.25A23.86,23.86,0,0,0,333.49,155a47.35,47.35,0,0,0,7.08-6.11,53.38,53.38,0,0,0,5.48-7.22c.85-1.32,2.24-4,2.24-4Z" transform="translate(-35.25 -40.46)" fill="#fff"/></g><g id="Khronos"><path d="M237,463.7c-15.69-.56-37.11-7.72-41.52-18.06-3.84-9.45,0-20.37,18.08-28.14,10.74-4.49,27-5.76,39.52-4.59,17.78,1.63,34.71,10.81,34.74,10.82v13.76a83,83,0,0,0-12.39-9c-6.49-3.79-12.42-6.46-24.22-7.55a56.68,56.68,0,0,0-15.06.2,52.85,52.85,0,0,0-17.16,5,40.93,40.93,0,0,0-8.33,4.94,51.26,51.26,0,0,0-3.9,3.46c-2.78,3.47-4.2,6.09-3.47,10.84.82,3.58,2.4,5.8,6.93,9.21a13.09,13.09,0,0,0,3.1,1.93,64.58,64.58,0,0,0,24.14,6.91" transform="translate(-35.25 -40.46)" fill="#c33"/><path d="M238,423.56c15.75,0,38.06,6.23,43.84,16.4,5.08,9.23,2.73,20.31-14.29,28.78-10.1,4.91-26.16,6.79-38.84,6.15-17.95-.94-36-9.45-36.08-9.45l-1.73-12.85-.1-.85a96.11,96.11,0,0,0,13.56,8.51,55.57,55.57,0,0,0,25.19,6.55,56.53,56.53,0,0,0,15-.75,49.05,49.05,0,0,0,16.44-5.75,34.05,34.05,0,0,0,7.63-5.3,46,46,0,0,0,3.47-3.65c2.3-3.58,3.45-6.25,2.1-11-1.28-3.46-3.15-5.69-8.17-8.91a15.92,15.92,0,0,0-3.34-1.82,69.57,69.57,0,0,0-25-6" transform="translate(-35.25 -40.46)" fill="#c33"/><path d="M48.89,466.53H40.05V421.34h8.84Zm.1-22.45,13.68-22.74h9.87L58,443.76l14.53,22.75H62.71Z" transform="translate(-35.25 -40.46)" fill="#fff"/><path d="M102.8,448.19v18.34H94V421.34h8.84v18.33h14.54V421.34h8.84v45.19h-8.84V448.19Z" transform="translate(-35.25 -40.46)" fill="#fff"/><path d="M161.09,466.53h-8.85V421.34H163a55.69,55.69,0,0,1,7.63.35A16.14,16.14,0,0,1,175,422.8a13.52,13.52,0,0,1,5.81,5.14,14.23,14.23,0,0,1,2.07,7.6,13.93,13.93,0,0,1-2.89,8.91,12.91,12.91,0,0,1-7.83,4.64l11.3,17.51H172.82l-11.73-21Zm0-23.16H163a14.18,14.18,0,0,0,8.19-2,6.49,6.49,0,0,0,2.79-5.65,6.24,6.24,0,0,0-2.35-5.33,12.57,12.57,0,0,0-7.26-1.7h-3.27Z" transform="translate(-35.25 -40.46)" fill="#fff"/><path d="M308.2,466.53h-8.69V421.34h8.4l18.68,28.84V421.34h8.67v45.19h-8.1L308.34,436.8v29.73Z" transform="translate(-35.25 -40.46)" fill="#fff"/><path d="M359.41,443.83a24.28,24.28,0,0,1,1-7,23.15,23.15,0,0,1,11.42-13.68,23.5,23.5,0,0,1,11.05-2.67,22.47,22.47,0,0,1,8.68,1.71,23.64,23.64,0,0,1,12.63,12.62,22.54,22.54,0,0,1,1.71,8.88,23.93,23.93,0,0,1-1.71,9.08,23.64,23.64,0,0,1-12.38,12.83,23.16,23.16,0,0,1-9.06,1.85,23.55,23.55,0,0,1-9.34-1.85,21.74,21.74,0,0,1-7.55-5.34,22.88,22.88,0,0,1-4.79-7.5A25.08,25.08,0,0,1,359.41,443.83Zm9.24-.31a14.76,14.76,0,0,0,1,5.42,14.52,14.52,0,0,0,2.85,4.66A14.35,14.35,0,0,0,377.2,457a12.5,12.5,0,0,0,5.47,1.23,13.27,13.27,0,0,0,10-4.15,14.79,14.79,0,0,0,4.08-10.58,13.53,13.53,0,0,0-4.08-9.85,13.21,13.21,0,0,0-9.75-4.07,13.84,13.84,0,0,0-10.08,4,13.52,13.52,0,0,0-4.12,9.87Z" transform="translate(-35.25 -40.46)" fill="#fff"/><path d="M427.25,452.54h8.11v.65a6.71,6.71,0,0,0,1.46,4.55,4.89,4.89,0,0,0,3.93,1.7,5.57,5.57,0,0,0,4.15-1.56,6,6,0,0,0,1.54-4.33c0-2.91-2.08-5-6.23-6.23l-1.27-.39a16.43,16.43,0,0,1-7.81-4.67,11.54,11.54,0,0,1-2.55-7.66,14.55,14.55,0,0,1,3.54-10.27,12,12,0,0,1,9.4-3.87,11.55,11.55,0,0,1,8.75,3.42,14.9,14.9,0,0,1,3.63,9.62h-8v-.4a4.7,4.7,0,0,0-1.32-3.41,4.61,4.61,0,0,0-3.43-1.32,4.38,4.38,0,0,0-3.42,1.37,5.24,5.24,0,0,0-1.25,3.69,5,5,0,0,0,.28,1.71,3.77,3.77,0,0,0,.82,1.37,12.57,12.57,0,0,0,5.47,2.58c1.25.34,2.19.6,2.86.85a13.9,13.9,0,0,1,6.84,4.54A12.28,12.28,0,0,1,455,452a16,16,0,0,1-3.88,11.22,13.29,13.29,0,0,1-10.27,4.25,12.63,12.63,0,0,1-9.75-4.14,16.21,16.21,0,0,1-3.8-10.85Z" transform="translate(-35.25 -40.46)" fill="#fff"/><path d="M340.25,475.67,339.06,477a5.72,5.72,0,0,0-1.71-1.13,5.23,5.23,0,0,0-1.91-.37A4.6,4.6,0,0,0,332,477a5.19,5.19,0,0,0,0,7.1,4.62,4.62,0,0,0,3.43,1.45,5.19,5.19,0,0,0,1.7-.29,5.49,5.49,0,0,0,1.5-.87v-3H336v-1.72h4.6v5.81a11,11,0,0,1-2.55,1.47,7.4,7.4,0,0,1-2.64.49,6.61,6.61,0,0,1-6.82-6.38v-.44a6.92,6.92,0,0,1,1.78-4.65,6.68,6.68,0,0,1,5-2.19,7.53,7.53,0,0,1,2.74.51,6,6,0,0,1,2.17,1.45Z" transform="translate(-35.25 -40.46)" fill="#fff"/><path d="M359.12,474.12h2.48a14.19,14.19,0,0,1,1.72.11,4.13,4.13,0,0,1,1.17.39,3,3,0,0,1,1.32,1.32,3.71,3.71,0,0,1,.49,2,3.23,3.23,0,0,1-.82,2.21,3.73,3.73,0,0,1-2.22,1.16l3.95,5.36-1.83.77L361,481v6l-2,.15v-13Zm1.93,1.71V480h.71a3,3,0,0,0,1.93-.56,2,2,0,0,0,.7-1.56,1.7,1.7,0,0,0-.65-1.51,3.26,3.26,0,0,0-1.92-.52h-.77Z" transform="translate(-35.25 -40.46)" fill="#fff"/><path d="M391.11,473.73a6.62,6.62,0,0,1,2.41.42,5.83,5.83,0,0,1,2.08,1.22,7.41,7.41,0,0,1,1.71,2.36,7,7,0,0,1,.13,5.34,7.31,7.31,0,0,1-1.35,2.17,6.67,6.67,0,0,1-2.26,1.71,7.31,7.31,0,0,1-5.19.14,6,6,0,0,1-2-1.22,6.37,6.37,0,0,1-1.71-2.4,6.68,6.68,0,0,1-.64-2.82,6.44,6.44,0,0,1,.64-2.83,6.59,6.59,0,0,1,3.71-3.58,7.27,7.27,0,0,1,2.48-.43Zm0,1.81a4.57,4.57,0,0,0-3.42,1.46,4.78,4.78,0,0,0-1.38,3.54,4.86,4.86,0,0,0,8.3,3.56,5.19,5.19,0,0,0,0-7.1,4.78,4.78,0,0,0-3.5-1.49Z" transform="translate(-35.25 -40.46)" fill="#fff"/><path d="M418.13,473.87v7.35a6.36,6.36,0,0,0,.62,3.3,2.18,2.18,0,0,0,2,1,2.36,2.36,0,0,0,2.07-.9,5.42,5.42,0,0,0,.66-3v-7.47l1.85-.16v8.15a9.52,9.52,0,0,1-.21,2.44,4.07,4.07,0,0,1-.79,1.48,3.77,3.77,0,0,1-1.49,1,5.36,5.36,0,0,1-2,.38,4.37,4.37,0,0,1-3.42-1.32,5.81,5.81,0,0,1-1.17-4v-8l1.92-.22Z" transform="translate(-35.25 -40.46)" fill="#fff"/><path d="M444.32,474.12h3.42a5.18,5.18,0,0,1,3.42,1,3.67,3.67,0,0,1,1.17,2.93A3.5,3.5,0,0,1,451,481a5.72,5.72,0,0,1-3.67,1h-1v5.13l-1.94.15Zm1.95,1.71v4.35h1.18a3.32,3.32,0,0,0,2.14-.57,2,2,0,0,0,.74-1.71,2,2,0,0,0-.68-1.7,3.31,3.31,0,0,0-2.07-.55Z" transform="translate(-35.25 -40.46)" fill="#fff"/><path id="OpenGL" d="M460,423.26a2.84,2.84,0,0,1-1.39,2.41,2.78,2.78,0,0,1-1.4.38,2.84,2.84,0,0,1-2.43-1.42,2.75,2.75,0,0,1-.38-1.4,2.86,2.86,0,0,1,1.42-2.44,2.71,2.71,0,0,1,1.39-.38,2.78,2.78,0,0,1,1.4.38,2.6,2.6,0,0,1,1,1A2.86,2.86,0,0,1,460,423.26Zm-.54,0a2.15,2.15,0,0,0-.66-1.59,2.27,2.27,0,0,0-1.59-.65,2.11,2.11,0,0,0-1.59.65,2.2,2.2,0,0,0-.65,1.59,2,2,0,0,0,.65,1.59,2.17,2.17,0,0,0,1.59.66A2.27,2.27,0,0,0,459.41,423.26Zm-3.54-1.43h1.33a1.16,1.16,0,0,1,.82.23.82.82,0,0,1,.26.61.74.74,0,0,1-.19.51,1,1,0,0,1-.61.31,1.26,1.26,0,0,1,.26.13l.24.3.49.87h-.88a7,7,0,0,0-.57-1,.48.48,0,0,0-.3-.17h-.09v1.19h-.76Zm.73,1.26h.33a.71.71,0,0,0,.45-.1.46.46,0,0,0,.13-.27.36.36,0,0,0-.12-.27.76.76,0,0,0-.44-.11h-.35Z" transform="translate(-35.25 -40.46)" fill="#fff"/></g><polygon points="174.47 545.67 173.25 545.67 173.25 548.84 172.19 548.84 172.19 545.67 170.96 545.67 170.96 544.75 174.47 544.75 174.47 545.67" fill="#900"/><polygon points="174.94 544.75 176.51 544.75 177.22 547.48 177.22 547.48 177.93 544.75 179.49 544.75 179.49 548.84 178.49 548.84 178.49 545.73 178.48 545.73 177.63 548.84 176.82 548.84 175.96 545.73 175.94 545.73 175.94 548.84 174.94 548.84 174.94 544.75" fill="#900"/><path d="M167.58,589.07a11.58,11.58,0,0,1-4.49.94,15.88,15.88,0,0,1-6.45-1.25,13.51,13.51,0,0,1-4.83-3.43,15.16,15.16,0,0,1-3-5.14,18.91,18.91,0,0,1-1-6.37,19.66,19.66,0,0,1,1-6.5,15.46,15.46,0,0,1,3-5.22,13.82,13.82,0,0,1,4.83-3.5,15.74,15.74,0,0,1,6.45-1.28,15,15,0,0,1,4.65.73,13.57,13.57,0,0,1,4.06,2.12,11.33,11.33,0,0,1,3,3.47,12.11,12.11,0,0,1,1.44,4.73h-6.54a6.68,6.68,0,0,0-2.36-3.94,6.86,6.86,0,0,0-4.24-1.31,8.06,8.06,0,0,0-3.94.9,7.3,7.3,0,0,0-2.62,2.41,10.74,10.74,0,0,0-1.46,3.43,17.79,17.79,0,0,0-.45,4,15.43,15.43,0,0,0,.45,3.83,10.45,10.45,0,0,0,1.46,3.35,7.41,7.41,0,0,0,2.62,2.39,8.06,8.06,0,0,0,3.94.9,7.51,7.51,0,0,0,5.27-1.72,7.6,7.6,0,0,0,2.17-5h-6.9v-5.16H176.7V589.3h-4.36l-.7-3.56A10.2,10.2,0,0,1,167.58,589.07Z" transform="translate(-35.25 -40.46)" fill="#900"/><path d="M187.83,558.1v25.4H203v5.79H181V558.1Z" transform="translate(-35.25 -40.46)" fill="#900"/><path d="M155.45,593.16c-10.46,6.37-26.16,10-43.65,10-31.53,0-57.07-13.12-57.07-29.33S80.3,544.5,111.8,544.5c17.56,0,33.3,3.7,43.77,10.1-11.41-10.73-31.91-18.26-55.33-18.28-35.9,0-65,16.79-65,37.5s29.1,37.5,65,37.5C123.56,611.32,144,603.83,155.45,593.16Z" transform="translate(-35.25 -40.46)" fill="#900"/><polygon points="62.69 515.2 56.67 541.24 49.41 515.2 43.9 515.2 36.64 541.24 30.62 515.2 24.93 515.2 33.85 549.15 39.19 549.15 46.7 522.48 54.12 549.15 59.48 549.15 68.71 515.2 62.69 515.2" fill="#900"/><path d="M119,570a8.37,8.37,0,0,0-3.1-2.69,9.65,9.65,0,0,0-4.35-.95,11.75,11.75,0,0,0-4.89,1,9.27,9.27,0,0,0-3.42,2.69,15.89,15.89,0,0,0-1.92,13.36,10.44,10.44,0,0,0,2,3.59,9.58,9.58,0,0,0,7.53,3.26,13.62,13.62,0,0,0,4.07-.52,7.89,7.89,0,0,0,2.14-1A9.58,9.58,0,0,0,118.9,587a12.16,12.16,0,0,0,1.24-1.79,8.72,8.72,0,0,0,1-2.83l0-.38h-4.43v.32c-.11,1.44-2,4-5.38,4-4.81,0-6-3.48-6-6.55h16.13v-.33a22,22,0,0,0-.6-5.36A12.93,12.93,0,0,0,119,570Zm-8,.35c3.56,0,5.47,1.92,5.83,5.87H105.31A6.06,6.06,0,0,1,111,570.31Z" transform="translate(-35.25 -40.46)" fill="#900"/><path d="M143.74,573.21a10.81,10.81,0,0,0-1.87-3.59,8.76,8.76,0,0,0-3.05-2.42,9.57,9.57,0,0,0-4.1-.9h0a8,8,0,0,0-3.72.9,7.77,7.77,0,0,0-2.42,2V558.74h-4.41v30.85h4.2v-2.1a6.69,6.69,0,0,0,1.47,1.44,7.3,7.3,0,0,0,4.38,1.3,9.61,9.61,0,0,0,4.89-1.23,9,9,0,0,0,3.14-3.1,13.41,13.41,0,0,0,1.65-4.08,18.71,18.71,0,0,0,.48-4.22A13.9,13.9,0,0,0,143.74,573.21Zm-4,5a10.82,10.82,0,0,1-1.41,5.87,4.77,4.77,0,0,1-4.23,2.27c-2.64,0-5.73-1.84-5.73-7.05a14.94,14.94,0,0,1,1-5.87,4.74,4.74,0,0,1,4.7-3.14,4.87,4.87,0,0,1,4.89,2.87A12.6,12.6,0,0,1,139.78,578.22Z" transform="translate(-35.25 -40.46)" fill="#900"/><path d="M364.4,601.8c2.46-2.76,3.76-6.79,3.76-12.22V559.24H363V564h-.07a9.69,9.69,0,0,0-4.1-4.14,12.31,12.31,0,0,0-5.77-1.38,14.78,14.78,0,0,0-7.25,1.64,14,14,0,0,0-4.75,4.2,17,17,0,0,0-2.56,5.64,25,25,0,0,0-.77,6,22,22,0,0,0,.93,6.45,15.78,15.78,0,0,0,2.79,5.36,13.28,13.28,0,0,0,4.6,3.64,14.65,14.65,0,0,0,6.48,1.35,13.05,13.05,0,0,0,3.11-.39,12.38,12.38,0,0,0,2.95-1.12,10,10,0,0,0,2.47-1.86,9.36,9.36,0,0,0,1.79-2.66H363v2.18a22.15,22.15,0,0,1-.55,5.13,10.61,10.61,0,0,1-1.76,3.94,8.52,8.52,0,0,1-3.08,2.57,10.31,10.31,0,0,1-4.55.93,15.68,15.68,0,0,1-2.82-.29c-.35-.07-.7-.16-1-.26l-1.07-.39-.1,0h0c-14.09-5.26-23.36-14.21-23.36-24.36,0-16.2,23.59-29.32,52.67-29.32,16.21,0,30.74,3.69,40.4,10.1-10.55-10.75-29.46-18.27-51.08-18.27-33.12,0-60,16.78-60,37.49,0,14.13,12.51,26.44,31,32.84C352.47,609.52,360,606.77,364.4,601.8Zm-2.23-22a13.41,13.41,0,0,1-1.7,4.14,8.59,8.59,0,0,1-7.64,4.08,8.24,8.24,0,0,1-4.49-1.13,8.5,8.5,0,0,1-2.89-3,12.87,12.87,0,0,1-1.54-4.07,22.57,22.57,0,0,1-.45-4.49,19.17,19.17,0,0,1,.55-4.53,11.37,11.37,0,0,1,1.74-3.85,8.55,8.55,0,0,1,3-2.66,9.36,9.36,0,0,1,4.49-1,8.75,8.75,0,0,1,4.37,1,8.45,8.45,0,0,1,2.91,2.73,11.74,11.74,0,0,1,1.64,3.81,18.32,18.32,0,0,1,.51,4.3A19.89,19.89,0,0,1,362.17,579.76Z" transform="translate(-35.25 -40.46)" fill="#86c540"/><path d="M366.93,604.92a32.71,32.71,0,0,1-16.4,7.39,95.38,95.38,0,0,0,16.08,1.37c21.54,0,40.41-7.53,51-18.18-9.67,6.37-24.14,10-40.28,10A78.33,78.33,0,0,1,366.93,604.92Z" transform="translate(-35.25 -40.46)" fill="#86c540"/><path d="M400.1,592.5h-7.83V566.15h-9.82v-6.72h27.47v6.72H400.1v26.36Z" transform="translate(-35.25 -40.46)" fill="#86c540"/><path d="M421.82,592.5H414V559.43h24.16v6.72H421.82v6.19h14.3V579h-14.3v13.47Z" transform="translate(-35.25 -40.46)" fill="#86c540"/><path d="M372.72,551.19h5.45v41.2h-5.45Z" transform="translate(-35.25 -40.46)" fill="#86c540"/><polygon points="409.66 519.94 408.44 519.94 408.44 523.12 407.37 523.12 407.37 519.94 406.14 519.94 406.14 519.01 409.66 519.01 409.66 519.94 409.66 519.94" fill="#86c540"/><polygon points="410.14 519.01 411.71 519.01 412.42 521.75 412.43 521.75 413.14 519.01 414.71 519.01 414.71 523.12 413.71 523.12 413.71 520 413.7 520 412.83 523.12 412.02 523.12 411.16 520 411.15 520 411.15 523.12 410.14 523.12 410.14 519.01" fill="#86c540"/></svg>