<?xml version="1.0" encoding="UTF-8"?> <svg xmlns="http://www.w3.org/2000/svg" id="Layer_1" data-name="Layer 1" viewBox="0 0 500 500"><title>twitter</title><path d="M308.86,107.89v-.07h16.41l6,1.2a65,65,0,0,1,10.89,3.06,79,79,0,0,1,9.46,4.42,88.31,88.31,0,0,1,8.3,5.15,50,50,0,0,1,6.63,5.49q2.91,2.92,9.06,1.51a120.1,120.1,0,0,0,13.25-3.94q7.11-2.53,14.05-5.68t8.46-4l1.57-1L413,114l.31-.16.32-.16.31-.16.32-.15.06-.1.1-.06.09-.07.07-.09.31-.09.32-.07-.07.48-.09.47-.16.47-.16.48-.15.31-.16.32-.16.47a11.31,11.31,0,0,0-.32,1.26,51.44,51.44,0,0,1-3,6.31,78.51,78.51,0,0,1-7.11,11.21,54.67,54.67,0,0,1-7.63,8.58q-3.41,2.94-4.52,4.11a13.59,13.59,0,0,1-2.68,2.2l-1.58,1.05-.31.15-.32.16-.06.1-.1.06-.09.06-.06.1-.32.16-.31.15-.07.1-.09.06-.1.06-.06.1-.06.09-.1.07-.09.06-.07.09h1.58l8.84-1.89a156.89,156.89,0,0,0,16.88-4.58l8.52-2.84.95-.31.48-.16.31-.16.32-.16.31-.15.32-.16.63-.1.63-.06v.63l-.16.07-.16.09-.06.1-.09.06-.1.06-.06.1-.06.09-.1.06-.09.07-.07.09-.06.1-.09.06-.16.32-.16.31-.09.06c-.05.07-1.38,1.86-4,5.37s-4.05,5.32-4.26,5.36-.51.38-.89.95a88.3,88.3,0,0,1-6.69,7,160.08,160.08,0,0,1-12.05,10.95,14.93,14.93,0,0,0-6,11.87q-.09,7-.73,15.84t-2.36,19.09a228.65,228.65,0,0,1-5.37,23.2,209.62,209.62,0,0,1-8.84,25.25,197.92,197.92,0,0,1-10.88,22.09q-5.69,9.78-10.42,16.57t-9.62,12.78q-4.9,6-12.38,13.51t-8.2,8.2c-.48.47-2.55,2.19-6.19,5.18s-7.51,6-11.67,9-8,5.48-11.43,7.48-7.66,4.28-12.56,6.84a149.1,149.1,0,0,1-15.84,7.2q-8.52,3.31-18,6.15a162.56,162.56,0,0,1-18.31,4.42q-8.84,1.57-20,2.69l-11.2,1.1v.16H175.05V392l-2.69-.16c-1.79-.1-3.26-.21-4.42-.31s-5.52-.69-13.09-1.74-13.52-2.1-17.83-3.16-10.74-3-19.26-6a188,188,0,0,1-21.87-8.93q-9.06-4.49-11.36-5.68c-1.51-.78-3.22-1.75-5.11-2.91l-2.84-1.73-.06-.1-.1-.06-.09-.06-.07-.1-.31-.16-.32-.15-.06-.1-.1-.06-.09-.07-.06-.09-.07-.09-.09-.07H75v-.63l.32.06.31.1,1.42.16q1.42.15,7.73.47t13.42,0A139.81,139.81,0,0,0,112.71,359a163.81,163.81,0,0,0,17.52-3.79,130,130,0,0,0,18.56-6.37q8.43-3.74,12-5.56a116.8,116.8,0,0,0,10.79-6.69l7.26-4.89.07-.09.09-.07.1-.06.06-.1.06-.09.1-.06.09-.07.06-.09.32-.1.31-.06.07-.31.09-.32.1-.06.06-.1-2.52-.16-4.9-.31a48.23,48.23,0,0,1-7.41-1.42,71.15,71.15,0,0,1-10.89-3.79,84,84,0,0,1-11.36-6,56.14,56.14,0,0,1-8-5.78q-2.43-2.28-6.31-6.44a63.71,63.71,0,0,1-6.69-8.61,78.83,78.83,0,0,1-5.43-10.2l-2.62-5.74-.16-.48-.15-.47-.1-.31-.06-.32.47.06.48.1,3.47.47a77,77,0,0,0,10.89.32,86.52,86.52,0,0,0,10.25-.63c1.9-.32,3.05-.53,3.47-.64l.64-.15.78-.16.79-.16.07-.09.09-.07.1-.06.06-.09-.63-.16-.63-.16-.63-.16-.64-.16-.63-.15c-.42-.11-1.15-.32-2.21-.64s-3.89-1.47-8.52-3.47a64.45,64.45,0,0,1-11-5.84,74.36,74.36,0,0,1-7.83-6.21,88.32,88.32,0,0,1-8.11-8.78,62.58,62.58,0,0,1-7.89-12.46,75.87,75.87,0,0,1-5.21-13.57,73.59,73.59,0,0,1-2.27-13.1l-.57-6.63.32.06.31.1.32.16.31.16.32.15.31.16,4.9,2.21a61.71,61.71,0,0,0,12.15,3.79q7.26,1.57,8.68,1.73l1.42.16h2.84l-.07-.09-.09-.07-.1-.06-.06-.09-.06-.1-.1-.06-.09-.07-.06-.09-.32-.16-.32-.16-.06-.09-.09-.06-.1-.07-.06-.09-.32-.16-.31-.16-.07-.09-2.71-2a41.49,41.49,0,0,1-5.43-5.15q-2.84-3.15-5.68-6.62a50.52,50.52,0,0,1-5-7.42,90.34,90.34,0,0,1-4.67-10,71.12,71.12,0,0,1-3.69-12.21A69.08,69.08,0,0,1,89.52,159a76.76,76.76,0,0,1,.31-10.26,67.06,67.06,0,0,1,1.9-9.62,73.62,73.62,0,0,1,4.1-11.36l2.68-6,.16-.47.16-.48.09-.06.07-.1.06-.09.09-.06.1.06.06.09.06.1.1.06.09.07.07.09.06.09.09.07.16.31.16.32.1.06.06.1,4.26,4.73q4.26,4.74,10.1,10.57t6.47,6.06a4.72,4.72,0,0,1,1.58,1.45,62.56,62.56,0,0,0,6.31,5.59q5.35,4.42,14,10.26t19.25,11.52A189,189,0,0,0,185,182.3q12.15,4.57,17,6t16.73,3.63q11.84,2.2,17.83,2.84c4,.42,6.73.66,8.2.73l2.21.06-.06-.47-.1-.48-.63-3.94a74.3,74.3,0,0,1-.63-11,72.15,72.15,0,0,1,1.11-13.1A77.56,77.56,0,0,1,250,154.37a64.47,64.47,0,0,1,4.32-9.87,95.86,95.86,0,0,1,5.62-8.43,67.94,67.94,0,0,1,9-9.79,66.68,66.68,0,0,1,12.62-9,82.07,82.07,0,0,1,13.1-6,61.61,61.61,0,0,1,10.1-2.68A37.08,37.08,0,0,0,308.86,107.89Z" fill="#5da8dc" stroke="#5da8dc" stroke-miterlimit="9.01" stroke-width="1.13"></path></svg> 