<?xml version="1.0" encoding="UTF-8"?> <svg xmlns="http://www.w3.org/2000/svg" xmlns:xlink="http://www.w3.org/1999/xlink" id="Layer_1" data-name="Layer 1" viewBox="0 0 500 500"><defs><linearGradient id="linear-gradient" x1="50" y1="243.17" x2="450" y2="243.17" gradientTransform="translate(0 0)" gradientUnits="userSpaceOnUse"><stop offset="0" stop-color="#593293"></stop><stop offset="0.08" stop-color="#522f89"></stop><stop offset="0.46" stop-color="#33215d"></stop><stop offset="0.51" stop-color="#2d1e51"></stop><stop offset="0.67" stop-color="#1d162e"></stop><stop offset="0.76" stop-color="#171321"></stop><stop offset="0.86" stop-color="#14111d"></stop><stop offset="1" stop-color="#120f1a"></stop></linearGradient></defs><title>WebXR-Emulator-Icon</title><rect x="50" y="43.17" width="400" height="400" rx="30.87" transform="translate(493.17 -6.83) rotate(90)" fill="url(#linear-gradient)"></rect><path d="M156.07,337.73a10,10,0,0,0,3.25-3.93c.75.29,1,.11.63-.71a22.57,22.57,0,0,0,5.12-6.12c1.4-.15,2.11-1.38,2.71-2.37,1.18-1.93.95-3.62-1.54-4.24a13,13,0,0,0-3.68-4.08c.21-.91-.44-1.41-.91-2-4.54-5.29-9.07-10.59-13.67-15.84-2.51-2.87-4.53-6.27-7.84-8.31a.27.27,0,0,0-.2-.29c0-.21.07-.5,0-.62-4.47-5.23-8.86-10.54-13.51-15.59a7.16,7.16,0,0,0-6.37-2.16,32.83,32.83,0,0,1-6,.16c-2.79-.17-4.44-1.56-4.33-4.82a107.86,107.86,0,0,0,0-11.23c-.23-3.34.44-5.76,3.79-6.7a59.34,59.34,0,0,0,10.91,0c1,1.1,2.39.66,3.59.66q18.39,0,36.8,0c4.08,0,4.81.73,4.86,4.94s.1,8.38.08,12.57c0,3.27-1.3,4.57-4.41,4.63-1,0-1.89-.09-2.83-.08-1.26,0-2.7-.16-3.28,1.34s.44,2.64,1.39,3.73c2.75,3.17,5.31,6.53,8.16,9.59,4.74,5.08,8.56,11,13.71,15.72a1.19,1.19,0,0,0,1,1c1.41,2.75,2.81,2.28,4.47.15q9.54-12.25,19.2-24.4c1.39-1.75,3.83-3.32,2.79-5.8s-3.72-1.13-5.7-1.15c-3.26,0-4.38-1-4.41-4.48,0-4.63.09-9.26,0-13.89,0-3.06,1.47-4,4.15-4,13.74.27,27.47.37,41.21-.06,3.45-.1,6.92,0,10.37.1,2.24.09,3.33,1.29,3.25,3.84-.14,4.52,0,9,0,13.56,0,3.47-1.17,4.7-4.58,4.8-2.51.08-5-.09-7.55,0-1.73.07-3.61,0-4.58,2.05L241,275c-1.4.19-2,1.45-2.87,2.39-2.7,3.07-5.29,6.26-8,9.36q-14.27,16.51-28.55,33c-1,1.2-2.12,2.57-.76,4,4.23,4.53,7.66,9.86,12.37,13.92,10.52,12.88,21.52,25.31,32.41,37.84a6.32,6.32,0,0,0,5.32,2.31c2.52-.1,5-.13,7.56,0,2.35.1,3.55,1.28,3.44,4-.18,4.3-.05,8.61-.05,12.92,0,3.77-1.16,5-5,5-10.71,0-21.42,0-32.14,0-6.09,0-12.18,0-18.27,0-4.74,0-5.56-.9-5.53-5.74,0-4.09.1-8.18-.08-12.25-.12-2.77,1.13-3.88,3.48-4,2.1-.08,4.2.05,6.3,0,1,0,2.17-.24,2.53-1.53.31-1.1-.37-1.87-1.05-2.6-8.85-9.56-16.95-19.84-25.47-29.72-2.85-3.31-4-3.46-6.72-.15-8.22,10.15-16.37,20.37-24.59,30.51-1.6,2-.94,3.13,1.12,3.36a54.22,54.22,0,0,0,7.86.13c2.88-.09,4.24,1,4.11,4.27-.18,4.3,0,8.61-.06,12.92,0,3.79-.92,4.77-4.42,4.78q-26.48,0-52.94,0c-4,0-4.9-1.05-4.89-5.38,0-4.09.13-8.18-.07-12.25-.15-3,1.08-4.3,3.81-4.3,3.37,0,6.73-.11,10.08,0a5.94,5.94,0,0,0,5.23-2.35c10.1-12.36,20.61-24.35,30.4-37,.25.33.5.19.67-.06S156.45,337.88,156.07,337.73Z" fill="#fcfcfd"></path><path d="M414.11,379.41q0,9.15-.05,18.28c-1,.39-1.51,1.68-2.88,1.64-11.36-.31-22.73.29-34.09-.34-.4-.45-.8-.91-1.2-1.35-4.32-8.09-8.49-16.28-13-24.26q-7.83-13.89-15.37-27.95c-1.42-2.67-3.06-5.28-6.68-5.2-5.88.14-11.76,0-17.64.06-3.65,0-4.92,1.42-4.92,5.21q0,13.72,0,27.47c0,4,.85,5,4.78,5.06,3.36,0,6.72,0,10.08-.06,2.79,0,3.92,1.47,3.77,4.39-.2,3.64-.38,7.29-.22,10.92.22,5-.54,6-5.4,6H299.8c-7.36,0-14.71.05-22.06,0-3.48,0-4.41-1.19-4.39-4.85,0-4,0-7.95,0-11.93,0-3.7.56-4.39,4.21-4.45,3.35-.06,6.72,0,10.08,0s4.05-.78,4-4.29q-.1-47.53-.19-95.08c0-1.1,0-2.21,0-3.31-.13-2.76-1.27-4.23-4.17-4-3.24.21-6.51.17-9.76.1s-4.3-1.1-4.32-4.58c0-3.76,0-7.51,0-11.27,0-5.7.31-6.09,5.61-6.08,21.11,0,42.22-.13,63.32.22,13.75.24,27.49,1.27,40,8.45a38.13,38.13,0,0,1,16.66,18.63c2.65,6.22,2.59,12.62,2.74,19.12.39,17.41-11.83,31.55-26.17,37.06-3.5,1.35-4.32,2.7-2.57,6.15,2.51,4.94,5.33,9.71,8,14.55,3.73,6.73,7.57,13.41,11.17,20.22,1.44,2.72,3.3,4.18,6.23,4.15,3.89-.05,7.78,0,11.66-.16A5.07,5.07,0,0,1,414.11,379.41Zm-96.3-83.13h-.05v19.86c0,4.07.45,4.72,4.22,4.68,11.6-.1,23.19.21,34.68-2.42,8.57-2,17.39-11,16.82-20.84a70.71,70.71,0,0,1,0-7.28c.19-4.53-1.92-8-4.61-11.13-5-5.88-12.12-6.44-18.88-7.37-9.17-1.25-18.43-.68-27.65-.76-3.28,0-4.49,1.29-4.49,4.74Z" fill="#fcfcfd"></path><path d="M249.71,79.21H367.15c8.39,0,15.57,3.32,21.64,9.91A26.92,26.92,0,0,1,395.94,108c0,25.33,0,50.67-.42,76-.18,11.46-5.82,19.08-14.94,24.1-5.09,2.8-10.32,3-15.6,3-18.7.18-37.4.1-56.1.06-6.49,0-12.95-.47-18.86-4-4.56-2.69-8.38-6.59-12.22-10.36-5.63-5.52-10.7-11.8-17.06-16.29-7.26-5.12-14.84-6.24-23-2.31-6.4,3.08-11.29,8.27-16.26,13.35-5.22,5.33-10.34,10.86-16.48,14.71-3.29,2.06-6.84,4.21-10.92,4.2-22.5,0-45,.4-67.5-.27-7.41-.23-13.92-4.73-18.58-11.92S103.13,183,103,174.81c-.26-21.63-.2-43.26-.41-64.89-.09-8.62,2.56-15.89,8-21.72a27.45,27.45,0,0,1,20.1-8.91c10.79-.26,21.58-.09,32.37-.09Zm108,64.37c-.24-12.56-5.2-21.3-14-27.16-8.94-6-18.42-7.62-28.56-3.35-10.56,4.45-17.74,12-19.67,24.87-2.47,16.57,6.43,29.51,19.3,34.61a29.37,29.37,0,0,0,27.37-2.34C351.79,164.25,357.17,155.32,357.66,143.58ZM197.77,143c-.21-3.17,0-6.31-1.08-9.3-4.63-13.13-13.54-20.25-25.58-22.59-8.94-1.73-17.19,1.12-24.42,6.9a28.65,28.65,0,0,0-10.75,17.86c-3,17.54,5,30.55,18.57,36.43a29.08,29.08,0,0,0,27.67-2C191.86,164.42,197.31,155.52,197.77,143Z" fill="#fcfcfd"></path></svg> 