<svg id="Layer_1" data-name="Layer 1" xmlns="http://www.w3.org/2000/svg" viewBox="0 0 500 500"><title>WondaVR</title><path d="M445.61,211.28c5.2,4.19,5.44,6.25,1.16,11.6-.72.89-.22,1.4.07,2.05,1,2.28,2.08,4.55,3.16,6.92-2.93.91-4.9.44-5.77-2.73a26.23,26.23,0,0,0-2-4.19,1.41,1.41,0,0,0-1.62-.91c-1,.14-.87.89-.88,1.55,0,1.55-.08,3.1,0,4.64s-.45,2-2,2-2.27-.37-2.24-2.1c.12-6.28.1-12.57.14-18.86Zm-3.77,8.52c1.85,0,3.57-.27,3.56-2.25s-1.75-2.06-3.37-2.15-2.36.42-2.35,2.23S440.31,220.1,441.84,219.8Z" fill="#4ca8ba"/><path d="M429.24,211.28c-2.91,6.54-5.8,13.07-8.73,19.6-.6,1.35-1.48,2.1-2.32.25-3-6.59-6.33-13-8.82-19.85H414c1.3,4,3.28,7.6,5.32,11.81,1.89-4.28,3.55-8.05,5.2-11.81Z" fill="#4ca8ba"/><path d="M50,224.81c4.4,0,8.55.05,12.7,0,1.67,0,1.79,1.28,2.25,2.23,5.23,10.86,10.42,21.74,15.82,33,1.85-3.44,3.57-6.61,5.26-9.79.57-1.06-.27-1.86-.67-2.68-3.34-6.85-6.75-13.67-10.09-20.52-.31-.64-1-1.23-.62-2.26,4,0,8.08.08,12.14,0,1.8-.05,2,1.27,2.48,2.34q6.9,14.5,13.76,29c.45,1,.92,1.91,1.38,2.87,1.11-.3,1.11-1.33,1.45-2,4.72-9.83,9.47-19.65,14-29.56,1-2.13,2.1-2.79,4.36-2.66,3.48.21,7,.06,10.47.06.41.91-.19,1.51-.5,2.18q-13.45,29.16-26.92,58.32c-.54,1.17-.71,2.49-2.66,2.48s-2.14-1.42-2.66-2.55c-3.08-6.64-6.1-13.3-9.37-20.45-.84,1.74-1.54,3.12-2.19,4.53-2.56,5.51-5.12,11-7.63,16.55-.52,1.13-1,1.92-2.49,1.91S78.45,287,78,286q-13.77-30-27.55-59.93C50.29,225.77,50.21,225.42,50,224.81Z" fill="#0c0c0c"/><path d="M171.43,288.72a32.52,32.52,0,1,1,32.85-32.09C204.2,274.57,189.66,288.77,171.43,288.72Zm.22-52a19.55,19.55,0,1,0,19.66,19.72A19.59,19.59,0,0,0,171.65,236.73Z" fill="#0c0c0c"/><path d="M219,287.65c-.07-1-.2-2.1-.21-3.16q0-28.31,0-56.62c0-1-.76-2.61.78-3a4.42,4.42,0,0,1,4.51,1.22c6.2,6.42,12.5,12.75,18.83,19,4.78,4.75,9.67,9.41,14.65,14.24,0-10.37.1-20.68-.07-31-.05-2.84.49-4,3.6-3.65a41.27,41.27,0,0,0,7.29,0c1.6-.09,1.94.53,1.94,2q-.06,29.47-.05,59c0,.68.46,1.75-.65,1.93s-2.18.44-3.08-.39-1.9-1.93-2.85-2.9l-31.59-32.62a1.92,1.92,0,0,0-.18-.22c-.07,0-.19-.09-.25-.06-1,.47-.4,1.35-.41,2,0,7.13-.08,14.26,0,21.39,0,3.94-.35,7.88.25,11.81a1.24,1.24,0,0,1-1.14,1.12A74.67,74.67,0,0,0,219,287.65Z" fill="#0c0c0c"/><path d="M297.26,287.59c-3.31,0-6.62-.07-9.93,0-1.38,0-1.83-.33-1.83-1.77q.08-29.62,0-59.24c0-.9,0-1.85,1.26-1.8,8.25.32,16.57-.88,24.73,1.05,14.55,3.44,24.71,17.78,23.57,33.05-1.12,14.86-13.66,27.5-28.5,28.58-3.1.23-6.22,0-9.33,0Zm1.06-31.3v13.35c0,5.74,0,5.82,5.86,5.5,7.65-.42,13.33-4.14,16.48-11a17.79,17.79,0,0,0-2.19-19.36c-4.47-5.82-10.64-7.66-17.76-7.38-1.83.08-2.5.38-2.44,2.36C298.41,245.26,298.32,250.78,298.32,256.29Z" fill="#0c0c0c"/><path d="M406.32,287.72c-4.21,0-8-.11-11.79,0-1.78.08-2.54-.59-3.24-2.11-5.44-11.72-11-23.41-16.48-35.11a2,2,0,0,0-.36-.43c-1,.2-1,1.15-1.29,1.75-5.81,11.24-11.63,22.47-17.33,33.77a3.28,3.28,0,0,1-3.54,2.14c-3.77-.14-7.55,0-11.78,0,2.41-4.75,4.66-9.19,6.93-13.61q12-23.34,24-46.66c.67-1.29,1-2.73,3.2-2.74s2.52,1.48,3.14,2.78q13.89,29.14,27.72,58.31C405.7,286.33,405.92,286.84,406.32,287.72Z" fill="#0c0c0c"/></svg>