<?xml version="1.0" encoding="UTF-8"?> <svg xmlns="http://www.w3.org/2000/svg" id="Layer_1" data-name="Layer 1" viewBox="0 0 500 500"><path d="M299.94,221.28V200.59c.75-.44,1.31.12,1.86.42l14.46,7.83q9.58,5.22,19.18,10.42c4.6,2.5,9.17,5.06,13.83,7.46.36.19.67.4.62.88V247c-.26,1.34-1.14.79-1.76.47-1-.54-2.08-1.05-3.07-1.65-4-2.39-8.14-4.5-12.22-6.7q-7.47-4-14.94-8.08c-5.32-2.88-10.72-5.61-15.91-8.71C301.32,222,300.49,221.89,299.94,221.28Z" fill="#b1752b"></path><path d="M226.45,254.72l11.27,6.41c.41.24.82.51,1.23.76.32.75-.37.9-.76,1.15-1.78,1.18-3.74,2.06-5.62,3.06-10.83,5.78-21.6,11.67-32.43,17.44-3.6,1.92-7.17,3.88-10.77,5.8-.45.24-.87.64-1.47.47l-12.23-7c-.39-.87.31-1.12.83-1.41,3.61-2,7.26-3.94,10.89-5.9l21.54-11.6c5.34-2.89,10.7-5.74,16-8.64A4.23,4.23,0,0,1,226.45,254.72Z" fill="#b1752b"></path><path d="M169.33,339.66c2.91,0,5.82,0,8.73,0,6.48.09,9.9,3.06,10.32,9.48a68.83,68.83,0,0,1-.17,13.23c-.59,4.6-3.3,7.44-7.93,7.83a129.75,129.75,0,0,1-21.95,0c-4.74-.41-7.58-3.51-8-8.28a71.2,71.2,0,0,1,0-13.22c.57-5.94,3.84-8.87,9.86-9,3.05-.08,6.11,0,9.17,0Z" fill="#010101"></path><path d="M249.44,370.57c-3.39-.17-6.79.21-10.18-.24-5.76-.77-8.19-2.9-8.86-8.72a61,61,0,0,1,0-13.37c.67-6.36,4.63-8.24,9.56-8.52,6.3-.35,12.62-.28,18.92,0s9.43,3.61,9.67,10.49a88.15,88.15,0,0,1-.15,11.49c-.5,5.12-3.3,8-8.37,8.61C256.51,370.73,253,370.4,249.44,370.57Z" fill="#010101"></path><path d="M273.94,356.19c0-4.13,0-8.26,0-12.39,0-3.05,1-4.11,4.07-4.21,1.84-.06,3.69,0,5.53.09,1.53.05,2.39,1.16,3.22,2.24,3.22,4.19,6.41,8.41,9.62,12.61l6.52,8.57c.33.43.66.95,1.27.78s.36-.91.36-1.37c0-7.09.05-14.18,0-21.27,0-1.3.45-1.74,1.68-1.68s2.43,0,3.64,0c.94,0,1.4.35,1.4,1.38,0,8.55,0,17.09,0,25.64,0,2.78-1.3,3.93-4.09,4-1.31,0-2.63-.05-3.93,0a5.22,5.22,0,0,1-4.73-2.31c-5.26-7-10.58-13.88-15.88-20.82l-.36-.46c-.33-.44-.72-.93-1.3-.73s-.27.85-.27,1.29c0,7,0,14.09,0,21.13,0,1.85,0,1.89-1.88,1.89-1.16,0-2.33,0-3.49,0s-1.35-.4-1.35-1.4C274,364.83,273.94,360.51,273.94,356.19Z" fill="#010101"></path><path d="M336,357.71c-3.79,0-7.58.06-11.37,0-1.29,0-1.49.46-1.28,1.52.06.33.09.67.12,1,.24,2.61,1.46,3.9,4.1,3.94,6.31.09,12.63.08,18.94.07,3.37,0,2.94.07,2.93,2.92,0,3.8.45,3.39-3.43,3.4H328.5a23.14,23.14,0,0,1-4.47-.46c-4-.76-6.48-3.11-7-7.09a52.37,52.37,0,0,1,0-15.81c.77-4.8,4-7.34,9.3-7.47,7.18-.17,14.38-.09,21.57-.15,1.19,0,1.66.47,1.57,1.67a20.84,20.84,0,0,0,0,3.06c.07,1.13-.36,1.52-1.51,1.51-6,0-11.95,0-17.93,0a16.76,16.76,0,0,0-1.74.08c-3.75.34-4.92,1.63-5,5.36,0,1,.62.89,1.24.89h22c.39,0,.78,0,1.16,0,1.13-.06,1.51.45,1.48,1.58-.11,4.66.63,4-4,4C342.11,357.73,339.05,357.71,336,357.71Z" fill="#010101"></path><path d="M220.28,308.5c-3.72-2.1-7.47-4.14-11.08-6.43-.13-.82.52-1.07,1-1.36,4.93-2.71,9.89-5.35,14.84-8q10.75-5.79,21.5-11.59c4.14-2.24,8.3-4.43,12.41-6.69a2.38,2.38,0,0,1,.95-.35c3.92,2.12,7.8,4.32,11.56,6.71-2.61,1.69-5.41,3-8.14,4.5-10,5.43-20.1,10.8-30.14,16.23C228.9,303.83,224.55,306.09,220.28,308.5Z" fill="#b38a36"></path><path d="M210.45,370.54H196.74c-2.7,0-3.71-1-3.78-3.64,0-1.21,0-2.43,0-3.64a4.11,4.11,0,0,1,2.44-4.06c7.25-3.78,14.46-7.64,21.68-11.47l1-.54a.85.85,0,0,0,.5-.95c-.09-.57-.54-.45-.9-.46h-7.58c-5.05,0-10.11,0-15.16,0-1.4,0-1.81-.49-1.72-1.78a21.89,21.89,0,0,0,0-2.92c-.07-1.15.48-1.55,1.56-1.54,9.28,0,18.56,0,27.84,0,2.88,0,3.75,1,3.75,4,0,1.12,0,2.24,0,3.35a3.84,3.84,0,0,1-2.36,3.94c-7.46,3.9-14.89,7.85-22.32,11.78-.26.14-.54.23-.79.38a.81.81,0,0,0-.45.84c.09.48.51.36.82.38s.87,0,1.31,0h21.58c1.8,0,1.91.11,1.91,1.87,0,1,0,1.95,0,2.92.08,1.14-.39,1.55-1.52,1.54C219.87,370.52,215.16,370.54,210.45,370.54Z" fill="#010101"></path><path d="M209.51,119.85c3.2-2,6.45-3.87,9.79-5.62.8-.09,1,.5,1.09,1.08a10,10,0,0,1,.08,1.89q0,25.62,0,51.25a4.15,4.15,0,0,1-.48,2.67q-5,3.12-10.18,5.89c-.58-.25-.67-.78-.74-1.32a14.25,14.25,0,0,1,0-1.6q0-25.78,0-51.57A4.14,4.14,0,0,1,209.51,119.85Z" fill="#b1752b"></path><path d="M209.51,119.85q0,27.74,0,55.47a3.16,3.16,0,0,0,.31,1.69q-4.69,3-9.62,5.56c-.71-.78-.48-1.74-.48-2.64q0-25.56,0-51.11c0-1.14-.42-2.32.17-3.43C203,123.44,206.24,121.58,209.51,119.85Z" fill="#b1772c"></path><path d="M349.68,227.12c-2.1-.41-3.74-1.79-5.57-2.73-3.92-2-7.72-4.21-11.59-6.32-7.85-4.28-15.69-8.59-23.59-12.79a90.24,90.24,0,0,0-9-4.69V190.38c.47-.42.91-.13,1.33.1,5.63,3,11.18,6.05,16.78,9.06,5.26,2.83,10.49,5.7,15.73,8.55,5,2.73,10.07,5.47,15.11,8.18.45.25,1,.4,1,1.1,0,2.8,0,5.59,0,8.38C349.87,226.21,350.08,226.72,349.68,227.12Z" fill="#b1792d"></path><path d="M188.58,189.25c-2.77,1.78-5.62,3.39-8.53,4.92-.64-.29-.68-.9-.73-1.48s0-1.26,0-1.89V144.31c0-2.34.05-4.67-.12-7,2.85-1.78,5.75-3.46,8.74-5,.71.78.48,1.75.48,2.64q0,22.42,0,44.86C188.41,183,188.27,186.1,188.58,189.25Z" fill="#b38a36"></path><path d="M349.68,227.12v-10.2c-.77-1.8-.26-3.67-.36-5.51,0-1.66-.06-3.31,0-5,0-1.28-.06-2.56,0-3.84,0-2-.06-4.05,0-6.07,0-1.47-.05-2.94,0-4.41,0-1.84,0-3.67,0-5.51,0-1.47-.06-2.93,0-4.4,0-1.83-.05-3.67,0-5.5,0-1.46,0-2.91,0-4.36,0-1-.05-2,0-3,0-1.26-.05-2.52,0-3.78s0-2.51,0-3.77,0-2.32,0-3.49c0-.54,0-1.11.47-1.5.31.44.16.94.16,1.41q0,52.76,0,105.52c0,2.2-.38,4.23-2.18,5.73-4.22-2.18-8.37-4.5-12.54-6.77q-7.54-4.1-15.09-8.19c-6.39-3.48-12.81-6.9-19.17-10.44-.89-.49-1.83-.88-2.71-1.4-.52-.31-1.18-.56-1-1.38a9.12,9.12,0,0,0,2.61-4.38,7.57,7.57,0,0,1,2.64,1.18q9.18,5,18.41,10l22.76,12.35c1.45.79,2.89,1.61,4.35,2.36,1.17.6,1.34.48,1.37-.79,0-.87,0-1.74,0-2.62,0-1.18,0-2.35,0-3.53-.05-1.44-.05-2.88,0-4.31s-.34-2.78.36-4.09Z" fill="#c18e36"></path><path d="M313.34,380.68c2.63,0,5.25,0,7.87,0,1,0,1.47.18,1.45,1.35-.05,3.06,0,3.06-3.1,3.06H307.17c-1.75,0-2.08.32-2.11,2,0,1.86.33,2.33,2.1,2.35,3.65,0,7.29,0,10.94,0s5.37,1.75,5.38,5.34a20.89,20.89,0,0,1-.15,3.63,4.21,4.21,0,0,1-4.07,3.68c-3.44.41-6.89.12-10.34.18-2.38,0-4.76,0-7.14,0-1.09,0-1.58-.3-1.55-1.49.11-3.29-.46-3,3.06-3H316.7c1.72,0,1.91-.24,1.92-2.12s-.22-2.34-1.88-2.34c-3.7,0-7.39,0-11.08,0s-5.4-1.8-5.45-5.35a12.87,12.87,0,0,1,.22-3.76,4.18,4.18,0,0,1,4-3.38c3-.11,5.92,0,8.88,0Z" fill="#020202"></path><path d="M340.16,393.28c-2.58,0-5.15,0-7.73,0-.83,0-1.18.08-1.11,1.08.16,2.5.95,3.38,3.49,3.4,4.33,0,8.65,0,13,0,1.23,0,1.74.33,1.67,1.65-.15,2.93.63,2.93-2.9,2.88-4.51-.06-9,.21-13.54-.2-4-.36-6-2.3-6.35-6.35a48.45,48.45,0,0,1,0-8.85c.35-3.68,2.49-5.93,6.2-6.05,5.15-.16,10.3-.09,15.45-.14.81,0,1.11.31,1.09,1.13-.07,3.85.48,3.23-3.05,3.26-4,0-8,0-11.95.07-2.18,0-3,1-3.11,3.18-.05.9.18,1.15,1.1,1.14,5.05,0,10.11.06,15.16-.07,1.74,0,1.67.82,1.68,2s-.06,2-1.68,1.91C345.12,393.17,342.63,393.28,340.16,393.28Z" fill="#020202"></path><path d="M260.66,393.28c-2.58,0-5.15,0-7.73,0-.93,0-1.25.19-1.18,1.18.16,2.32,1,3.28,3.34,3.3,4.32,0,8.64.06,13,0,1.34,0,1.91.29,1.83,1.77-.17,2.87.56,2.81-2.86,2.76-4.51-.06-9,.21-13.53-.2-4.13-.36-6.22-2.53-6.39-6.63-.11-2.72-.11-5.43,0-8.15.16-3.84,2.41-6.33,6.26-6.46,5.14-.18,10.3-.1,15.44-.15.83,0,1.08.33,1.06,1.14-.11,3.89.58,3.2-3.17,3.25-3.94.05-7.87,0-11.81.07-2.14,0-3,1.06-3.14,3.19-.06.93.24,1.14,1.13,1.13,5,0,10,0,15,0,1.9,0,1.9,0,1.89,1.95s0,1.9-1.84,1.9Z" fill="#020202"></path><path d="M180.05,392.17c0-2.86,0-5.73,0-8.59,0-2.15.79-2.69,2.91-2.94,3.38-.39,5.7.69,7.65,3.63,2.87,4.31,6.22,8.3,9.37,12.42.28.36.5,1,1.1.74s.23-.78.24-1.18c0-4.7,0-9.42,0-14.12,0-1.2.4-1.47,1.5-1.47,3.19,0,3.19,0,3.19,3.09,0,5.1,0,10.2,0,15.3,0,2.39-.71,3.11-3.11,3.21-.72,0-1.45,0-2.18,0a4.52,4.52,0,0,1-3.92-2c-3.48-4.66-7-9.26-10.57-13.89l-.54-.69a.6.6,0,0,0-.62-.28c-.37.08-.34.41-.34.7v3.64c0,3.74,0,7.48,0,11.22,0,1-.33,1.37-1.32,1.36-4.17,0-3.29.34-3.36-3.26C180,396.74,180.05,394.45,180.05,392.17Z" fill="#010101"></path><path d="M292.87,395c1.63,2,3.15,3.91,4.66,5.8.27.34.73.69.46,1.13a1.22,1.22,0,0,1-1.19.39h-.14c-2.58.44-4.55-.36-5.74-2.78-1.67-3.4-4.33-4.75-8.1-4.08-1.5.26-3.52-.64-4.47.34s-.21,2.87-.24,4.36c0,2.16,0,2.16-2.17,2.16-.34,0-.69,0-1,0-1.25.14-1.69-.35-1.68-1.64q.09-9.12,0-18.22c0-1.32.39-1.78,1.74-1.75,5.69.08,11.37,0,17.05.13,3.36.1,5.18,2.2,5.22,5.56,0,1.07,0,2.14,0,3.2C297.22,392.46,295.93,394.11,292.87,395Z" fill="#010101"></path><path d="M187.9,289.81c2.93-1.61,5.85-3.23,8.79-4.82q14.7-8,29.42-15.88l12.17-6.53c.3-.15.64-.27.67-.69l5.27,3.08c.16.83-.5,1.09-1,1.37q-7.77,4.17-15.52,8.36c-8.41,4.55-16.86,9-25.25,13.62-2.77,1.51-5.64,2.84-8.28,4.58a.71.71,0,0,1-.69.11A42.6,42.6,0,0,1,187.9,289.81Z" fill="#b1782d"></path><path d="M349.69,196.49v6.14c-.75.42-1.31-.14-1.87-.44-8.51-4.67-17.05-9.27-25.58-13.91-7-3.81-14-7.57-21-11.39-.51-.28-1.08-.47-1.31-1.08V170c.53-.44,1-.14,1.47.12q10.54,5.76,21.11,11.48,9.21,5,18.44,10c2.61,1.41,5.2,2.84,7.83,4.21A2.52,2.52,0,0,1,349.69,196.49Z" fill="#b38a35"></path><path d="M295.65,294.7l3.82,2.16a24.82,24.82,0,0,1-4.06,3C282,307.63,268.68,315.41,255.2,323a9.05,9.05,0,0,1-10.69-.62c0-.55.48-.69.85-.89q8.23-4.35,16.42-8.81c8.32-4.49,16.68-8.93,25-13.46,2.64-1.44,5.34-2.77,7.92-4.32A1.09,1.09,0,0,1,295.65,294.7Z" fill="#865823"></path><path d="M193.46,293c1.84-1.63,4.13-2.52,6.24-3.67,8.33-4.54,16.73-9,25.09-13.46,6.06-3.25,12.1-6.53,18.15-9.79a2.43,2.43,0,0,0,1.28-1.12,28.36,28.36,0,0,1,4.93,3c.12.83-.55,1.07-1.08,1.35-6.82,3.61-13.6,7.3-20.39,10.95-7,3.75-13.94,7.47-20.87,11.27-2.72,1.5-5.56,2.78-8.13,4.53A52.2,52.2,0,0,1,193.46,293Z" fill="#b1792d"></path><path d="M199.89,125.39a16.49,16.49,0,0,1,.28,4.32q0,26.43,0,52.86a36.72,36.72,0,0,1-4.49,2.54c-.7-.06-.8-.61-.89-1.14a10.09,10.09,0,0,1-.07-1.74q0-25.75,0-51.51a4,4,0,0,1,.47-2.66Z" fill="#b27c2e"></path><path d="M220.28,308.5c.59-1.19,1.85-1.47,2.87-2,8.52-4.61,17.09-9.15,25.63-13.73,7-3.78,14.06-7.61,21.1-11.41a2.91,2.91,0,0,1,1.62-.57,36.27,36.27,0,0,1,4.53,2.59c-.47,1.1-1.57,1.42-2.48,1.9-9.55,5.08-19.06,10.25-28.59,15.38-6.58,3.54-13.2,7-19.71,10.68Z" fill="#af8533"></path><path d="M349.68,211.38v5.54a54.74,54.74,0,0,1-7.07-3.62c-4.08-2.12-8.08-4.39-12.11-6.59-7.65-4.17-15.28-8.38-23-12.47a54.24,54.24,0,0,0-7.6-3.86v-5.82c.75-.22,1.31.26,1.89.57l18.05,9.79,15.61,8.49c4.43,2.41,8.9,4.77,13.31,7.23A2.42,2.42,0,0,1,349.68,211.38Z" fill="#b27d2f"></path><path d="M349.68,186.55c0,1.85,0,3.7,0,5.54-.7.24-1.23-.19-1.76-.48-7.27-4-14.59-7.93-21.88-11.9-6.14-3.34-12.27-6.7-18.44-10-2.31-1.24-4.59-2.54-6.91-3.76a2.3,2.3,0,0,1-.76-.66v-5.54c.75-.43,1.3.14,1.86.43,5.25,2.74,10.43,5.62,15.63,8.43l15.87,8.61,14.71,8C348.63,185.56,349.36,185.82,349.68,186.55Z" fill="#aa7f2f"></path><path d="M176.19,388.88c-.14,2.19.2,4.86-.19,7.52-.5,3.36-2.19,5.25-5.49,5.59a72.75,72.75,0,0,1-14.68,0c-3.67-.38-5.62-2.8-5.71-7-.1-4.36,0-8.74,0-13.11,0-.86.29-1.23,1.18-1.21,4.56.09,3.62-.58,3.69,3.5.05,3.3,0,6.6,0,9.9,0,2.65,1,3.61,3.59,3.63,3.11,0,6.22,0,9.33,0,2.46,0,3.43-1,3.44-3.46,0-4,.05-8.06,0-12.09,0-1.18.39-1.49,1.52-1.48,3.37,0,3.37,0,3.37,3.38Z" fill="#020202"></path><path d="M349.68,176.67v5.54c-.51.38-.92,0-1.33-.21-11.49-6.28-23-12.5-34.54-18.76-4.17-2.28-8.31-4.62-12.56-6.76-.52-.26-1.08-.47-1.31-1.08v-5.26c.5-.37.94,0,1.34.17,5.92,3.23,11.85,6.43,17.77,9.65q7.79,4.24,15.59,8.47c4.91,2.65,9.78,5.36,14.72,7.95A1.75,1.75,0,0,1,349.68,176.67Z" fill="#a0752b"></path><path d="M328.85,280.53a32,32,0,0,1-4.46,2.59,37.7,37.7,0,0,1-5.69-2.92q-16.11-8.76-32.22-17.51c-3.75-2-7.51-4.06-11.25-6.12-.64-.35-1.68-.55-1.29-1.73l4.06-2.41c2.45,1.17,4.79,2.55,7.18,3.85q11.7,6.33,23.41,12.7c6.31,3.43,12.64,6.82,18.91,10.31C328,279.59,328.67,279.82,328.85,280.53Z" fill="#d7ad4b"></path><path d="M179.17,137.31c.88.45.58,1.26.58,1.94q0,26.48,0,52.94a3.47,3.47,0,0,0,.29,2,36,36,0,0,1-4.37,2.54c-.68-.41-.71-1.11-.74-1.79-.05-1.16,0-2.33,0-3.49q0-24.74,0-49.47a7.42,7.42,0,0,1,.2-2.3A24.91,24.91,0,0,1,179.17,137.31Z" fill="#b18735"></path><path d="M349.68,211.38c-3.17-1.34-6.07-3.22-9.12-4.79-4.09-2.11-8.09-4.4-12.13-6.6q-11.15-6.09-22.32-12.18c-2-1.11-4.11-2.17-6.17-3.25v-4.67c.65-.51,1.21-.07,1.74.22,9.5,5.21,19,10.33,28.54,15.52,6,3.28,12,6.52,18.06,9.79a3.54,3.54,0,0,1,1.41,1Z" fill="#b28131"></path><path d="M273.94,254.84c.05.68.56,1,1.08,1.25l21.59,11.66,27.05,14.7a1.37,1.37,0,0,1,.73.67,25.59,25.59,0,0,1-4.07,2.32,4.48,4.48,0,0,1-2.5-1Q300.92,275.21,284,266c-4.39-2.38-8.79-4.73-13.15-7.15-.6-.33-1.44-.52-1.28-1.51Z" fill="#dcb44d"></path><path d="M200.74,214.58v5a30.23,30.23,0,0,1-5.31,3q-12.37,6.64-24.74,13.32c-5.6,3-11.22,6-16.78,9.07a11.45,11.45,0,0,1-1.83.89c-.48.17-1,.44-1.32-.31,0-1.36,0-2.72,0-4.08,0-.6.53-.76.95-1,8.34-4.35,16.57-8.9,24.87-13.34,7.43-4,14.84-8,22.28-12C199.43,214.83,200,214.34,200.74,214.58Z" fill="#e4c154"></path><path d="M349.68,176.67c-2.29-.45-4.08-1.95-6.09-3-4.31-2.2-8.51-4.6-12.76-6.92q-12.79-7-25.6-13.95c-1.74-1-3.53-1.79-5.29-2.69v-4.65c.63-.25,1.12.1,1.63.38,7.29,4,14.63,8,22,12,8.44,4.57,16.83,9.23,25.33,13.67a1.43,1.43,0,0,1,.82.78Z" fill="#9b6f2a"></path><path d="M299.94,165.3c3.37,1.37,6.42,3.39,9.65,5,4.05,2.07,8,4.36,12,6.54q12.87,7,25.77,14c.76.42,1.56.78,2.34,1.17v4.4c-2.49-.85-4.66-2.35-7-3.54-3.91-2-7.72-4.23-11.58-6.34q-11.52-6.29-23.07-12.55c-2.38-1.29-4.76-2.58-7.15-3.85a4.44,4.44,0,0,0-1-.24Z" fill="#ae8533"></path><path d="M198.68,296.05c.06-.77.72-1,1.25-1.3,5.58-3,11.19-6,16.78-9q12.42-6.69,24.81-13.41c2-1.1,4.12-2.16,6.18-3.24a2.76,2.76,0,0,0,1.45-1.15,14.34,14.34,0,0,1,3.79,2.05c.56.95-.26,1.2-.81,1.5q-5.62,3.08-11.27,6.08-12.95,6.94-25.87,13.93c-3.88,2.11-7.81,4.11-11.63,6.32a1.19,1.19,0,0,1-1.23.17A21.69,21.69,0,0,1,198.68,296.05Z" fill="#b27d2f"></path><path d="M200.71,206.13l0,4.66c-2.38,1.5-4.91,2.74-7.38,4.07C182,221,170.56,227.1,159.17,233.25c-2.17,1.18-4.32,2.42-6.56,3.47-.55.25-1.08.72-1.76.36a36.58,36.58,0,0,1-.1-3.77c-.05-.73.41-1,.94-1.32q7.09-3.87,14.22-7.68,12.81-6.9,25.63-13.81c2.56-1.39,5.14-2.73,7.69-4.14C199.67,206.11,200.14,205.73,200.71,206.13Z" fill="#eecf5d"></path><path d="M328.85,280.53c-3.39-2.16-7-3.91-10.52-5.84-8.73-4.8-17.49-9.54-26.24-14.29q-5.93-3.22-11.89-6.39a5.66,5.66,0,0,1-2.2-1.58l3.82-2.2c3.86,2,7.69,4.13,11.53,6.22q7.75,4.2,15.49,8.42c7.76,4.23,15.55,8.4,23.29,12.67a1.56,1.56,0,0,1,.78.63A25.71,25.71,0,0,1,328.85,280.53Z" fill="#d4a949"></path><path d="M297.23,241.33a2.58,2.58,0,0,0,1.4,1.2l30.15,16.37c5.24,2.84,10.52,5.62,15.74,8.49,1.12.62,2.44,1,3.23,2.12a8.62,8.62,0,0,1-3.13,2c-.73.32-1.33-.08-1.92-.4-4.85-2.64-9.72-5.26-14.57-7.91-5.2-2.83-10.38-5.68-15.59-8.48-6.07-3.26-12.1-6.59-18.17-9.83-.48-.25-1.13-.45-.95-1.24Z" fill="#c6943a"></path><path d="M349.68,251.59c0,1.46,0,2.92,0,4.38-.53.46-1,.14-1.47-.11-7-3.83-14.05-7.63-21.07-11.46q-9.19-5-18.4-10c-2.56-1.39-5.11-2.78-7.68-4.14-.43-.22-.87-.44-1-1a17.29,17.29,0,0,0-.1-2.49v-1.76c.75-.43,1.3.14,1.86.43,5.29,2.77,10.51,5.66,15.75,8.5s10.39,5.67,15.6,8.46,10.36,5.73,15.64,8.41A2.4,2.4,0,0,1,349.68,251.59Z" fill="#b77f30"></path><path d="M220,380.68c1.61-.49,2.46.53,3.27,2.09,2.41,4.64,5,9.19,7.48,13.77.22.41.31,1.07.85,1.08s.7-.7,1-1.15c2.6-4.8,5.21-9.6,7.75-14.44.52-1,1.08-1.55,2.22-1.35a3.74,3.74,0,0,0,.58,0c3.38,0,3.38,0,1.79,2.91l-8.61,15.79a5.17,5.17,0,0,1-6.84,2.6,3.61,3.61,0,0,1-1.85-1.78c-3.38-6.09-6.74-12.19-10.13-18.27-.58-1-.17-1.28.8-1.25C218.75,380.7,219.24,380.68,220,380.68Z" fill="#010101"></path><path d="M286.19,174.33a20.69,20.69,0,0,1-3.51-2,2.78,2.78,0,0,1-.46-1.94q0-26.4,0-52.8c0-.85-.1-1.78.75-2.38a13.74,13.74,0,0,1,3.84,2.5,13.09,13.09,0,0,1,.14,3.19q0,25.32,0,50.65C286.93,172.51,287.28,173.63,286.19,174.33Z" fill="#f8df65"></path><path d="M300,226.83c.49.84.11,1.75.25,2.62a3.69,3.69,0,0,1,.34,2.26,1.73,1.73,0,0,0,1.06,1.72c9.76,5.29,19.54,10.56,29.29,15.89,5.82,3.19,11.7,6.31,17.52,9.51a3.46,3.46,0,0,1,1.28.93c0,1,0,1.94.06,2.91.07,1.22-.4,1.33-1.36.81-4-2.15-7.94-4.26-11.9-6.41s-7.8-4.3-11.71-6.42q-12.25-6.68-24.52-13.31a2.19,2.19,0,0,1-.42-.39C299.88,233.58,299.91,230.21,300,226.83Z" fill="#bd8733"></path><path d="M299.94,155.4c8.15,4.37,16.32,8.72,24.45,13.13s16.49,9,24.74,13.51a3.2,3.2,0,0,0,.55.17v4.34q-11.16-6.08-22.32-12.17-7.08-3.85-14.18-7.67-6-3.21-11.91-6.39c-.42-.22-.89-.37-1.33-.56Z" fill="#a47a2d"></path><path d="M332.91,278.17c-3-1.24-5.75-3-8.62-4.48-3.94-2.05-7.81-4.27-11.71-6.4l-26.65-14.5c-1.42-.78-3-1.24-4.11-2.56l3.51-2a6.28,6.28,0,0,1,2.22,1c6.25,3.32,12.46,6.72,18.68,10.1,7.37,4,14.77,8,22.11,12,2.33,1.29,4.72,2.49,7,3.83.41.24.9.41,1.05.94A18.24,18.24,0,0,1,332.91,278.17Z" fill="#d1a446"></path><path d="M150.94,245.78c2.51-.58,4.51-2.21,6.76-3.31,3.08-1.51,6-3.28,9.06-4.91,9.56-5.14,19.14-10.24,28.69-15.39a33.85,33.85,0,0,1,5.29-2.63l0,4.08c-1.71,1.66-4,2.43-6,3.53-9.9,5.37-19.83,10.68-29.74,16q-6.15,3.33-12.33,6.6c-.53.28-1.27,1.23-1.9,0C150.87,248.46,150.52,247.1,150.94,245.78Z" fill="#e0bb50"></path><path d="M202.13,298c3-1.59,6-3.17,9-4.78s5.94-3.28,8.93-4.88q14.67-7.87,29.36-15.72c.9-.48,1.78-1,2.68-1.47.48-.25,1-.46.88-1.15a30.6,30.6,0,0,1,4.08,2.35c0,.57-.45.71-.81.9-5.23,2.79-10.43,5.61-15.64,8.41q-10.71,5.76-21.4,11.54c-4.14,2.25-8.33,4.38-12.42,6.72a1.07,1.07,0,0,1-1.1.11A19.26,19.26,0,0,1,202.13,298Z" fill="#b28031"></path><path d="M150.94,237c2.87-1.07,5.43-2.76,8.15-4.14,3.07-1.55,6-3.3,9.06-4.93l29.32-15.7c1.06-.56,2-1.4,3.27-1.48v3.79q-15,8-30,16c-6.13,3.29-12.25,6.61-18.39,9.91a14.53,14.53,0,0,1-1.46.62A9.21,9.21,0,0,1,150.94,237Z" fill="#e9c959"></path><path d="M276.54,168.82a18.28,18.28,0,0,1-3.54-2,6.33,6.33,0,0,1-.13-1.44c0-17.68,0-35.36,0-53,0-.91-.33-2,.73-2.63l3.51,2a1.9,1.9,0,0,1,.23,1.12c-.09,17.91,0,35.83-.07,53.74C277.3,167.36,277.71,168.4,276.54,168.82Z" fill="#eed05d"></path><path d="M276.54,168.82c.55-.52.3-1.2.3-1.79q0-26.5,0-53a6.77,6.77,0,0,1,.29-2.29l3.5,2.06a2.14,2.14,0,0,1,.22,1.27c-.07,17.75,0,35.49-.06,53.24,0,.87.47,2-.73,2.54A20.92,20.92,0,0,1,276.54,168.82Z" fill="#f3d760"></path><path d="M251.78,155.1a16.51,16.51,0,0,0-3.78.24,3.12,3.12,0,0,1-.2-1.57q0-26.6,0-53.19a4,4,0,0,1,.46-2.67,7,7,0,0,1,3.51-.18,2.5,2.5,0,0,1,.47,1.92q0,26.77,0,53.53A2.41,2.41,0,0,1,251.78,155.1Z" fill="#d4a848"></path><path d="M164,276.13l-3.49-2.07c-.36-.84.38-1,.83-1.24,4.94-2.7,9.91-5.35,14.87-8q12.75-6.89,25.52-13.74c3.16-1.71,6.26-3.53,9.53-5a19.31,19.31,0,0,1,3.56,2c-.19.75-.81,1.07-1.4,1.39l-16,8.6q-10.69,5.76-21.39,11.53c-2.86,1.55-5.73,3.08-8.59,4.62C166.26,274.82,165.11,275.43,164,276.13Z" fill="#c18d35"></path><path d="M349.68,251.59a60.82,60.82,0,0,1-7.64-3.87c-4-2.09-7.9-4.32-11.86-6.48-7.74-4.22-15.47-8.46-23.25-12.61a51,51,0,0,0-7-3.56v-3.79a6.48,6.48,0,0,1,2.55.95c3.11,1.73,6.28,3.37,9.41,5.07,2.71,1.47,5.39,3,8.1,4.47,3.09,1.68,6.2,3.32,9.3,5,2.71,1.47,5.39,3,8.1,4.45,3,1.63,6,3.27,9.05,4.84,1,.54,1.85,1.65,3.23,1.45Z" fill="#b47a2e"></path><path d="M164,276.13c.11-.74.77-1,1.3-1.24,5.84-3.14,11.71-6.24,17.55-9.38q14.25-7.68,28.48-15.4a16.73,16.73,0,0,0,3.49-2.05,21.59,21.59,0,0,1,3.68,2.1,59.58,59.58,0,0,1-7.58,4.3Q194,263.6,177.1,272.69c-3.28,1.77-6.5,3.68-9.91,5.23Z" fill="#bd8733"></path><path d="M150.94,237v13.11c.62.89.31,1.91.38,2.87s0,1.9,0,2.86c0,1.16,0,2.32-.05,3.48a1.59,1.59,0,0,1-.14.47.4.4,0,0,1-.39.23c0-10.4-.23-20.8.18-31.19,2.14-1.44,4.47-2.53,6.72-3.74q16.91-9.1,33.79-18.21c2.51-1.37,5.05-2.68,7.55-4.07.53-.29,1.08-.73,1.74-.22v3.5c-3,1.56-6,3.09-9,4.69s-5.85,3.23-8.8,4.81q-15.55,8.38-31.13,16.72a1.39,1.39,0,0,0-.87,1.48C151,234.9,150.92,236,150.94,237Z" fill="#f2d560"></path><path d="M349.69,206.42c-3.37-1.38-6.41-3.39-9.64-5-4.13-2.11-8.16-4.43-12.23-6.65-7.43-4.06-14.83-8.17-22.31-12.13-1.82-1-3.49-2.29-5.57-2.71v-4.08q13.17,7.11,26.35,14.22,10.15,5.49,20.31,11a14.26,14.26,0,0,0,3.09,1.57Z" fill="#b38634"></path><path d="M263.45,261a16.79,16.79,0,0,1,3.16-1.88c3.37,1.5,6.51,3.44,9.76,5.18,5.31,2.83,10.57,5.74,15.85,8.6q12,6.48,23.9,13c.52.29,1.17.56,1,1.38a12.78,12.78,0,0,1-3.2,1.7c-1.66-.28-2.95-1.37-4.37-2.14q-9.74-5.24-19.44-10.54c-7.4-4-14.86-8-22.24-12.11a38.72,38.72,0,0,1-3.7-2C263.79,261.88,263.1,261.74,263.45,261Z" fill="#e1bc50"></path><path d="M150.94,259.77V256a27.07,27.07,0,0,1,5.27-3q13.18-7.08,26.36-14.2,7.92-4.27,15.88-8.53c.67-.36,1.35-1.06,2.26-.48l0,.31a29.93,29.93,0,0,0-.08,3.28c-.86,1.2-2.28,1.59-3.48,2.24q-16.85,9.08-33.68,18.16c-3.67,2-7.35,3.94-11,5.93C152,259.91,151.47,260.21,150.94,259.77Z" fill="#d7ae4a"></path><path d="M349.68,161.8v3.8c-.55.46-1,.06-1.46-.18-7.94-4.28-15.86-8.61-23.8-12.91q-9.59-5.22-19.2-10.4a30.82,30.82,0,0,1-5.28-3.05v-3.79c.75-.43,1.31.13,1.86.43l14.46,7.83,16,8.69,17.13,9.29A1.47,1.47,0,0,1,349.68,161.8Z" fill="#916527"></path><path d="M299.94,139.06a14.05,14.05,0,0,1,3.5,1.66q12.15,6.53,24.26,13.13,10.59,5.76,21.16,11.54a3.65,3.65,0,0,0,.82.21v3.78c-.63.42-1.13,0-1.6-.29-7.23-4-14.5-7.88-21.75-11.83q-7.41-4-14.85-8c-3.55-1.9-7.05-3.88-10.62-5.76a1.72,1.72,0,0,1-.92-.88Z" fill="#956928"></path><path d="M236.61,161.43a18.87,18.87,0,0,1-3.2,1.85c-.69-.79-.46-1.76-.46-2.65q0-25.57,0-51.13a9.43,9.43,0,0,1,.13-3.18,20.4,20.4,0,0,1,3.52-2,2.37,2.37,0,0,1,.48,1.91q0,26.64,0,53.28A2.88,2.88,0,0,1,236.61,161.43Z" fill="#c18e36"></path><path d="M236.61,161.43V104.31a14.32,14.32,0,0,1,2.94-1.68c.67.08.64.63.71,1.09a15.25,15.25,0,0,1,.05,2c0,17.46,0,34.92,0,52.37a2.14,2.14,0,0,1-.22,1.27Z" fill="#c6943a"></path><path d="M336.41,276.14l-26.28-14.3c-4.94-2.69-9.92-5.29-14.82-8-3.34-1.85-6.85-3.39-10-5.61l3.43-1.95c17.08,9.32,34.14,18.68,51.33,27.8A23.87,23.87,0,0,1,336.41,276.14Z" fill="#cd9e41"></path><path d="M230.79,164.7a9.33,9.33,0,0,1-2.91,1.8c-.64-.29-.69-.88-.74-1.46s0-1.26,0-1.9q0-25.66,0-51.35a7.54,7.54,0,0,1,.2-2.17,16.9,16.9,0,0,1,3.18-1.8,1.78,1.78,0,0,1,.73,1.5,14.61,14.61,0,0,1,0,1.75q0,25.49,0,51C231.25,163,231.45,163.91,230.79,164.7Z" fill="#bc8532"></path><path d="M205.65,300c3.16-1.67,6.33-3.33,9.47-5s6.11-3.35,9.18-5l29.52-15.93,3.2-1.71a15.28,15.28,0,0,1,2.92,1.71,7.75,7.75,0,0,1-2.77,1.78c-5.78,3.15-11.61,6.21-17.41,9.33Q225,293.12,210.24,301.1a2.18,2.18,0,0,0-1,1A20.16,20.16,0,0,1,205.65,300Z" fill="#b38634"></path><path d="M349.68,161.8c-1.89-.26-3.31-1.55-4.92-2.38-3.91-2-7.72-4.23-11.58-6.33q-12.71-6.89-25.42-13.72a71.79,71.79,0,0,0-7.82-4.1v-3.78c.8-.2,1.4.31,2,.64,9.43,5.22,18.94,10.29,28.39,15.46q9.07,5,18.18,9.85a3,3,0,0,1,1.16.86Z" fill="#8d6126"></path><path d="M225.25,311.32c1-1.54,2.74-1.92,4.17-2.71,8.32-4.56,16.72-9,25.08-13.47q10.17-5.47,20.3-11c.42-.23.82-.5,1.23-.76l2.91,1.66c.18.87-.56,1-1.06,1.33-3,1.74-6.05,3.31-9.08,4.94q-13.28,7.17-26.55,14.3c-4,2.14-8,4.26-11.94,6.41-.64.35-1.22.78-1.86,1.13A17.43,17.43,0,0,1,225.25,311.32Z" fill="#aa8030"></path><path d="M211.27,246c-.66,1-1.8,1.29-2.74,1.8-5.82,3.18-11.69,6.25-17.53,9.39q-14,7.55-27.92,15.15c-.89.49-2.1.54-2.56,1.7a15.88,15.88,0,0,1-3-1.67c-.4-.95.38-1.18,1-1.48,5.48-2.92,10.95-5.89,16.42-8.83,10.47-5.64,20.93-11.31,31.44-16.88.62-.33,1.11-1,1.94-.87A14.43,14.43,0,0,1,211.27,246Z" fill="#c49238"></path><path d="M226.45,254.72a13.77,13.77,0,0,1-3.33,2c-8.35,4.53-16.74,9-25.11,13.47q-10.68,5.74-21.34,11.53c-.48.26-1,.45-1,1.12L172.49,281c-.07-.75.52-1,1-1.26,3.6-2,7.25-3.94,10.87-5.9,8.5-4.58,17-9.13,25.5-13.73,4.14-2.25,8.31-4.44,12.43-6.7.37-.21.73-.5,1.21-.34A14.4,14.4,0,0,1,226.45,254.72Z" fill="#b57b2e"></path><path d="M151.17,266.82c-.34-.34-.28-.78-.31-1.19a13.84,13.84,0,0,1-.11-2.65c0-.41.34-.54.65-.7,9.87-5.08,19.58-10.47,29.38-15.69,6-3.22,12-6.48,18.06-9.72.55-.3,1.11-.86,1.86-.42l.91,2.91a16.7,16.7,0,0,1-4.11,2.42Q187,247.38,176.62,253C168.13,257.62,159.56,262.06,151.17,266.82Z" fill="#d2a646"></path><path d="M208.32,244.33c-2.29,1.73-4.95,2.82-7.42,4.23-3.53,2-7.16,3.82-10.73,5.72q-6.45,3.43-12.89,6.89c-3.36,1.81-6.7,3.66-10.05,5.47-2.89,1.56-5.79,3.09-8.69,4.62-.49.25-1,.49-1,1.13a16.69,16.69,0,0,1-3.17-1.84c-.05-1,.78-1.17,1.37-1.48,4.3-2.25,8.55-4.59,12.82-6.89,7.26-3.89,14.51-7.82,21.78-11.72,4.48-2.4,8.94-4.87,13.47-7.2.58-.3,1.16-.77,1.89-.41A10.92,10.92,0,0,1,208.32,244.33Z" fill="#c7963b"></path><path d="M188.58,189.25c-.81-.58-.65-1.45-.65-2.26q0-26.33,0-52.65c0-.68,0-1.36,0-2a14.22,14.22,0,0,1,2.93-1.69,2.48,2.48,0,0,1,.47,1.93q0,26.9,0,53.78a11.48,11.48,0,0,1-.16,1.45A9.88,9.88,0,0,1,188.58,189.25Z" fill="#b28533"></path><path d="M261.4,102.68l2.62,1.47a3.12,3.12,0,0,1,.48,2.08q0,26.34,0,52.66c0,.87.38,2.06-1.06,2.34a8.44,8.44,0,0,1-2.33-1.41,3.19,3.19,0,0,1-.45-2.09q0-26.26,0-52.53C260.65,104.3,260.49,103.32,261.4,102.68Z" fill="#e1bc50"></path><path d="M256.15,99.76l3.21,1.76a2,2,0,0,1,.22,1.12c-.09,17.76,0,35.53-.05,53.29,0,.89.21,1.89-.8,2.48l-2.93-1.81a6.42,6.42,0,0,1-.13-1.45q0-26.37,0-52.74C255.69,101.52,255.46,100.55,256.15,99.76Z" fill="#dbb44d"></path><path d="M283.57,287.72a16.57,16.57,0,0,1,2.95,1.69c.19.92-.57,1.16-1.13,1.46-5.58,2.95-11.13,6-16.69,8.95-8.38,4.51-16.77,9-25.13,13.55-2.51,1.37-5.08,2.64-7.53,4.12l-3-1.67c-.16-.82.49-1.09,1-1.38,5-2.73,10-5.39,15-8.1q10.64-5.74,21.29-11.48C274.78,292.48,279.21,290.16,283.57,287.72Z" fill="#9f742b"></path><path d="M317.13,287.25c-.94-1.44-2.6-1.82-4-2.57-9-5-18-9.84-27.05-14.73L267.7,260c-.42-.23-.91-.38-1.09-.9l2.93-1.73c1.09,1.48,2.86,1.94,4.35,2.77,8.82,4.87,17.68,9.66,26.53,14.46,5.11,2.77,10.24,5.5,15.35,8.26,1.53.83,3,1.71,4.55,2.57A15.7,15.7,0,0,1,317.13,287.25Z" fill="#deb84f"></path><path d="M151.24,225.65a4.89,4.89,0,0,1,2.56-3.49q22.74-13.15,45.46-26.38c.41-.24.83-.45,1.45-.78v4.14a2.65,2.65,0,0,1-1.39,1.23c-7,3.66-13.86,7.43-20.78,11.15-8.16,4.4-16.34,8.77-24.48,13.21C153.19,225.2,152.37,225.91,151.24,225.65Z" fill="#f8df65"></path><path d="M151.24,225.65c4.91-2.23,9.5-5,14.28-7.51,2.89-1.49,5.7-3.11,8.56-4.66l26.63-14.34v3.49c-2.09.42-3.73,1.8-5.59,2.71-3.08,1.52-6,3.29-9.06,4.92l-28.7,15.38c-1.66.89-3.29,1.84-5,2.75a2.58,2.58,0,0,1-1.5.48A6.9,6.9,0,0,1,151.24,225.65Z" fill="#f5da62"></path><path d="M167.19,277.92c.85-1.15,2.23-1.5,3.39-2.14,5.76-3.17,11.6-6.21,17.39-9.33,8.6-4.64,17.16-9.36,25.79-13.94,1.55-.82,3-2,4.75-2.35a10,10,0,0,1,2.43,1.41c-.46,1.09-1.56,1.41-2.47,1.9-8.25,4.39-16.47,8.85-24.71,13.28q-11.14,6-22.27,12c-.47.25-.85.64-1.35.85Z" fill="#ba8332"></path><path d="M200.71,229.74c-2.51.57-4.5,2.2-6.75,3.3-3,1.48-5.94,3.24-8.92,4.85q-15.21,8.19-30.43,16.36c-1.19.64-2.44,1.16-3.67,1.73v-2.93c1-1.32,2.63-1.78,4-2.52,10.8-5.79,21.57-11.65,32.39-17.42,3.93-2.1,7.83-4.26,11.78-6.33.49-.26,1-.74,1.59-.25Z" fill="#dbb44d"></path><path d="M349.69,158.3c-3.38-1.37-6.42-3.38-9.66-5-4-2-7.82-4.27-11.73-6.41q-11.42-6.23-22.84-12.44c-1.83-1-3.68-1.95-5.52-2.93v-2.92c.5-.38.94,0,1.34.17,5.87,3.22,11.76,6.38,17.64,9.58q9.52,5.18,19,10.35c3,1.62,6,3.22,8.94,4.87a9.61,9.61,0,0,0,2.27,1,3.83,3.83,0,0,1,.63,2.35C349.76,157.33,349.72,157.82,349.69,158.3Z" fill="#8a5d25"></path><path d="M170.14,199.91l-2.63,1.49c-.68-.79-.46-1.75-.46-2.65q0-24.58,0-49.19c0-1.75,0-3.49-.07-5.24a17.3,17.3,0,0,1,3.16-1.8,2.39,2.39,0,0,1,.48,1.91q0,26.77,0,53.54A3.08,3.08,0,0,1,170.14,199.91Z" fill="#a87e2e"></path><path d="M273.63,109.69a3.29,3.29,0,0,0-.27,2q0,26.69,0,53.36c0,.59.26,1.27-.34,1.77a10.17,10.17,0,0,1-2.58-1.48,4.74,4.74,0,0,1-.17-1.59q0-26.37,0-52.76c0-1-.35-2.09.75-2.79Z" fill="#eccc5c"></path><path d="M170.14,199.91V142.52a12.55,12.55,0,0,1,2.6-1.52,2.11,2.11,0,0,1,.5,1.76q0,27.09,0,54.16a3.77,3.77,0,0,1-.19,1.29Z" fill="#ac8231"></path><path d="M195.22,128.06q0,27.66,0,55.33c0,.61-.2,1.29.48,1.72a8.34,8.34,0,0,1-2.5,1.49c-.71.3-.84-.24-1-.7a6.77,6.77,0,0,1-.11-1.74q0-26,0-52.06c0-.94-.2-2,.76-2.66A10.22,10.22,0,0,1,195.22,128.06Z" fill="#b27f30"></path><path d="M173.05,198.21a3.33,3.33,0,0,1-.28-2q0-26.58,0-53.18c0-.68,0-1.36,0-2a10,10,0,0,1,2.38-1.34c.48.49.27,1.1.27,1.66q0,26.55,0,53.11a6.26,6.26,0,0,0,.3,2.28Z" fill="#ae8533"></path><path d="M266.06,105.31l2.63,1.5a3.25,3.25,0,0,1,.47,2.09q0,26.44,0,52.91a5,5,0,0,1-.13,1.45c-.19.6-.52.94-1.18.58a6.13,6.13,0,0,1-1.82-1.05,3.5,3.5,0,0,1-.44-2.1q0-26.66,0-53.31A2.67,2.67,0,0,1,266.06,105.31Z" fill="#e6c355"></path><path d="M230.79,164.7q0-27.22,0-54.45a8.24,8.24,0,0,0-.32-2.43,9.78,9.78,0,0,1,2.6-1.5,3.78,3.78,0,0,1,.33,2.12v54.84A6.77,6.77,0,0,1,230.79,164.7Z" fill="#bf8b34"></path><path d="M240.11,159.39a6.31,6.31,0,0,1-.29-2.28q0-26.42,0-52.82c0-.56.22-1.18-.27-1.66a10.59,10.59,0,0,1,2.59-1.48c.68,0,.66.61.74,1.06a9.45,9.45,0,0,1,0,1.6q0,25.75,0,51.51a4.22,4.22,0,0,1-.47,2.67Z" fill="#c8983c"></path><path d="M200.7,236.45c-3.81,1.57-7.27,3.84-10.94,5.68-2.81,1.41-5.51,3-8.28,4.53q-14.4,7.72-28.81,15.42a3.09,3.09,0,0,1-1.76.61,5.44,5.44,0,0,1,0-2.63,2.46,2.46,0,0,0,.07-.29c1.84-.4,3.32-1.55,4.94-2.39,4.55-2.35,9-4.87,13.55-7.31,8.39-4.54,16.77-9.11,25.2-13.58a35.67,35.67,0,0,1,5.81-3c.39.84,0,1.75.23,2.6Z" fill="#d4a948"></path><path d="M283.57,287.72c-.48,1-1.55,1.31-2.41,1.78-5.69,3.11-11.44,6.13-17.15,9.21q-14.12,7.6-28.22,15.28c-.95.52-2.15.71-2.71,1.83l-2.86-1.62c0-.69.56-.86,1-1.1,7.67-4.18,15.38-8.28,23.06-12.44,8.15-4.41,16.34-8.76,24.48-13.2.85-.47,1.67-1.24,2.81-.89A6.59,6.59,0,0,1,283.57,287.72Z" fill="#a4792c"></path><path d="M286.19,174.33a3.49,3.49,0,0,0,.28-2q0-26.25,0-52.52a3.67,3.67,0,0,1,.33-2.12,5.5,5.5,0,0,1,2.29,4.87c0,17.21,0,34.43,0,51.65v1.71A10.57,10.57,0,0,1,286.19,174.33Z" fill="#f5da62"></path><path d="M153.51,209.28a11.94,11.94,0,0,1-2.8,1.54V162.07a28.84,28.84,0,0,1,.16-6.09,5,5,0,0,1,1.8-3.2c.81,0,.89.65,1,1.22a13.77,13.77,0,0,1,.06,2v51.68A3.12,3.12,0,0,1,153.51,209.28Z" fill="#885b25"></path><path d="M205.73,242.85c-2.73.92-5.09,2.58-7.64,3.86-3.2,1.6-6.29,3.42-9.45,5.12q-14.62,7.91-29.27,15.81c-1.68.91-3.61,1.44-5,2.91a4.64,4.64,0,0,1-2.07-1.7c-.09-1,.75-1.18,1.34-1.49,4.23-2.25,8.45-4.55,12.67-6.83l21.25-11.44c4.87-2.61,9.73-5.25,14.61-7.83.3-.16.6-.35,1-.19Z" fill="#ca9b3f"></path><path d="M170.14,279.59c0-.52.35-.74.76-1l11.25-6.05q13-7,25.93-14c4.31-2.32,8.68-4.49,12.86-7a9.88,9.88,0,0,1,2.58,1.48c-2.36,1.33-4.7,2.69-7.08,4-9.64,5.19-19.3,10.33-28.94,15.51-4.6,2.47-9.19,5-13.79,7.46a2.81,2.81,0,0,0-1.22,1Z" fill="#b77f30"></path><path d="M299.94,142.57q13.17,7.11,26.34,14.22,10.17,5.49,20.31,11a13.22,13.22,0,0,0,3.09,1.57v2.9c-5-2.4-9.78-5.21-14.66-7.84-5.93-3.2-11.88-6.37-17.81-9.58-4.24-2.3-8.45-4.64-12.68-7-1.52-.83-3.06-1.62-4.59-2.42Z" fill="#986c29"></path><path d="M203.16,241.07c-2.84,1.57-5.67,3.16-8.53,4.7q-14.65,7.88-29.35,15.71-5.5,2.94-11,5.93a4.64,4.64,0,0,0-1.95,1.44,2.72,2.72,0,0,1-1.16-2c.22-1,1.16-1.14,1.82-1.5,5.74-3.12,11.52-6.16,17.27-9.26,8.13-4.38,16.22-8.84,24.38-13.16a48,48,0,0,1,7-3.54Z" fill="#ce9f42"></path><path d="M295.65,294.7c-3.21,2.1-6.68,3.74-10,5.57-9.91,5.41-19.86,10.74-29.81,16.08q-5.62,3-11.29,6l-2.06-1.18c-.32-.79.34-1,.81-1.27,5-2.74,10-5.41,15-8.1l21.8-11.75c4-2.16,8.07-4.26,12.05-6.51a1.32,1.32,0,0,1,1.09-.27A9.51,9.51,0,0,1,295.65,294.7Z" fill="#8d6026"></path><path d="M263.45,261c.32.88,1.21,1.07,1.89,1.44,6.51,3.55,13.05,7,19.57,10.56q13.62,7.36,27.2,14.77c.63.35,1.21.79,1.82,1.19a6.44,6.44,0,0,1-6,0c-15.45-8.61-30.72-17.53-46.05-26.36-.12-.07-.24-.16-.44-.3A4.1,4.1,0,0,1,263.45,261Z" fill="#e4c053"></path><path d="M236,317.49c0-.52.35-.74.76-1l11.89-6.37q13.21-7.12,26.44-14.24c3.28-1.76,6.58-3.5,9.87-5.23.6-.32,1.25-.57,1.52-1.28a12.1,12.1,0,0,1,2.62,1.54,2.09,2.09,0,0,1-1.27,1.31c-5.37,2.83-10.69,5.74-16,8.61q-11.1,6-22.18,11.93c-3.76,2-7.52,4.06-11.29,6.06Z" fill="#9b6f2a"></path><path d="M200.71,226.53a2,2,0,0,0-1,.27c-4.55,2.46-9.11,4.9-13.67,7.36l-24.75,13.39c-3.45,1.86-6.93,3.67-10.39,5.5v-2.9c3.35-1.42,6.41-3.39,9.64-5,3.45-1.74,6.81-3.67,10.21-5.51l29-15.65a9.56,9.56,0,0,1,.94-.35Z" fill="#ddb64e"></path><path d="M340.09,274.05a2.72,2.72,0,0,1-1.67-.4q-11.61-6.33-23.23-12.63l-14.7-7.95-10.74-5.8a2,2,0,0,1-1-1,9.09,9.09,0,0,1,2.39-1.3c3,1.45,5.8,3.12,8.71,4.68q7.93,4.27,15.85,8.61c7.49,4.09,15,8.11,22.49,12.25,1.33.74,2.92,1.1,3.93,2.39A7.41,7.41,0,0,1,340.09,274.05Z" fill="#ca9a3e"></path><path d="M342.13,272.88c-4.86-2.59-9.73-5.17-14.58-7.78-3.83-2.07-7.64-4.18-11.47-6.26q-12-6.52-24-13a2.29,2.29,0,0,1-1-.87,9.08,9.08,0,0,1,2.27-1.33c1.12,1.37,2.83,1.82,4.28,2.62,9,5,18,9.83,27,14.72q9.13,4.95,18.28,9.87a16.39,16.39,0,0,0,1.61.65A10.35,10.35,0,0,1,342.13,272.88Z" fill="#c7973c"></path><path d="M349.17,154.5c-.44.58-.89.17-1.28,0-5.24-2.84-10.46-5.71-15.7-8.55-3.75-2-7.51-4-11.25-6.09L301.4,129.19a14.53,14.53,0,0,0-1.46-.62v-2.76a17,17,0,0,1,4.68,1.72q20.81,11.94,41.6,23.91A5.63,5.63,0,0,1,349.17,154.5Z" fill="#875a24"></path><path d="M280.07,170.84c.49-.48.27-1.1.27-1.65q0-26.56,0-53.11a6.33,6.33,0,0,1,.29-2.29L283,115.2a7.29,7.29,0,0,0-.29,2.28q0,27.42,0,54.84A11,11,0,0,1,280.07,170.84Z" fill="#f6db62"></path><path d="M238.37,318.86c0-.53.45-.7.84-.91,5.81-3.09,11.63-6.17,17.43-9.3q14.25-7.68,28.49-15.4a21.57,21.57,0,0,0,4-2.3c.74.7,1.88.69,2.57,1.48-.18.59-.72.75-1.18,1C278.32,299.91,266.21,306.55,254,313c-4.45,2.36-8.85,4.82-13.32,7.15Z" fill="#956928"></path><path d="M221.18,113.12l2-1.16c.77.1.81.75.93,1.29a9.94,9.94,0,0,1,.11,2.18q0,25.4,0,50.78a4.37,4.37,0,0,1-.44,2.68l-2,1.19c-.64-.28-.72-.87-.78-1.46s0-1.26,0-1.89V115.29A7.21,7.21,0,0,1,221.18,113.12Z" fill="#b57b2e"></path><path d="M256.15,99.76q0,27.6,0,55.21c0,.55.23,1.18-.34,1.63l-2-.93a2.67,2.67,0,0,1-.47-1.93q0-26.66,0-53.31a2.42,2.42,0,0,1,.48-1.92A9.81,9.81,0,0,1,256.15,99.76Z" fill="#d9b04b"></path><path d="M281.58,286.57c-2.38.76-4.4,2.24-6.6,3.34-3,1.51-5.94,3.24-8.92,4.85q-14.88,8-29.78,16a56.22,56.22,0,0,0-6.06,3.4,6.16,6.16,0,0,1-1.77-1.07c0-.59.44-.8.88-1l20.47-11q13.5-7.25,27-14.53c.77-.42,1.73-.68,2.18-1.59A13,13,0,0,1,281.58,286.57Z" fill="#a77d2e"></path><path d="M267.85,163.84c.4,0,.8,0,.83-.57,0-.29,0-.58,0-.88V106.81l2.33,1.37a3.41,3.41,0,0,0-.29,2q0,26.67,0,53.36c0,.6.25,1.27-.3,1.79A10.42,10.42,0,0,1,267.85,163.84Z" fill="#e8c758"></path><path d="M266.06,105.31q0,28,0,56c0,.49,0,1,0,1.46a11.72,11.72,0,0,1-2.61-1.56c.83-.38.6-1.14.6-1.79q0-27.65,0-55.29Z" fill="#e3bf52"></path><path d="M227.3,109.62c.49.49.27,1.11.27,1.66q0,26.63,0,53.24a3.53,3.53,0,0,0,.3,2,9.43,9.43,0,0,1-2.34,1.4c-.69-.79-.46-1.76-.47-2.66q0-25.43,0-50.87a22,22,0,0,0-.21-3.34A10.41,10.41,0,0,1,227.3,109.62Z" fill="#b98131"></path><path d="M162.28,204.4a7.19,7.19,0,0,1-2,1.18c-.7-.78-.48-1.75-.48-2.65q0-25.83,0-51.68a7.55,7.55,0,0,1,.16-2.88,6.61,6.61,0,0,1,2-1.16c.54,0,.6.41.69.77a5.9,5.9,0,0,1,.1,1.45q0,26.37,0,52.74A3.24,3.24,0,0,1,162.28,204.4Z" fill="#9d712a"></path><path d="M159.92,148.37a3.48,3.48,0,0,1,.31,2q0,27.61,0,55.23a7,7,0,0,1-2,1.17,2.59,2.59,0,0,1-.48-2.06q0-26.92,0-53.85a4.66,4.66,0,0,1,.16-1.29A6.94,6.94,0,0,1,159.92,148.37Z" fill="#976b29"></path><path d="M258.73,158.41a3.81,3.81,0,0,0,.34-2.13q0-26.24,0-52.47a6.57,6.57,0,0,1,.3-2.29l2,1.16a6.75,6.75,0,0,0-.3,2.28q0,27.44,0,54.86A7.1,7.1,0,0,1,258.73,158.41Z" fill="#deb84f"></path><path d="M253.83,98.51q0,28.58,0,57.16l-2-.57V97.73A3.45,3.45,0,0,1,253.83,98.51Z" fill="#d6ac4a"></path><path d="M156.73,207.59a4.51,4.51,0,0,1-1.72,1c-.85-.6-.78-1.52-.78-2.38,0-3.2,0-6.41,0-9.61q0-21.78,0-43.55a6.42,6.42,0,0,1,.13-1.45,6.2,6.2,0,0,1,2-1.17c.7,0,.69.57.77,1a10.09,10.09,0,0,1,.06,1.74q0,25.89,0,51.77A3.87,3.87,0,0,1,156.73,207.59Z" fill="#916427"></path><path d="M242.45,158q0-27.6,0-55.2c0-.55.22-1.18-.31-1.64a6,6,0,0,1,2-1.17c.69,0,.66.61.74,1.06a9.52,9.52,0,0,1,.06,1.6q0,25.76,0,51.5a4.11,4.11,0,0,1-.47,2.66Z" fill="#cc9d40"></path><path d="M244.49,156.8q0-27.59,0-55.17c0-.56.22-1.18-.31-1.65a6.06,6.06,0,0,1,2.07-1.17,1.82,1.82,0,0,1,.72,1.52,14,14,0,0,1,0,1.45q0,25.75,0,51.5c0,.93.26,2-.74,2.65Z" fill="#cea043"></path><path d="M192.88,129.44a3.07,3.07,0,0,0-.29,1.69q0,27,0,53.92c0,.54-.38,1.33.59,1.55a8.44,8.44,0,0,1-2,1.17c-.56-.51-.31-1.19-.31-1.79q0-27.69,0-55.37A6.49,6.49,0,0,1,192.88,129.44Z" fill="#b28231"></path><path d="M246.25,155.93a2.9,2.9,0,0,0,.28-1.69q0-26.64,0-53.28a8.65,8.65,0,0,0-.3-2.15,3.19,3.19,0,0,1,2-.9q0,28,0,56a2.43,2.43,0,0,1-.28,1.4Z" fill="#d0a445"></path><path d="M162.28,204.4q0-27.71,0-55.4c0-.6.25-1.27-.31-1.79A6,6,0,0,1,164,146a2.39,2.39,0,0,1,.47,1.91q0,26.78,0,53.54a3,3,0,0,1-.48,1.94Z" fill="#a0752b"></path><path d="M167,144.32c.93.27.53,1.05.53,1.59q0,27.75,0,55.49a5.21,5.21,0,0,1-1.73,1,2.4,2.4,0,0,1-.48-1.91q0-26.92,0-53.85a7,7,0,0,1,.18-1.44A4,4,0,0,1,167,144.32Z" fill="#a57b2d"></path><path d="M165.47,145.18c.53.53.28,1.2.28,1.8q0,27.71,0,55.4L164,203.43V146C164.38,145.55,165,145.51,165.47,145.18Z" fill="#a2782c"></path><path d="M224.86,111c1,.22.66,1.07.66,1.66q0,25.35,0,50.69v4.52l-1.72,1,0-48.92c0-1.94,0-3.88,0-5.82a3.27,3.27,0,0,0-.57-2.19A4.39,4.39,0,0,1,224.86,111Z" fill="#b77e30"></path><path d="M214.75,391.56c0,3.1,0,6.21,0,9.32,0,1-.29,1.41-1.31,1.4-4.28-.06-3.42.39-3.45-3.31,0-5.63,0-11.26,0-16.89,0-1.05.25-1.43,1.37-1.42,3.4,0,3.4,0,3.4,3.33Z" fill="#010101"></path><path d="M240.68,320.18a4,4,0,0,1,1.82-1.38c7.3-3.92,14.63-7.8,21.93-11.72q11.34-6.07,22.66-12.19l4.62-2.46a3.6,3.6,0,0,1,1.49.86c-3.57,2.26-7.36,4.09-11.05,6.1q-14.86,8.07-29.77,16.05c-2.89,1.56-5.8,3.1-8.7,4.66-.49.26-1.15.35-1.23,1.09Z" fill="#916527"></path><path d="M154.33,151.57c.6.49.34,1.17.34,1.77q0,26.32,0,52.64a8.31,8.31,0,0,0,.33,2.58,2.65,2.65,0,0,1-1.5.72,3.29,3.29,0,0,1-.28-2q0-26.36,0-52.7c0-.64.25-1.4-.55-1.82A3.25,3.25,0,0,1,154.33,151.57Z" fill="#8c6026"></path><path d="M221.18,113.12c.48.5.27,1.11.27,1.67q0,26.58,0,53.17a3.79,3.79,0,0,0,.34,2.12c-.61.34-1.21.69-1.81,1q0-27.59,0-55.16c0-.67.15-1.4-.7-1.73A6.48,6.48,0,0,1,221.18,113.12Z" fill="#b3782d"></path><path d="M156.73,207.59q0-27.71,0-55.42c0-.59.26-1.28-.35-1.77.46-.34.85-.82,1.49-.85.57.51.31,1.18.31,1.78q0,27.71,0,55.42A3.29,3.29,0,0,1,156.73,207.59Z" fill="#946828"></path><path d="M200.67,236.13c-.45-.83-.1-1.73-.23-2.6.16-1.15-.24-2.34.24-3.48Q200.68,233.1,200.67,236.13Z" fill="#dbb44d"></path><path d="M150.87,260.06c0,.88,0,1.75,0,2.63s0,2,0,2.94a18.91,18.91,0,0,1-.13-5.57Z" fill="#e9c959"></path><path d="M169.2,364.18c-2.62,0-5.24.06-7.86,0s-3.89-1.05-4.14-3.54a46.67,46.67,0,0,1,.07-11.45c.31-2.07,1.28-2.88,3.4-3.14,4.3-.54,8.62-.14,12.93-.24a21.18,21.18,0,0,1,4.21.19c2.41.42,3.6,1.51,3.68,3.92.11,3.4.12,6.8,0,10.19-.09,2.64-1.5,4-4.15,4.07S171.92,364.17,169.2,364.18Z" fill="#fff"></path><path d="M249.33,364.17c-2.67,0-5.34.08-8,0s-4-1.41-4.12-4.07c-.1-3.35-.09-6.7,0-10,.07-2.52,1.22-3.81,3.68-4a113.8,113.8,0,0,1,16.72,0c2.68.17,3.7,1.13,3.94,3.77a47.32,47.32,0,0,1-.09,11c-.33,2.28-1.53,3.3-3.83,3.37-2.77.1-5.53,0-8.3,0Z" fill="#fff"></path><path d="M349.69,259.76c-3.15-1.29-6-3.16-9-4.7-3.92-2-7.72-4.23-11.59-6.34q-11.53-6.3-23.09-12.56c-1.66-.9-3.33-1.79-5-2.59a1.15,1.15,0,0,1-.79-1.21c0-1,0-1.94,0-2.91q15.09,8.13,30.17,16.27c6.08,3.3,12.14,6.64,18.21,10a1.81,1.81,0,0,0,1.11.28Z" fill="#bb8432"></path><path d="M284.44,391.58c-1.75,0-3.49-.06-5.24,0-.92,0-1.16-.27-1.11-1.15.07-1.45,0-2.91,0-4.36,0-.67.14-1.17.94-1.15,3.77.07,7.55-.15,11.32.12a2.12,2.12,0,0,1,2.13,2.26,10.85,10.85,0,0,1,0,1.89,2.23,2.23,0,0,1-2.54,2.35c-1.84,0-3.68,0-5.52,0Z" fill="#fefefe"></path></svg> 