<?xml version="1.0" encoding="UTF-8"?> <svg xmlns="http://www.w3.org/2000/svg" viewBox="0 0 500 500"><g id="_Logos" data-name=" Logos"><path d="M117.08,190.88a22.37,22.37,0,0,0,4.08.55c26.07,3.32,47.62,22.09,52.65,46.48,4.43,21.45-1.8,40-18.45,55.25a60.48,60.48,0,0,1-35.22,15.54c-19.17,2-36-3.08-50.24-15.48a56.65,56.65,0,0,1-19.32-35.11,15,15,0,0,0-.58-3.65v-.6a5.31,5.31,0,0,0,0-2.38v-3a2.41,2.41,0,0,0,0-1.59v-1.39c.24-2.06.33-4.13.73-6.18A57.53,57.53,0,0,1,61.12,215.9a61.61,61.61,0,0,1,21.8-18.27,63.29,63.29,0,0,1,21.69-6.53c1.14-.12,2.29,0,3.43-.22h1.26a3,3,0,0,0,1.68,0h3.16a6.68,6.68,0,0,0,2.52,0Z" fill="#e27226"></path><path d="M116.66,190.88a3.48,3.48,0,0,1-2.52,0Z" fill="#ea9b64"></path><path d="M50,251.48a2.9,2.9,0,0,1,0,2.38Z" fill="#ea9b64"></path><path d="M50,246.91a1.42,1.42,0,0,1,0,1.59Z" fill="#e89154"></path><path d="M111,190.88a1.71,1.71,0,0,1-1.68,0Z" fill="#e89154"></path><path d="M350.91,241.28a20.68,20.68,0,0,1,5.65,1.44,6.86,6.86,0,0,1,4.22,6.26c.31,6.15-3.35,10.1-10,11a57.11,57.11,0,0,1-8.37.19c-1.72,0-3.44,0-5.15,0-.68,0-.88-.1-.85-.77.15-3.57.31-7.13.38-10.7.14-7.18.1-14.35-.32-21.52-.15-2.54-.15-2.53,2.6-2.29a64.25,64.25,0,0,0,8-.14,22.27,22.27,0,0,1,6.76.6c2.79.77,5,2.2,5.54,5.08.63,3.2-.07,6.06-2.88,8.2A16.23,16.23,0,0,1,350.91,241.28Z" fill="#474747"></path><path d="M307.18,239.66a19.37,19.37,0,0,1,2-2.15,10.82,10.82,0,0,1,11.28-1.32,7.29,7.29,0,0,1,4.09,6.19,68.58,68.58,0,0,1-.07,8.72c-.06,2.65-.13,5.3.05,7.94.08,1.23.12,1.21-1.13,1.18a19,19,0,0,0-2.62,0c-.85.12-.9-.21-.87-.86.26-5,.43-10,.28-15a8.39,8.39,0,0,0-.55-2.71,5.35,5.35,0,0,0-5.1-3.75c-3.06-.12-5.44,1.16-6.56,3.55a9.29,9.29,0,0,0-.89,4c0,4.73-.19,9.46.32,14.18.07.61-.22.54-.63.54a30.72,30.72,0,0,0-3.46,0c-.78.06-.86-.2-.79-.8a111.36,111.36,0,0,0,.41-12,99.79,99.79,0,0,0-.41-10.8c-.09-.81.14-1,1-.85a5.61,5.61,0,0,0,2.7,0c.68-.18,1-.06.94.72C307.11,237.53,307.18,238.51,307.18,239.66Z" fill="#010101"></path><path d="M232.46,260.81c-6.59,0-11.52-3.31-12.76-9-1.08-5-.42-9.74,3.49-13.58,2.88-2.83,6.65-3.28,10.58-2.85s6.71,2.15,8.38,5.48a12.25,12.25,0,0,1,1,6.29c0,.68-.41.77-1,.75-4.44-.18-8.88-.21-13.33-.15-1.33,0-2.65.1-4,.13-.41,0-.62.1-.7.53a9.08,9.08,0,0,0,7.39,10.18c3.79.68,7-.63,9.77-3,.18-.16.26-.55.62-.35s.06.42.08.64c.14,1.63-.73,2.57-2.24,3.26A16,16,0,0,1,232.46,260.81Z" fill="#010101"></path><path d="M426.2,248.33a15.44,15.44,0,0,1,1.37-6.73c2.28-4.92,7-6.93,12.88-6.26,5.38.6,8.47,3.4,9.42,8.28a21.55,21.55,0,0,1,.09,3.77c0,.61-.51.44-.85.43l-7.66-.12c-3.19,0-6.37,0-9.56.11-.72,0-.86.24-.86.86,0,3,.64,5.81,3.12,7.92,3.23,2.75,8.09,2.86,12.17.35a11,11,0,0,0,2-1.58c.12-.11.24-.28.44-.18s.15.28.14.44a3.38,3.38,0,0,1-1.88,3.29c-5.42,2.86-12.41,2.53-16.74-1.06A11.25,11.25,0,0,1,426.2,248.33Z" fill="#474747"></path><path d="M272.83,258.55c.32.95-.1,1.33-1.1,1.5a11.29,11.29,0,0,1-3.33.14,3.3,3.3,0,0,1-2.91-2.78c-.75.56-1.45,1.14-2.2,1.65a10.75,10.75,0,0,1-8.88,1.43,6.07,6.07,0,0,1-4.63-5c-.33-3.27.82-5.41,3.65-6.83a21.87,21.87,0,0,1,6.23-1.58,29.43,29.43,0,0,0,4.47-1,1.9,1.9,0,0,0,1.42-2c.07-3.16-1.23-5.47-3.64-6.34a8.41,8.41,0,0,0-8.69,2.43c-.14.19-.22.46-.41.57s-.63.34-.73-.25c-.33-1.92-.11-2.44,1.67-3.46A13.47,13.47,0,0,1,264,235.6a7.24,7.24,0,0,1,5.8,7.12c0,3.83-.13,7.67-.19,11.5,0,.66,0,1.32.09,2C269.87,258.34,270.68,258.94,272.83,258.55Z" fill="#010101"></path><path d="M212.5,257.27a5.38,5.38,0,0,0,0,3H209.8c-5.61,0-11.21,0-16.82.08-.57,0-.71-.11-.68-.62.45-7.34.5-14.68.41-22-.05-4-.23-8-.4-12,0-.63.06-.94.81-.78a9.29,9.29,0,0,0,3.75,0c.76-.17.85.19.82.79-.3,5.84-.49,11.7-.43,17.55.05,4.67.11,9.33.14,14,0,.61.16.78.81.77A119.15,119.15,0,0,0,212.5,257.27Z" fill="#010101"></path><path d="M421.48,259c.35.95,0,1.33-1,1.5a14.35,14.35,0,0,1-5.1.21c-2.91-.57-4.6-2.36-4.68-5.19-.12-4.66.25-9.32.33-14,0-.46,0-.93,0-1.39,0-1.82,0-1.82-1.94-1.69s-2,0-1.77-1.79c.06-.4.27-.37.57-.35.77,0,1.54.07,2.3.13.57,0,.72-.14.69-.66-.08-1.45-.09-2.91-.2-4.36a.87.87,0,0,1,.69-1c1.36-.5,2.69-1.06,4.15-1.64-.11,2.4-.15,4.64-.35,6.87-.07.8.19.89.88.86,1.36,0,2.73,0,4.09-.11.64,0,.76.16.77.71,0,1.47,0,1.47-1.52,1.44-1.12,0-2.24,0-3.36-.1-.82-.06-.95.24-1,1-.22,3.4-.17,6.81-.25,10.21a27.6,27.6,0,0,0,.25,6c.6,3.09,2.28,4.1,5.56,3.52C420.87,259,421.18,259,421.48,259Z" fill="#474747"></path><path d="M286,240.42a15.24,15.24,0,0,1,3.54-4,5.73,5.73,0,0,1,4.71-1.13c.45.1.71.15.55.76a11.85,11.85,0,0,0-.26,3.26c0,.59-.15.76-.81.46a5,5,0,0,0-6.94,2.47,8.2,8.2,0,0,0-.85,3.55c0,4.2,0,8.4,0,12.6,0,.62.46,1.41,0,1.8s-1.19,0-1.81,0l-2.5,0c0-.78,0-1.55.05-2.33.06-6.82.12-13.63-.07-20.45,0-1.56-.05-1.54,1.63-1.45a5.12,5.12,0,0,0,1.87-.11c.88-.27,1.09.1.93.86A13.45,13.45,0,0,0,286,240.42Z" fill="#010101"></path><path d="M376,240.79a15,15,0,0,1,3.34-4.09,5.86,5.86,0,0,1,5.05-1.36c.35.07.7.11.55.62a18.72,18.72,0,0,0-.3,3.35c-.06.54-.09.79-.8.47A5,5,0,0,0,377,242.1a9.48,9.48,0,0,0-1,4.52c0,4.29-.1,8.59.17,12.89,0,.6-.08.81-.78.75a16.71,16.71,0,0,0-2.83,0c-.73.07-.86-.15-.83-.78.3-5.39.15-10.78.16-16.17,0-2.31-.08-4.63-.17-6.94,0-.52.13-.65.63-.54a7.19,7.19,0,0,0,3.23,0c.56-.13.62.12.59.58A30.48,30.48,0,0,0,376,240.79Z" fill="#474747"></path><path d="M396,260.22a7.44,7.44,0,0,0-1.25,0c-1,.2-1.19-.12-1.09-1.05.2-2,.32-4,.34-6a150.32,150.32,0,0,0-.36-16.44c-.08-.83.12-1,1-.84a7.82,7.82,0,0,0,3.23-.05c.53-.11.7,0,.65.59-.57,6.8-.32,13.61-.25,20.42a21.24,21.24,0,0,0,.25,2.86c.08.54-.13.6-.61.58s-1.26,0-1.89,0Z" fill="#474747"></path><path d="M398.87,226.78a2.68,2.68,0,0,1-2.73,2.68,2.67,2.67,0,1,1,0-5.33A2.69,2.69,0,0,1,398.87,226.78Z" fill="#474747"></path><path d="M86.8,271.14c-.66.08-1.32.17-2,.23-.38,0-.49.31-.65.57-.91,1.48-1.8,3-2.75,4.45-2.47,3.84-1.73,7.23,2.11,10.47,3.11,2.63,7.06,3.66,11.09,4.34.56.1.88.16.82.82s-.54.49-1,.43c-4.28-.7-8.38-1.86-11.78-4.55a10.32,10.32,0,0,1-4-6.35,7.33,7.33,0,0,1,1-4.87c.77-1.4,1.68-2.74,2.52-4.11.19-.31.35-.63.55-1a20.31,20.31,0,0,1-3-.61,6.32,6.32,0,0,1-3.23-2.57,3.4,3.4,0,0,1,1.22-5c.53-.32,1.11-.55,1.66-.83a3.93,3.93,0,0,1,3.25-.19c2.56.94,3.71,2.87,3.22,5.43,0,.29-.11.59-.18.88-.24,1.07-.18,1.12,1,.84a29.09,29.09,0,0,0,3.85-1.31c.44-.21.87-.44,1.31-.64l.89-.41a8.79,8.79,0,0,0,.87-.43,15.92,15.92,0,0,0,1.89-1.26,10.08,10.08,0,0,0,1.48-1.2l.24-.16a4.24,4.24,0,0,0,.4-.31c1.09-1,1.06-1.1-.35-1.6A12.94,12.94,0,0,1,93.76,260,5.13,5.13,0,0,1,92,257.57a3.9,3.9,0,0,1-.17-2,3.6,3.6,0,0,1,1.1-1.82,5.84,5.84,0,0,1,1.68-1.13,4.2,4.2,0,0,1,2-.17,5.07,5.07,0,0,1,2.26,1.09,9.83,9.83,0,0,1,1.67,2.2,8.43,8.43,0,0,1,1,4.77c0,.5.12.65.62.63a14.47,14.47,0,0,0,3.83-.28c.37-.09.74-.16,1.11-.24a7.58,7.58,0,0,0,2-.57l1.08-.34.39-.1a3.12,3.12,0,0,0,.48-.18l.46-.22a7.75,7.75,0,0,0,.94-.39,6.66,6.66,0,0,1,.75-.52,4.11,4.11,0,0,1,.61-.25,2.53,2.53,0,0,0,.82-.37c.31-.18.55-.43.85-.61s.59-.42.92-.58.45-.26.68-.39l.31-.22a8.13,8.13,0,0,1,1-.84,17,17,0,0,0,1.66-1.51,2.73,2.73,0,0,0,1-1.55c.11-.46.21-.93.28-1.41,0-.2.06-.41.11-.61.23-.94,0-1.91.17-2.85a43.51,43.51,0,0,0,0-7.22c0-.23-.09-.45-.09-.68,0-3.74-.29-7.46-.44-11.18-.06-1.69.09-1.78,1.73-2.39,3.49-1.28,6.94-2.65,10.28-4.25q2.21-.94,4.33-2a27.33,27.33,0,0,0,3-1.76,9.58,9.58,0,0,1,1.51-1,3.44,3.44,0,0,0,.68-.44c.67-.4,1.19-1,1.85-1.41a4.11,4.11,0,0,1,1.67-1.09.28.28,0,0,1,.22.17,3.12,3.12,0,0,1-.16,1.14c-.14.48-.26,1-.37,1.45a21.87,21.87,0,0,0-.56,2.79,11.48,11.48,0,0,0-.18,2.68c0,.53,0,1.05,0,1.58a93.84,93.84,0,0,0,2,16.52c.16.64-.23,1-.77,1.24-.38.17-.75.36-1.14.5a22.67,22.67,0,0,0-2.76,1.22c-4.21,2-8.5,3.92-12.64,6.08-1.09.43-2.07,1.07-3.12,1.6-.78.44-1.58.85-2.32,1.36a7.2,7.2,0,0,0-2.07,1.93c-.41.41-.85.8-1.27,1.21l-.48.46-1,.91a2.34,2.34,0,0,1-.31.24,3.54,3.54,0,0,0-.63.44,5.63,5.63,0,0,1-.84.61,12.6,12.6,0,0,0-1.06.74,9.1,9.1,0,0,0-.81.44l-.87.55c-.15.09-.3.16-.46.24l-.93.42-.47.22-.47.23c-.24.11-.48.24-.73.34s-.71.27-1,.42c-.81.26-1.63.5-2.43.78-.3.09-.6.18-.9.25s-.83.22-1.26.3c-.83.22-1.71.14-2.54.34s-1.83,0-2.74,0c-1,.16-1.15,1.05-1.71,1.58a20.83,20.83,0,0,1-2.13,1.84c-.62.51-1.34.88-2,1.39-.64.31-1.23.71-1.89,1-.44.2-.88.4-1.3.62-.76.39-1.57.67-2.35,1A7.86,7.86,0,0,1,86.8,271.14Z" fill="#fff"></path><path d="M86.8,271.14l2.92-.86a67.4,67.4,0,0,0,6.24,5.3,58,58,0,0,0,27.2,11,54.53,54.53,0,0,0,10.37.55A59.17,59.17,0,0,0,165.3,276.4c.53-.36,1-1,1.83-.68-.75,1.26-1.53,2.52-2.25,3.8-1,1.71-2.72,2.5-4.38,3.39a61.93,61.93,0,0,1-18.91,6.37A66.89,66.89,0,0,1,127,290a58.51,58.51,0,0,1-19.21-4.32,59.87,59.87,0,0,1-14-7.86,44.22,44.22,0,0,1-6.44-5.61A1.88,1.88,0,0,1,86.8,271.14Z" fill="#e37726"></path><path d="M95.18,267.68l1.91-1.31c.81-.25,1.22.38,1.68.76a47,47,0,0,0,4.93,3.7,49.25,49.25,0,0,0,21.9,7.83,50.4,50.4,0,0,0,23.88-3.09,48.83,48.83,0,0,0,13.75-8.12,47.17,47.17,0,0,0,8.43-9.33c.33-.47.55-1.12,1.35-1.08a49.33,49.33,0,0,1-1.26,6.36,49.74,49.74,0,0,1-17.29,13.46,54,54,0,0,1-43.8,1.22,48.92,48.92,0,0,1-14.82-9.26C95.51,268.52,95,268.26,95.18,267.68Z" fill="#e58625"></path><path d="M173,257a4.9,4.9,0,0,0-1.56,1.83,42.37,42.37,0,0,1-6.8,7.74,49.84,49.84,0,0,1-24.53,11.85,55.78,55.78,0,0,1-6.73.68,49.6,49.6,0,0,1-21.09-3.52,47.72,47.72,0,0,1-12.1-7c-1-.79-1.8-1.85-3.11-2.28l2.06-1.81c.51-.13.76.25,1,.51A45.19,45.19,0,0,0,125,276.18a47.13,47.13,0,0,0,23.17-2.7,45.61,45.61,0,0,0,21.58-17,47.77,47.77,0,0,0,2.47-4.27c.25-.46.41-1.1,1.17-1.11C173.49,253.08,173.12,255.05,173,257Z" fill="#e78c25"></path><path d="M111,261.17l1-.42a5.26,5.26,0,0,1,1.87.87,33.92,33.92,0,0,0,13.87,4.26,35.14,35.14,0,0,0,24.91-7,31.53,31.53,0,0,0,12.48-20,30.56,30.56,0,0,0-3.2-20.15,30.23,30.23,0,0,0-6.28-8.27,36,36,0,0,0-45.18-3,31.46,31.46,0,0,0-13.23,20.38,30.38,30.38,0,0,0,2.92,19.81,32.4,32.4,0,0,0,9.1,10.9c.44.34,1,.59,1.11,1.24a1.92,1.92,0,0,1-1.07.4,18.37,18.37,0,0,1-5-4.17,32.72,32.72,0,0,1-8.82-19,32,32,0,0,1,1.6-14.31,33.52,33.52,0,0,1,8.68-13.32A36.2,36.2,0,0,1,125.46,200a36.63,36.63,0,0,1,22.3,3.43,5,5,0,0,1,.85.37,43.82,43.82,0,0,1,7.39,5.92,56.42,56.42,0,0,1,7.45,8.76c.19.27.35.56.52.83a39,39,0,0,1,2.52,7.13,31.35,31.35,0,0,1-1.55,19,32.86,32.86,0,0,1-9.38,13.23,37.66,37.66,0,0,1-43.45,3.74C111.62,262.13,110.89,262,111,261.17Z" fill="#eca227"></path><path d="M90.8,268.37a12.33,12.33,0,0,1-2.68,1.05,13.29,13.29,0,0,1-3,.65c.86-2.95,1.43-5.81-2.29-7.44a47.81,47.81,0,0,1-5.11-9.43A51.38,51.38,0,0,1,77.22,215,53.37,53.37,0,0,1,87,198.85a8.38,8.38,0,0,1,1.69-1.62,33.66,33.66,0,0,1,5.47-2c.17.55-.23.88-.58,1.18a43.88,43.88,0,0,0-7.21,8A48.27,48.27,0,0,0,79,219.12a42.41,42.41,0,0,0-1.84,8.44,17,17,0,0,0-.21,4.62,13.85,13.85,0,0,1-.06,3.46,20.83,20.83,0,0,0,.39,4.92,50.2,50.2,0,0,0,9.1,22c1.11,1.53,2.36,2.95,3.61,4.38C90.33,267.36,90.86,267.72,90.8,268.37Z" fill="#e37b26"></path><path d="M88.69,197.23c-1.16,1.4-2.36,2.76-3.47,4.19a52.32,52.32,0,0,0-11,27.59,46.17,46.17,0,0,0,.11,9.76A54.66,54.66,0,0,0,77.13,251a52.43,52.43,0,0,0,5.33,10.74c.19.29.4.54.33.9a11.07,11.07,0,0,0-3.35-.05c.06-.63-.43-1-.71-1.51A54.38,54.38,0,0,1,72.44,245a58.18,58.18,0,0,1-1.08-6.92,54.84,54.84,0,0,1,5.51-28.65,57.75,57.75,0,0,1,5.25-8.54,5.64,5.64,0,0,1,2-1.65A23.81,23.81,0,0,1,88.69,197.23Z" fill="#e37726"></path><path d="M167.13,275.72a5.09,5.09,0,0,0-1.95,1.1,58.23,58.23,0,0,1-15.8,7.81,55.42,55.42,0,0,1-12,2.44c-2.19.19-4.37.4-6.57.38a61.05,61.05,0,0,1-20.88-3.9,59.09,59.09,0,0,1-15.87-9.06c-1.34-1.05-2.55-2.25-3.82-3.38a1.13,1.13,0,0,1-.51-.83l2.34-.92a1.8,1.8,0,0,1,1,.69,48.44,48.44,0,0,0,15.57,10.26,50.57,50.57,0,0,0,10.22,3.29,51.82,51.82,0,0,0,8.71,1.16c1.31,0,2.64.27,4,.23a59.78,59.78,0,0,0,21.12-4.19,56.1,56.1,0,0,0,15.75-9.72c.3-.25.54-.64,1.05-.53Z" fill="#e37b26"></path><path d="M173.43,251.08a3.89,3.89,0,0,0-1.16,1.62,40.86,40.86,0,0,1-11.06,13.56,45.92,45.92,0,0,1-21.3,9.82,50.17,50.17,0,0,1-6.95.67,47.15,47.15,0,0,1-31.08-9.89,31.61,31.61,0,0,0-2.73-2.3,10.69,10.69,0,0,1,1.52-1.78,20,20,0,0,1,2.87,2.31,44,44,0,0,0,22.8,9.12,44.47,44.47,0,0,0,29.93-7.32,41.68,41.68,0,0,0,13.52-14.69,32.63,32.63,0,0,0,2.46-5.58c.15-.47.21-1.09,1-1.1A36.88,36.88,0,0,1,173.43,251.08Z" fill="#e89025"></path><path d="M95.67,265.67a9.12,9.12,0,0,1-1.93,1.25,21.43,21.43,0,0,1-3.19-3.41,46.86,46.86,0,0,1-10.46-23.29,45.62,45.62,0,0,1,3.64-25.83A48.75,48.75,0,0,1,96.2,197.63a56.13,56.13,0,0,1,4.8-3.7,1.67,1.67,0,0,0,.52-.47,45.52,45.52,0,0,1,5.47-.6c.05.56-.43.72-.8.93a48.42,48.42,0,0,0-15.47,13.8,44,44,0,0,0-7.85,19,38.93,38.93,0,0,0-.61,7.21,44.76,44.76,0,0,0,11.51,29.4c.49.56,1,1.12,1.53,1.64C95.53,265,95.84,265.27,95.67,265.67Z" fill="#e58625"></path><path d="M173.23,245.52a1.24,1.24,0,0,0-.63.87,36.3,36.3,0,0,1-1.74,4.24,41.27,41.27,0,0,1-7.85,11,42.86,42.86,0,0,1-12.88,9,45.83,45.83,0,0,1-13.27,3.73,42.49,42.49,0,0,1-8,.33,45.55,45.55,0,0,1-26-9.85,10.84,10.84,0,0,1-2.11-2.06h3.16a42,42,0,0,0,18.85,8.94,43.89,43.89,0,0,0,14.82.35,41.17,41.17,0,0,0,20-8.46,38.57,38.57,0,0,0,14.22-22.16c.14-.59.11-1.27.7-1.71a14.63,14.63,0,0,1,.59,3.34A8.27,8.27,0,0,1,173.23,245.52Z" fill="#e99424"></path><path d="M93.11,253.86a6.62,6.62,0,0,0-1,1.6c-.68.28-.86-.28-1.09-.64a38.11,38.11,0,0,1-3.94-8.74,40.68,40.68,0,0,1-2-13.4A43,43,0,0,1,88,218.24a42.34,42.34,0,0,1,8.51-13.48,46.18,46.18,0,0,1,12.28-9.36c2-1.07,4.11-1.85,6.16-2.78a.45.45,0,0,1,.46,0,29.67,29.67,0,0,1,6.31.6,5.53,5.53,0,0,1-1.95.68,44.5,44.5,0,0,0-18.07,9.54,39.56,39.56,0,0,0-13.47,24.41,38.1,38.1,0,0,0,3.53,22.65c.35.72.71,1.43,1.12,2.13C93.08,253,93.41,253.4,93.11,253.86Z" fill="#e89025"></path><path d="M148.61,203.79c-1.33,0-2.32-.86-3.47-1.29a40,40,0,0,0-10.6-2.52,36.84,36.84,0,0,0-22.1,4.88,33,33,0,0,0-7.38,5.64,32.34,32.34,0,0,0-9.37,26.1,28.63,28.63,0,0,0,2.64,10,34.86,34.86,0,0,0,8.4,11.48,26.5,26.5,0,0,1,2.57,2.14,4.41,4.41,0,0,1-2.1.61c-7.36-5.94-11.94-13.4-13.22-22.47a33.16,33.16,0,0,1,8.23-27.47c6.3-7.24,14.54-11.39,24.36-12.67a37,37,0,0,1,13.34.73,1.84,1.84,0,0,0,.52,0A38.35,38.35,0,0,1,148.61,203.79Z" fill="#ec9f27"></path><path d="M111,261.17a4.7,4.7,0,0,0,2.16,1.51A37.78,37.78,0,0,0,126.28,267a39.24,39.24,0,0,0,5.3.38,37.51,37.51,0,0,0,14.17-3,35.68,35.68,0,0,0,11.36-7.48,34.13,34.13,0,0,0,8.55-14.33,32.46,32.46,0,0,0,1.29-7.77,31,31,0,0,0-2.78-14.31,2.9,2.9,0,0,1-.2-1.16,48,48,0,0,1,4.56,8,1.51,1.51,0,0,1,.08.48,36.49,36.49,0,0,1,.47,5.8A34.33,34.33,0,0,1,160,256.69a37,37,0,0,1-21.84,12c-10.68,1.8-20.55-.2-29.37-6.32a1.35,1.35,0,0,1-.38-.33Z" fill="#ec9f27"></path><path d="M172.39,239.75a42,42,0,0,1-4.56,12.38,43.1,43.1,0,0,1-5.46,7.35,39.79,39.79,0,0,1-10.11,7.91,42,42,0,0,1-13.76,4.8,44.51,44.51,0,0,1-7.26.64A43.15,43.15,0,0,1,114,269.31a47.46,47.46,0,0,1-9.24-5.38c-.4-.3-.88-.57-.94-1.14l2.53-.35a38.34,38.34,0,0,0,19,7.93,40.16,40.16,0,0,0,27.27-5.56A36.85,36.85,0,0,0,169.87,241a42.55,42.55,0,0,0,.77-5.4c0-.38,0-.81.49-1A20.57,20.57,0,0,1,172.39,239.75Z" fill="#eb9825"></path><path d="M115.4,192.66H115a4.66,4.66,0,0,1-2.31.28c-.92-.21-1.58.33-2.33.68a46.07,46.07,0,0,0-8.49,5.1,44.85,44.85,0,0,0-11.64,12.9,41.66,41.66,0,0,0-5,12.17,46,46,0,0,0-.94,6.17,36.07,36.07,0,0,0-.17,4.76,42.07,42.07,0,0,0,4.36,17.43,45.07,45.07,0,0,0,8.33,11.73.85.85,0,0,1,.3.51,3.74,3.74,0,0,1-1.46,1.27c-1.52-1.71-3.13-3.36-4.5-5.19a45.09,45.09,0,0,1-7.81-16.3,50.25,50.25,0,0,1-1.23-8.29,44.67,44.67,0,0,1,11.31-32.11A48.43,48.43,0,0,1,106,193.6c.34-.2.77-.34,1-.74a53,53,0,0,1,8.16-.35C115.24,192.51,115.32,192.61,115.4,192.66Z" fill="#e68a25"></path><path d="M96.68,252.65a5.94,5.94,0,0,0-2.1.2A34.75,34.75,0,0,1,91,245,36.28,36.28,0,0,1,90.67,223a38.29,38.29,0,0,1,8.74-15.46,42.35,42.35,0,0,1,12.08-9.11,48.63,48.63,0,0,1,14.42-4.41,21.41,21.41,0,0,1,6.11,1.58c-.26.54-.8.42-1.28.47-2.05.2-4.12.23-6.15.58a39.86,39.86,0,0,0-21.81,10.93A35.75,35.75,0,0,0,92,229a34.41,34.41,0,0,0,3.78,20.93c.29.56.61,1.12.88,1.69C96.8,252,97,252.3,96.68,252.65Z" fill="#eb9825"></path><path d="M95.18,267.68a26,26,0,0,0,5.51,4.66A53.11,53.11,0,0,0,121.38,281a41.32,41.32,0,0,0,6,.73c1.32.06,2.64.16,4,.16a53.94,53.94,0,0,0,19.53-3.74A51.06,51.06,0,0,0,163.58,271a45.37,45.37,0,0,0,7.41-7.11,1,1,0,0,1,.76-.46,22,22,0,0,1-1.26,4.17,48.86,48.86,0,0,1-9.37,7.6,54.52,54.52,0,0,1-23.05,8.3,55.29,55.29,0,0,1-28.41-3.9,56,56,0,0,1-15-9.25,3.88,3.88,0,0,1-1.41-1.57Z" fill="#e48325"></path><path d="M125.91,194.06c-.7.77-1.73.59-2.61.74a41.86,41.86,0,0,0-18.26,8,38.6,38.6,0,0,0-11.68,14,35.44,35.44,0,0,0-3.66,13,15.27,15.27,0,0,1-.33,2.83,10,10,0,0,0,.2,3.35A37,37,0,0,0,90.69,243a39.22,39.22,0,0,0,3.41,8.6,2.27,2.27,0,0,1,.48,1.29l-1.47,1c-.86-1.94-2-3.77-2.75-5.76a42.93,42.93,0,0,1-2.55-9.95,34.3,34.3,0,0,1-.3-4.61,37.34,37.34,0,0,1,.8-7.94,42.72,42.72,0,0,1,3.52-10,40.58,40.58,0,0,1,5.37-8A42.72,42.72,0,0,1,113,196a39.38,39.38,0,0,1,8.71-2.74A28.3,28.3,0,0,1,125.91,194.06Z" fill="#e99324"></path><path d="M93.3,268.75a75.67,75.67,0,0,0,6.9,5.44,58.43,58.43,0,0,0,12,6.14A53.89,53.89,0,0,0,122.73,283a50.82,50.82,0,0,0,10.31.65,56.36,56.36,0,0,0,22.65-5.71,54.39,54.39,0,0,0,10.75-7c1.12-.94,2.18-1.94,3.27-2.93.23-.2.42-.45.78-.44l-1.05,3a86.5,86.5,0,0,1-7,5.43,54.23,54.23,0,0,1-11.26,5.66,52.28,52.28,0,0,1-14.06,3.23,47.27,47.27,0,0,1-6.93.37c-3-.19-5.92-.43-8.86-.9A55,55,0,0,1,106,279.41a49.25,49.25,0,0,1-11.16-7.27c-1-.87-1.88-1.84-2.79-2.78A2.42,2.42,0,0,1,93.3,268.75Z" fill="#e47f26"></path><path d="M90.8,268.37a72.14,72.14,0,0,1-5.94-7.5,53.8,53.8,0,0,1-6.14-13,63.12,63.12,0,0,1-2-8.75c-.33-2.17.08-4.37-.08-6.55a35.09,35.09,0,0,1,1.52-11.92,54.52,54.52,0,0,1,3.2-8.56,53.84,53.84,0,0,1,7.21-11,25.41,25.41,0,0,1,4.61-4.66,2.68,2.68,0,0,0,.94-1.17,12.68,12.68,0,0,1,3.15-.8c.28.44-.08.68-.36.92a59.59,59.59,0,0,0-5,4.62,50.15,50.15,0,0,0-9,13,45.12,45.12,0,0,0-4.1,13.51,48.9,48.9,0,0,0-.43,9.68,50.65,50.65,0,0,0,2.13,11.71,48.55,48.55,0,0,0,9.92,17.47c.44.51.87,1,1.35,1.52.23.23.53.48.27.86Z" fill="#e47f25"></path><path d="M140.43,199c-.6.5-1.22,0-1.77-.07a38,38,0,0,0-9.57-.69,38.9,38.9,0,0,0-21.15,7.7A35.29,35.29,0,0,0,97.53,218.3a33.7,33.7,0,0,0-1.72,26.36,34.22,34.22,0,0,0,7.81,12.53c.95,1,2,1.82,3,2.76.26.26.61.47.6.89a1.25,1.25,0,0,1-1,.2c-.52.18-.86-.13-1.19-.43a54.89,54.89,0,0,1-4.82-5l-1.47-1.93a35.78,35.78,0,0,1-6-14.82,34.35,34.35,0,0,1,2.84-20.18,37.18,37.18,0,0,1,18.63-18.25,39.78,39.78,0,0,1,14.11-3.57c2.57-.18,5.09.07,7.64.12A20.18,20.18,0,0,1,140.43,199Z" fill="#ec9c26"></path><path d="M136,197a3.84,3.84,0,0,1-2.45.17,29,29,0,0,0-8.22.29,37.63,37.63,0,0,0-12.46,3.93A38.27,38.27,0,0,0,102,209.78a35.6,35.6,0,0,0-5.21,7.27,36.49,36.49,0,0,0-3.66,10.8,35.37,35.37,0,0,0-.37,7.89A33,33,0,0,0,96,248.42a23.38,23.38,0,0,0,2.48,4.37,1.13,1.13,0,0,1,.24.94,8.74,8.74,0,0,0-2.08-1.08,1.79,1.79,0,0,0-.39-1.11,35.88,35.88,0,0,1-4.37-11.91,36.24,36.24,0,0,1,4.24-23.94,37.69,37.69,0,0,1,7.45-9.24,40.26,40.26,0,0,1,22.62-10.23c1.66-.16,3.33-.29,5-.39a3.72,3.72,0,0,0,.8-.19A16.7,16.7,0,0,1,136,197Z" fill="#eb9b26"></path><path d="M171.13,234.58a9.05,9.05,0,0,0-.4,2.72,34,34,0,0,1-2.63,10.13,35.17,35.17,0,0,1-6.53,10.32,40.57,40.57,0,0,1-10.22,8.14,41.1,41.1,0,0,1-13,4.55c-1.74.29-3.51.41-5.28.54a41,41,0,0,1-25.84-7.49c-.38-.26-.82-.53-.88-1.05.43,0,.81-.31,1.26-.23,1.55.89,3,2,4.57,2.79a40.48,40.48,0,0,0,36.38.8,36.69,36.69,0,0,0,16.3-15,34.42,34.42,0,0,0,4.54-14.44c.11-1.25.16-2.5.18-3.76,0-.44-.08-1,.49-1.21A10.35,10.35,0,0,1,171.13,234.58Z" fill="#eb9b26"></path><path d="M101.52,193.46c-.09.59-.59.87-1,1.18a49.3,49.3,0,0,0-13.84,14.77,47.24,47.24,0,0,0-6.09,16,40.43,40.43,0,0,0-.67,10.64A47.37,47.37,0,0,0,86,256.44a46.77,46.77,0,0,0,6.54,8.9,5,5,0,0,1,1.23,1.58l-.84.44a2.7,2.7,0,0,1-1.3-1,48.87,48.87,0,0,1-12.41-24.82,36.93,36.93,0,0,1-.76-11.23,65.37,65.37,0,0,1,1.95-10.13A50.33,50.33,0,0,1,99,194.05Z" fill="#e48225"></path><path d="M170.08,231.4a2.1,2.1,0,0,0-.22,1.25,35.37,35.37,0,0,1-9.3,24.57,37.79,37.79,0,0,1-12.69,9.2,39.51,39.51,0,0,1-12.61,3.36,40.2,40.2,0,0,1-22.16-4,18,18,0,0,1-5.48-3.56,1.22,1.22,0,0,1,.81-.21c.72-.1,1,.5,1.49.81a38.44,38.44,0,0,0,15.64,5.78,39.79,39.79,0,0,0,19.51-2.06,37.68,37.68,0,0,0,10.67-6.15,34.84,34.84,0,0,0,8.9-10.63,30.94,30.94,0,0,0,3.77-11.54,36.39,36.39,0,0,0,.39-5.31c-.05-1.34-.21-2.68-.38-4,0-.39.17-.7.19-1.06Z" fill="#ec9c26"></path><path d="M99,194.05c-.25.77-1,1.09-1.57,1.55a51.77,51.77,0,0,0-12.06,13.82A49.33,49.33,0,0,0,79.72,224c-.35,1.63-.4,3.36-.78,5a24.48,24.48,0,0,0-.28,6.66,51,51,0,0,0,1,6.47,44,44,0,0,0,5.08,14.28,50,50,0,0,0,8.2,10.95l-.84.38a24.25,24.25,0,0,0-2.58-3.07A52.51,52.51,0,0,1,81.75,252a47.85,47.85,0,0,1-3.31-12,41.74,41.74,0,0,1-.46-8,49,49,0,0,1,6.32-22.32,51.41,51.41,0,0,1,7.62-10.13A48.69,48.69,0,0,1,97,195.05a.75.75,0,0,0,.32-.6A3.43,3.43,0,0,1,99,194.05Z" fill="#e48225"></path><path d="M341.39,249.07c0-1.92,0-3.84,0-5.75,0-.36-.09-.76.53-.74,3,.08,6.09,0,9,.85a6.1,6.1,0,0,1,4.78,5.72c.47,5.37-3.32,9.3-9,9.31-1.47,0-2.93,0-4.4-.17-.55-.05-.68-.22-.7-.71-.08-2.84-.2-5.67-.3-8.51Z" fill="#fff"></path><path d="M341.66,235.09c0-2.47,0-5,0-7.43,0-.32-.05-.62.49-.67a22.06,22.06,0,0,1,8,.3,5.81,5.81,0,0,1,4.46,6.65c-.41,3.5-2.69,5.63-6.78,6.38a34.78,34.78,0,0,1-5.86.31c-.56,0-.61-.25-.61-.67,0-1.62,0-3.25,0-4.87Z" fill="#fff"></path><path d="M231.48,245.93c-2.14,0-4.27,0-6.4-.14-.67,0-.69-.24-.61-.77.45-2.72,1.32-5.22,3.77-6.94a6.35,6.35,0,0,1,9.26,2.11,12.72,12.72,0,0,1,1.14,5c0,.51-.19.56-.66.59C235.81,246,233.65,245.91,231.48,245.93Z" fill="#fff"></path><path d="M438.26,245.94c-2.13,0-4.27,0-6.4-.14-.41,0-.69-.06-.6-.54.43-2.52,1.15-4.9,3.22-6.72a6.4,6.4,0,0,1,9.9,1.7,13.11,13.11,0,0,1,1.12,4.9c.05.46-.11.62-.63.66C442.67,246,440.46,245.91,438.26,245.94Z" fill="#fff"></path><path d="M265.33,247.6c0,2.42,0,4.85,0,7.28a1,1,0,0,1-.21.54,7.53,7.53,0,0,1-6.21,3.3,4.61,4.61,0,0,1-4.63-5.05c.13-2.23,1.41-3.57,3.49-4.38a38,38,0,0,1,6.08-1.38Z" fill="#fff"></path><path d="M113.51,260.05l1-.49c1.58.69,3.07,1.56,4.72,2.13a35.63,35.63,0,0,0,9.59,2.06c10.47.63,19.26-2.79,26.3-10a28.53,28.53,0,0,0,8-16.85,28,28,0,0,0-3.17-17A30.88,30.88,0,0,0,142.36,205a32.12,32.12,0,0,0-11.4-1.94,33.06,33.06,0,0,0-20.38,7.1,29.14,29.14,0,0,0-11.22,19.08c-1.3,8.85,1.21,16.77,7.18,23.71a28.34,28.34,0,0,0,5.41,4.83c.39.27,1,.5.71,1.16l-1,.44a31.29,31.29,0,0,1-14-23.42,30.1,30.1,0,0,1,3.09-16.09,31.09,31.09,0,0,1,5-7.22,33,33,0,0,1,11.33-8,33.37,33.37,0,0,1,10.15-2.71,34.79,34.79,0,0,1,17.06,2.24,32.33,32.33,0,0,1,16.1,13.38,30.62,30.62,0,0,1,4,10.38,29.26,29.26,0,0,1,.23,9.66,31.06,31.06,0,0,1-8,16.78,32.58,32.58,0,0,1-11,7.83,34.25,34.25,0,0,1-10.75,2.88,35.45,35.45,0,0,1-19.78-3.63C114.46,261.13,113.61,260.94,113.51,260.05Z" fill="#eda628"></path><path d="M116.66,256.6c-.39.15-.58.59-1,.63a28.07,28.07,0,0,1-9.63-9.12,25.72,25.72,0,0,1-4.27-16.7c.86-9.42,5.6-16.71,14.08-21.77a27.48,27.48,0,0,1,11.61-3.84c11.86-1.08,21.44,2.83,28.3,12.15a24.94,24.94,0,0,1,4.92,17.6c-1,10.25-6.3,17.93-16,22.76a29.18,29.18,0,0,1-13.24,3,31.25,31.25,0,0,1-11.68-2.08,10.2,10.2,0,0,1-1.6-.76c-.32-.19-.67-.41-.41-.87l.84-.6a30.39,30.39,0,0,0,7.65,2.4c9.31,1.42,17.45-.86,24.33-7a24.54,24.54,0,0,0,8.2-14.86c1.3-8.43-1.12-15.84-7.31-22.11A28.87,28.87,0,0,0,120.85,209,26.46,26.46,0,0,0,106,222.15c-4.06,8.2-3.7,16.35.89,24.31a27.75,27.75,0,0,0,9.1,9.19C116.37,255.87,116.91,256,116.66,256.6Z" fill="#eeac2a"></path><path d="M115.81,258.8a1.42,1.42,0,0,1,.76-.41,1,1,0,0,1,.79.17,30.55,30.55,0,0,0,15.72,3.16,30.06,30.06,0,0,0,17.68-6.82,26.91,26.91,0,0,0,10.14-18.18,26.51,26.51,0,0,0-7.29-21.95,29.45,29.45,0,0,0-19.12-9.35A30.75,30.75,0,0,0,118,208a28.43,28.43,0,0,0-14.89,15.49,25.34,25.34,0,0,0-1.93,9.9,27.23,27.23,0,0,0,6.5,17.67,28.78,28.78,0,0,0,6.25,5.54c.42.27,1.08.47.8,1.19-.25.19-.47.44-.85.38a3,3,0,0,1-1.19-.59,29.24,29.24,0,0,1-12.64-19.35A27.24,27.24,0,0,1,101,225a29,29,0,0,1,7.89-12.61,31.76,31.76,0,0,1,16-8.07,38.28,38.28,0,0,1,6.34-.51,30.91,30.91,0,0,1,19.38,6.24,28.24,28.24,0,0,1,11.76,19.49A27.72,27.72,0,0,1,155.82,252c-5.52,6.56-12.79,10.22-21.65,11.09A32.66,32.66,0,0,1,116.78,260C116.31,259.73,115.53,259.63,115.81,258.8Z" fill="#eeaa29"></path><path d="M119.36,256.38l1.08-1a19.81,19.81,0,0,0,7.27,2.12A25.85,25.85,0,0,0,142,255.49c8.06-3.73,13.07-9.76,14.46-18.19a22.37,22.37,0,0,0-3.5-16.66,23.89,23.89,0,0,0-5.86-6.18c-.3-.22-.57-.48-.87-.71l0,0a26.63,26.63,0,0,0-7.21-3.4c-9.1-2.46-17.4-1.08-24.69,4.78a22.43,22.43,0,0,0-8.73,15.67,22.79,22.79,0,0,0,6.28,18.74,30.38,30.38,0,0,0,5.9,4.74c.33.21.93.29.71.91-.35.28-.59.68-1,.83a29.88,29.88,0,0,1-9.49-8.7A24.74,24.74,0,0,1,104,236.19a23.44,23.44,0,0,1,2.86-14.5,26.31,26.31,0,0,1,18.91-13.55,27.63,27.63,0,0,1,21.42,4.31,25.14,25.14,0,0,1,11,16.74,23.9,23.9,0,0,1-3.75,18A26.61,26.61,0,0,1,135.74,259a29,29,0,0,1-14.46-1.37C120.58,257.39,119.6,257.35,119.36,256.38Z" fill="#efb02b"></path><path d="M118.55,255.21c-.36-.66-1.12-.85-1.7-1.23-6.13-3.95-10.07-9.33-11.25-16.23A22.92,22.92,0,0,1,111,218a25.49,25.49,0,0,1,15-8.56,27.5,27.5,0,0,1,15.36,1.46,24.34,24.34,0,0,1,4.21,2.19c.3.19.61.34.7.69l-1.68,1.14a1.56,1.56,0,0,1-1.16-.35c-7.32-4-14.93-4.46-22.51-1s-12,9.43-13,17.43c-.86,6.77,1.37,12.66,6.16,17.7a22.65,22.65,0,0,0,5.52,4.08c.35.19.94.29.67.91A6.51,6.51,0,0,1,118.55,255.21Z" fill="#efb22b"></path><path d="M114.77,257.83c0-.43-.36-.61-.68-.82a27.12,27.12,0,0,1-12.69-18.69,26.85,26.85,0,0,1,6.35-22.88,30.22,30.22,0,0,1,20.14-10.29,33,33,0,0,1,12.4,1.09,30.82,30.82,0,0,1,9.5,4.71A28.13,28.13,0,0,1,158.36,221a27.59,27.59,0,0,1-.46,25.79,28.46,28.46,0,0,1-12.12,11.67,30.52,30.52,0,0,1-10.25,3.27,31.87,31.87,0,0,1-16.67-2.18,13.81,13.81,0,0,1-2.29-1.19l1.13-.78c0,.46.37.6.72.76A28.67,28.67,0,0,0,129.69,261a31.18,31.18,0,0,0,12.6-2,29.83,29.83,0,0,0,11.17-7.64,26.42,26.42,0,0,0,6.66-13.66,26,26,0,0,0-1.79-14.66A27.56,27.56,0,0,0,150.84,213a29.24,29.24,0,0,0-15.29-6.8,30.55,30.55,0,0,0-17.19,2.43,28.21,28.21,0,0,0-9.51,7A27.15,27.15,0,0,0,102.72,227a26.34,26.34,0,0,0-.6,9.61,26.61,26.61,0,0,0,6,14.11,29.12,29.12,0,0,0,6.67,5.82c.29.19.72.3.77.74C115.34,257.44,115.17,257.78,114.77,257.83Z" fill="#eeaa29"></path><path d="M121.93,247.14a9.22,9.22,0,0,1-.22,3,4.26,4.26,0,0,0-1.42-1.41c-6-4.1-8.93-9.61-8.51-16.62.52-8.65,8.25-16,17.45-16.86a21.75,21.75,0,0,1,9.45,1.32,4,4,0,0,1,2,1.19,15,15,0,0,1-3,1.76,1.55,1.55,0,0,1-1.3,0c-6-1.68-11.48-.77-16.1,3.31a13.76,13.76,0,0,0-4.64,8.88,14.6,14.6,0,0,0,3.94,11.91,14.21,14.21,0,0,0,1.56,1.33c.34.27.77.47.9.93A4.12,4.12,0,0,1,121.93,247.14Z" fill="#f2be2f"></path><path d="M145.08,219.09a9.19,9.19,0,0,1,.62-2.78c.63-.27,1,.17,1.36.48A22.62,22.62,0,0,1,155,232.93a20,20,0,0,1-1.81,8.9c-3.61,8.11-10.11,12.67-19.29,13.91a23.24,23.24,0,0,1-10.63-1.16c-.45-.15-1-.24-1.17-.74a5.12,5.12,0,0,1,2.14-2,1.33,1.33,0,0,1,.81.07c7.5,2.08,14.24.68,20-4.2a17.91,17.91,0,0,0,6.44-11.82c.79-6.29-1.3-11.66-5.89-16.2C145.42,219.51,145.26,219.29,145.08,219.09Z" fill="#f0b72b"></path><path d="M120.25,253.69c0-.37-.33-.46-.61-.61-6.29-3.34-10.26-8.39-11.7-15-1.55-7.13.25-13.56,5.25-19.17a23.14,23.14,0,0,1,15.21-7.68,24.09,24.09,0,0,1,15.49,3.32c.23.14.48.26.72.39a8.73,8.73,0,0,1-1.84,1.41.73.73,0,0,1-.68-.16,22.44,22.44,0,0,0-24.8,2,19.33,19.33,0,0,0-7.31,13.4c-.65,6.27,1.55,11.58,6,16.14a19.09,19.09,0,0,0,4.41,3.18c.47.27,1.15.47.93,1.23C121.35,252.88,120.77,253.27,120.25,253.69Z" fill="#f0b72b"></path><path d="M124.63,239.19a10.33,10.33,0,0,1-.16-2.35c-.08-1.81-.13-3.62-.19-5.42.48-.65.82-1.38,1.34-2a7.22,7.22,0,0,1,7.68-2.32,7,7,0,0,1,4.92,6.26c.37,4.42-5.36,8.74-10.44,6A9.13,9.13,0,0,1,125,236.7C124.77,237.51,125.23,238.42,124.63,239.19Z" fill="#f7d139"></path><path d="M115.81,258.8c0,.46.37.6.72.76a34.3,34.3,0,0,0,11.76,3.27,32.18,32.18,0,0,0,17.86-3.46,30.58,30.58,0,0,0,8.21-6.17,28.8,28.8,0,0,0,7.15-12.8,27.11,27.11,0,0,0,.07-13.51,28.63,28.63,0,0,0-6.35-12.23A32.52,32.52,0,0,0,133.15,204a33,33,0,0,0-18.6,4.52A29.36,29.36,0,0,0,102,223a27.29,27.29,0,0,0-2,10.12,28,28,0,0,0,2.17,11.19,27.45,27.45,0,0,0,5.81,8.85,60.72,60.72,0,0,0,6,5c-.2.08-.32.35-.6.23a1.1,1.1,0,0,1-.95-.31c-7.73-5.47-12.19-12.74-13.18-21.82a28.11,28.11,0,0,1,4.87-19.12A31,31,0,0,1,120,205a33.45,33.45,0,0,1,21-.43,32,32,0,0,1,12.26,6.89,30.35,30.35,0,0,1,6.62,8.39,28.75,28.75,0,0,1,3.23,10.51,28.11,28.11,0,0,1-2.2,14.47,30.5,30.5,0,0,1-17.48,16.67,33,33,0,0,1-24.82-.08,17.22,17.22,0,0,1-3-1.39c-.28-.18-.63-.31-.73-.67Z" fill="#eda728"></path><path d="M116.66,256.6c-.48-.92-1.55-1.15-2.32-1.72-5.91-4.43-9.67-10-11-17.11A24.49,24.49,0,0,1,106.32,221a26.78,26.78,0,0,1,11.58-11,29,29,0,0,1,24.7-.87,27.87,27.87,0,0,1,10,7.05A25.49,25.49,0,0,1,158.94,229a25.41,25.41,0,0,1-5.59,20.93,27.68,27.68,0,0,1-10.63,7.86,31.44,31.44,0,0,1-9.89,2.3,30,30,0,0,1-12.06-1.83,4.53,4.53,0,0,1-2.23-1.21.87.87,0,0,1,.6-.45,21.24,21.24,0,0,0,7.73,2.4A28.18,28.18,0,0,0,150.09,252,24.66,24.66,0,0,0,158.22,237a23.79,23.79,0,0,0-5.28-19,26.63,26.63,0,0,0-17.23-9.88,27.64,27.64,0,0,0-21.14,5,24.86,24.86,0,0,0-10.46,17,24,24,0,0,0,5.54,19.24,27.56,27.56,0,0,0,6.92,6c.31.19,1,.25.72.89A1,1,0,0,1,116.66,256.6Z" fill="#eeae2b"></path><path d="M145.08,219.09a9.39,9.39,0,0,1,3.29,3.37,18.87,18.87,0,0,1,3.25,7.54,18.07,18.07,0,0,1-1.26,11,19.31,19.31,0,0,1-10.69,10.38,20.34,20.34,0,0,1-15.46.46,8.23,8.23,0,0,1,2.35-1.37c1-.28,2,.14,3,.21a18.67,18.67,0,0,0,13.17-3.85,16.44,16.44,0,0,0,6.5-10.66,16.13,16.13,0,0,0-3.59-13.25,4.58,4.58,0,0,1-.76-1.06A10.06,10.06,0,0,1,145.08,219.09Z" fill="#f1bc2e"></path><path d="M121.88,245.72c-2.38-1.32-3.81-3.42-5.12-5.61a12.62,12.62,0,0,1-1.64-6.56,13.87,13.87,0,0,1,2.1-7.54,15.57,15.57,0,0,1,11.19-7.37,16,16,0,0,1,8.14.62,2.4,2.4,0,0,0,1.11.22,27.12,27.12,0,0,1-4.15,2.05c-7.73-1.19-14.24,3.46-15.11,10.86a10.81,10.81,0,0,0,3,9,1.88,1.88,0,0,1,.6,1.52A11.67,11.67,0,0,1,121.88,245.72Z" fill="#f2c332"></path><path d="M114.9,259.38a32.3,32.3,0,0,0,11.86,4,34.26,34.26,0,0,0,7.51.11,33.4,33.4,0,0,0,11.67-3.26A30.58,30.58,0,0,0,157,251.12a28.94,28.94,0,0,0,5.75-13.63,28,28,0,0,0-2.54-16.37A30.65,30.65,0,0,0,144.3,206a31.75,31.75,0,0,0-9.65-2.47,33,33,0,0,0-18.6,3.41,30.89,30.89,0,0,0-10.71,8.87,28.5,28.5,0,0,0-5.64,12.76,28.2,28.2,0,0,0,2.52,17.44,31.16,31.16,0,0,0,8,10.18c1,.81,2,1.48,3.07,2.21l-.66.53c-.44-1.07-1.59-1.44-2.43-2.09a31.46,31.46,0,0,1-6.91-7.76A28.91,28.91,0,0,1,101,222.2a30.13,30.13,0,0,1,8.39-11.46,32.67,32.67,0,0,1,15.76-7.34,30.13,30.13,0,0,1,6.43-.59A34.51,34.51,0,0,1,150.69,209a30.89,30.89,0,0,1,9.46,10.68,28.26,28.26,0,0,1,3.21,10.17,28.92,28.92,0,0,1-3.72,18.25,31.1,31.1,0,0,1-12.44,12A34.18,34.18,0,0,1,134.87,264,32.78,32.78,0,0,1,119.39,262a14,14,0,0,1-4.86-2.44Z" fill="#eda628"></path><path d="M140.69,217.72a22.94,22.94,0,0,0-6.18-2.06,19.3,19.3,0,0,0-14.3,3,17.37,17.37,0,0,0-7.79,11.21,16.74,16.74,0,0,0,3.23,14.17,18.18,18.18,0,0,0,5.63,4.93c.54.3.39.71.43,1.12l0,.59c-.43.56-.82.12-1.17-.07a19.57,19.57,0,0,1-7.27-6.74,18.88,18.88,0,0,1,1.49-22.79,20.55,20.55,0,0,1,13.94-7.34,21.41,21.41,0,0,1,12.88,2.4c.27.15.57.28.66.6Z" fill="#f0ba2c"></path><path d="M122.07,253.84a23.65,23.65,0,0,0,11.73,1.64,24.41,24.41,0,0,0,11.35-4.2,21.49,21.49,0,0,0,8.93-13.07c1.55-6.49,0-12.41-4-17.78a11.64,11.64,0,0,0-4.4-4.12,2.48,2.48,0,0,1,.37-1.4c.56-.3.93.09,1.31.36a20.71,20.71,0,0,1,5.19,5.66,22.13,22.13,0,0,1,3.72,11.13,22.5,22.5,0,0,1-6.23,17.16,25.14,25.14,0,0,1-16,7.92A26.74,26.74,0,0,1,122.9,256a5.57,5.57,0,0,1-2.05-.95Z" fill="#efb32b"></path><path d="M112.67,260.44l.42-.2a35.23,35.23,0,0,0,7.85,3.5,32.86,32.86,0,0,0,13,1.4c10.64-1,19.14-5.67,25.21-14.07a30.06,30.06,0,0,0,5.17-12.34,25.21,25.21,0,0,0,.47-6.49c-.84-10.86-5.84-19.48-15.56-25.5A31.37,31.37,0,0,0,136,202.06c-12.78-1.38-23.39,2.53-31.49,12.1a30.12,30.12,0,0,0-4,32.23,31.51,31.51,0,0,0,10.2,12.28c.31.22.81.39.5.92l-.42.18a34.67,34.67,0,0,1-8.74-8.85,31.38,31.38,0,0,1-5-12.7,32.07,32.07,0,0,1-.38-5.7,31.36,31.36,0,0,1,2.66-11.6,31.69,31.69,0,0,1,5.5-8.5,33.32,33.32,0,0,1,9.48-7.38,35.6,35.6,0,0,1,21.26-3.87,35,35,0,0,1,16.71,6.56,32,32,0,0,1,12.52,18.57,28.85,28.85,0,0,1,.8,9.42,31.44,31.44,0,0,1-7.73,18.34,34.61,34.61,0,0,1-18.32,11,35.89,35.89,0,0,1-6.8.91,35.49,35.49,0,0,1-19.35-4.61C113.06,261.2,112.4,261.13,112.67,260.44Z" fill="#eda327"></path><path d="M112.67,260.44c.22.8,1.06.91,1.66,1.23a34.59,34.59,0,0,0,13.46,4.07,35.74,35.74,0,0,0,17.8-2.89,33.72,33.72,0,0,0,11.48-8.16,31.28,31.28,0,0,0,7.76-15,28.48,28.48,0,0,0,.59-8.07A32.42,32.42,0,0,0,162.79,221a33.33,33.33,0,0,0-6.9-10,32,32,0,0,0-7.95-5.76,36.27,36.27,0,0,0-11.51-3.8,35.44,35.44,0,0,0-14.67.91,35,35,0,0,0-12.68,6.36,32.53,32.53,0,0,0-7.64,8.7,31,31,0,0,0-4,10.35,30.6,30.6,0,0,0-.4,8.55,31.59,31.59,0,0,0,3.1,10.92,32.85,32.85,0,0,0,10.26,12,.72.72,0,0,1,.36.57l-.4.06c-1.23-1-2.46-2-3.64-3.11a31.54,31.54,0,0,1-9.41-15.94,28.76,28.76,0,0,1-.81-9.63,31.64,31.64,0,0,1,7.75-18.35,34.82,34.82,0,0,1,20.82-11.6,31.3,31.3,0,0,1,6.75-.56A36,36,0,0,1,153,208a31.9,31.9,0,0,1,12.5,20.5,29.89,29.89,0,0,1-2.6,18.34A33.26,33.26,0,0,1,143.73,264,36.52,36.52,0,0,1,133,266.21a36,36,0,0,1-18.22-3.83,13,13,0,0,1-2.73-1.63Z" fill="#eca227"></path><path d="M124.69,242.94l0-2.59c.52-.3.87.07,1.22.31,4,2.61,10.6,1.9,13.46-3a8.68,8.68,0,0,0-4.74-12.26c-.48-.17-1.15-.21-1.13-.94l2.34-1.12a11.33,11.33,0,0,1,5.7,4.87,10.34,10.34,0,0,1,1.21,3c.42,2.54.83,5.07,1.24,7.61a.49.49,0,0,1-.34.62l-11.83,5.48a.47.47,0,0,1-.2,0,13.25,13.25,0,0,1-6.33-1.4A1,1,0,0,1,124.69,242.94Z" fill="#f5cb34"></path><path d="M112.46,192.66H115c-.24.63-.93.65-1.43.84A44.92,44.92,0,0,0,96.9,204.73a41.3,41.3,0,0,0-9.73,16.75,40.51,40.51,0,0,0-1.81,14.14,41.73,41.73,0,0,0,3.81,15.18,31.63,31.63,0,0,0,2.15,4.07c.19.29.34.59.76.59a7.29,7.29,0,0,0,.18,2.18c-.75,0-1-.54-1.29-1a42.93,42.93,0,0,1-6.1-15.06,40.46,40.46,0,0,1-.77-10.23,42.42,42.42,0,0,1,3.22-14.12,45,45,0,0,1,21.84-23A35.22,35.22,0,0,1,112.46,192.66Z" fill="#e78c25"></path><path d="M111.19,259.59c-.18-.86-1.06-1.11-1.65-1.57a32.11,32.11,0,0,1-9.2-11.5,30.72,30.72,0,0,1-2.77-9.28,29.64,29.64,0,0,1,1.12-12.61,31.29,31.29,0,0,1,10.44-15.36A33.27,33.27,0,0,1,125.3,202,34.51,34.51,0,0,1,152,208.35a30.69,30.69,0,0,1,12.54,20,29.57,29.57,0,0,1-4.66,22,32.9,32.9,0,0,1-20.63,14.21,34.85,34.85,0,0,1-25-3.32,2.55,2.55,0,0,1-1.2-.93l.42-.19c1.11,1.19,2.69,1.65,4.12,2.28a31.7,31.7,0,0,0,8.72,2.39,35.86,35.86,0,0,0,8.35.11,34.16,34.16,0,0,0,12.23-3.53A31.56,31.56,0,0,0,160.28,249a30.22,30.22,0,0,0,3.83-10.21,29,29,0,0,0,.15-9.43,30.67,30.67,0,0,0-3.32-10.15c-4.61-8.46-11.91-13.8-21.59-16.29a33.18,33.18,0,0,0-10.91-.84,34.51,34.51,0,0,0-18,6.67,31.47,31.47,0,0,0-9,10.29,29.05,29.05,0,0,0-3.32,9.75,25.75,25.75,0,0,0-.43,5.11,31.75,31.75,0,0,0,3.07,12.72,32.4,32.4,0,0,0,7.08,9.6,35.73,35.73,0,0,0,3,2.41c.3.23.65.39.68.82Z" fill="#eda427"></path><path d="M120.85,255.05c1.72.51,3.41,1.11,5.19,1.47a26,26,0,0,0,14.64-1.27,23.77,23.77,0,0,0,14.89-16.93,20.69,20.69,0,0,0,.57-4.79,22.6,22.6,0,0,0-1.75-8.67,24.33,24.33,0,0,0-5.95-8.4,5,5,0,0,0-2.37-1.55c.07-.39.13-.77.2-1.16a10.78,10.78,0,0,1,3.87,2.92,25.87,25.87,0,0,1,4.34,5.91A23.55,23.55,0,0,1,157.07,233a22.78,22.78,0,0,1-3,12.09,25.06,25.06,0,0,1-10.27,9.87,27.25,27.25,0,0,1-10.1,2.95,28.09,28.09,0,0,1-12.48-1.67c-.39-.14-.81-.28-.82-.79Z" fill="#efb22b"></path><path d="M121.88,245.72c0-.36,0-.73,0-1.09a4.38,4.38,0,0,0-1.28-3.73,10.17,10.17,0,0,1-2.53-6.25,11.6,11.6,0,0,1,3.8-10,13.64,13.64,0,0,1,10.71-3.54,1.1,1.1,0,0,1,.89.45A92.24,92.24,0,0,1,122.69,226c-1,.35-1.32.74-1.25,1.75.37,5.08.53,10.16.65,15.24a22,22,0,0,1-.16,4.14C121.92,246.67,121.9,246.19,121.88,245.72Z" fill="#f4c834"></path><path d="M124.63,239.19V236c.74.78,1.35,1.48,2,2.11a6.74,6.74,0,0,0,9.68-.56c2.25-2.7,2.29-6-.16-8.46a6.81,6.81,0,0,0-8.91-.88,8.12,8.12,0,0,0-2.38,2.71c-.13.2-.09.68-.6.46l-.06-2a2.07,2.07,0,0,1,0-1.28l7.81-3.1c3.35.55,5.9,2.09,7.34,5.12a8.26,8.26,0,0,1-3.68,10.51,9.49,9.49,0,0,1-11.05-1.54Z" fill="#f6ce36"></path><path d="M144.87,221.88a14,14,0,0,1,4.54,8.28,15.85,15.85,0,0,1-1.82,11.5,18.29,18.29,0,0,1-14.42,9.26,21.5,21.5,0,0,1-6.61-.43,16.56,16.56,0,0,1,3.1-1.61c1.34-.18,2.7,0,4.05-.21,4.62-.82,8.35-2.88,10.89-6.7a.93.93,0,0,1,.45-.4c.46-.23.91-.47,1.38-.67s.56-.35.49-.74a12.72,12.72,0,0,0,1.57-6.68,14.94,14.94,0,0,0-3.2-9.45c-.15-.18-.25-.39-.42-.57Z" fill="#f1be2f"></path><path d="M142.19,216.75a22.27,22.27,0,0,0-19.49-1.22,20.53,20.53,0,0,0-6.93,4.71,19.58,19.58,0,0,0-5,9.48c-1.19,5.78.3,11,3.87,15.69a19.66,19.66,0,0,0,6.43,5.27.55.55,0,0,0,.59,0,4.13,4.13,0,0,1-.36,1.42c0-.59-.56-.75-1-1a20,20,0,0,1-8.46-8.39,19.11,19.11,0,0,1-2.21-7.37,18.83,18.83,0,0,1,1.27-9.1,20.51,20.51,0,0,1,11.83-11.63,22.61,22.61,0,0,1,10.44-1.51,19.08,19.08,0,0,1,9.55,3.16A.94.94,0,0,1,142.19,216.75Z" fill="#f0ba2c"></path><path d="M117.29,256.21c0-.55-.57-.65-.92-.87-6.63-4.19-10.84-10-12.26-17.37a23.65,23.65,0,0,1,3.63-17.92,26.61,26.61,0,0,1,16.84-11.74,27.65,27.65,0,0,1,23.91,5.07,24.79,24.79,0,0,1,9.84,16.29,24.05,24.05,0,0,1-5,19.06,26.66,26.66,0,0,1-14.86,9.77,30,30,0,0,1-9.42.89,28.37,28.37,0,0,1-9.08-2.16c-.35-.14-.73-.27-.87-.67l.22-.18a13.25,13.25,0,0,0,5.32,1.95A27.78,27.78,0,0,0,142,257c8.59-3.65,14-9.9,15.81-18.61a23.53,23.53,0,0,0-5.13-20.52,26.11,26.11,0,0,0-16.9-9.63c-7.74-1.13-14.92.33-21.17,5a24.76,24.76,0,0,0-10.06,15.42,24.13,24.13,0,0,0,4.9,20.22,27.45,27.45,0,0,0,7,6.21c.41.26,1,.36,1.07,1Z" fill="#eeae2b"></path><path d="M144.87,223.46c1.16.45,1.46,1.56,2,2.45a14.53,14.53,0,0,1,1.84,6.41,17.2,17.2,0,0,1-.87,6.68,1.7,1.7,0,0,1-.88,1.16,55.7,55.7,0,0,1-1.35-7.56A55.94,55.94,0,0,1,144.87,223.46Z" fill="#f2bf30"></path><path d="M112.46,192.66c-.18.38-.58.48-.92.63a48.48,48.48,0,0,0-10.86,6.46,44.92,44.92,0,0,0-10,11.34,44.17,44.17,0,0,0-5.25,12.54,38.55,38.55,0,0,0-1.12,13,42.36,42.36,0,0,0,4.44,15.84c1,1.87,1.8,3.79,3.49,5.22A7.24,7.24,0,0,0,94,259.89,29.05,29.05,0,0,0,97,263.55a.72.72,0,0,1,.27.8.41.41,0,0,1-.18,0,24.87,24.87,0,0,1-4.35-4.77,43.93,43.93,0,0,1-6.32-11.47A38.09,38.09,0,0,1,84.25,239a42,42,0,0,1-.38-7,43,43,0,0,1,4.2-17,45.35,45.35,0,0,1,6.48-9.89A46.82,46.82,0,0,1,107.12,195a35.08,35.08,0,0,0,4.11-2.18C111.57,192.53,112,192.7,112.46,192.66Z" fill="#e78c25"></path><path d="M84.36,266.91a8.07,8.07,0,0,1-.25,1.65c-.51,1.8-.54,1.85-2.45,1.58a5.3,5.3,0,0,1-3.92-2.35,2.13,2.13,0,0,1,.66-3.2,4.77,4.77,0,0,1,3.67-.78C83.55,264.08,84.35,265.14,84.36,266.91Z" fill="#e27326"></path><path d="M145.05,241.57a10.57,10.57,0,0,1-4.35,4.68,16.42,16.42,0,0,1-9.5,2.85,6.58,6.58,0,0,1-1.54-.22c3-1.68,6.15-3.08,9.26-4.55C141,243.37,143,242.48,145.05,241.57Z" fill="#f2c332"></path><path d="M124.63,239.17c1.08.44,1.92,1.25,3,1.72,3.81,1.64,8.78.3,10.9-3.15a7.85,7.85,0,0,0-2-10.62,9.39,9.39,0,0,0-3.67-1.63c-.33-.07-.71,0-.89-.41a4,4,0,0,1,1.45-.65c.22.44.68.52,1.11.66a8.9,8.9,0,0,1,5.91,10,8.61,8.61,0,0,1-7.22,7.09,9.33,9.33,0,0,1-7.67-1.43,1.75,1.75,0,0,0-.94-.41Z" fill="#f6cd35"></path><path d="M99.86,260.87c0,.52-.4.37-.67.31a8.28,8.28,0,0,1-5.44-3.73c-.82-1.29-.36-2.37,1.23-3.24.48.13.68.54.92.89a33,33,0,0,0,3.64,4.53A1.08,1.08,0,0,1,99.86,260.87Z" fill="#e89125"></path><path d="M124.69,242.94a16.1,16.1,0,0,0,6.43,1.79,1.78,1.78,0,0,1,.47.17l-6.9,3.72Z" fill="#f4c733"></path><path d="M142.72,231.21c-.58-.26-.47-.86-.63-1.29a12.13,12.13,0,0,0-5.81-6.24,3.18,3.18,0,0,1-.47-.37,11.16,11.16,0,0,1,2.09-1,12.28,12.28,0,0,1,4.38,3.73l.05,1.14c.19.4,0,.83.14,1.24l.06,1.18c.21.31,0,.68.16,1Z" fill="#f4c733"></path><path d="M142.28,226c-.43,0-.51-.38-.74-.6a13.49,13.49,0,0,0-2.85-2.41c-.31-.17-.72-.3-.79-.72l4.32-2.49a1.91,1.91,0,0,1,0,1.08,37,37,0,0,0,0,4.34Z" fill="#f2c334"></path><path d="M100.23,255.66c1.86,1.36,3.13,3.26,4.91,4.7.34.28.58.68,1.1.68a13,13,0,0,1-4.52.45c-.33,0-.51-.07-.45-.46A9.84,9.84,0,0,0,100.23,255.66Z" fill="#eb9b26"></path><path d="M99.86,260.87c.18-.85-.64-1.21-1.07-1.67a45.7,45.7,0,0,1-3.81-5,1.77,1.77,0,0,1,2.12,0C99,255.28,100.44,258.8,99.86,260.87Z" fill="#eb9725"></path><path d="M97.31,264.35c-.42-1-1.37-1.48-2-2.27A19.27,19.27,0,0,1,94,259.89a23.93,23.93,0,0,0,2.36,1.61,19.62,19.62,0,0,0,2.77,1A6.07,6.07,0,0,1,97.31,264.35Z" fill="#e78c25"></path><path d="M142.26,225.24a12.41,12.41,0,0,1,0-4.34Z" fill="#f4c733"></path><path d="M142.47,228.42c-.29-.39-.11-.82-.14-1.24A2.29,2.29,0,0,1,142.47,228.42Z" fill="#f5cb34"></path><path d="M124.21,228.18c0,.43,0,.85,0,1.28A1.38,1.38,0,0,1,124.21,228.18Z" fill="#f7d139"></path><path d="M142.69,230.6c-.28-.3-.13-.66-.16-1A1.52,1.52,0,0,1,142.69,230.6Z" fill="#f5cb34"></path></g></svg> 