<svg id="Layer_1" data-name="Layer 1" xmlns="http://www.w3.org/2000/svg" viewBox="0 0 500 500"><title>A-Frame</title><path d="M399.17,369.52H377.29v20.82h18.94v2.34H377.29v23.46H400v2.42H374.65V367.09h24.9Zm-41.42,49.05h-2.56l-2.8-25.66c-.9-8.45-2-18.48-2.34-23.46l-14.33,42.86h-2.5l-14.61-42.89c-.31,4.45-1.44,14.72-2.28,22.87l-2.57,26.26h-2.57l5.32-51.46h3.93l14.11,42,13.8-42h4Zm-65.5-14.87H269.09l-5,14.87h-2.64l17.65-51.47h3.25L300,418.57h-2.79Zm-.82-2.42-10.72-32.07-10.79,32.11h21.51Zm-55.68-6.71H223.82v24h-2.64V367.1h11.7c12.07,0,17.46,4.83,17.46,13.59,0,7.92-4.6,11.77-11.69,13.43L253,418.57h-3.31Zm-2.34-2.42c8.9,0,14.11-3.54,14.11-11.46,0-7.25-4-11.25-14.87-11.25h-8.83v22.71Zm-27.55-22.63h-21.5V391.4h18.56v2.33H184.36v24.82h-2.65V367.09h24.5ZM146.7,393.73h18.94v2.41H146.7Zm-15.91,10H107.62l-5,14.87H100l17.66-51.47h3.24l17.66,51.47h-2.8Zm-.83-2.42-10.72-32.07-10.79,32.11H130Z" fill="#ef2d5e"/><path d="M318.6,206.54a73,73,0,0,0,1.71,7.12c.67,3.06,1.57,6.08,2.37,9.11a2,2,0,0,0,.28.45,1.58,1.58,0,0,0,0,.53q3.4,12.92,6.82,25.83c2.51,9.56,5,19.12,7.5,28.66.2.74.1,1-.53,1.35-1.48.77-2.92,1.62-4.38,2.45-4.93,2.82-9.84,5.66-14.78,8.47-3.59,2.05-7.22,4.05-10.82,6.09L292,305.06c-3.67,2.1-7.31,4.24-11,6.26a40.06,40.06,0,0,1-5.92,3.17,1.51,1.51,0,0,1-.19-.35l-9.27-34.92Q261.28,263.11,257,247q-6.09-23-12.16-45.93-4.29-16.23-8.59-32.47-5.24-19.86-10.45-39.73c-.88-3.36-2-6.68-2.56-10.11q9.66-5.38,19.34-10.75c4.82-2.66,9.66-5.28,14.48-7.93q10.11-5.57,20.2-11.17c2.93-1.62,5.85-3.27,8.77-4.91,1,1.15.93,2.66,1.29,4,2.09,7.65,4.1,15.31,6.11,23,1.76,6.7,3.48,13.41,5.23,20.11q2.29,8.78,4.62,17.55c.13.46.26.91.38,1.38,1.93,7.41,3.84,14.82,5.79,22.23.59,2.28,1.27,4.54,1.91,6.81a4,4,0,0,0,.08.78c1.22,4.67,2.39,9.37,3.68,14C316.32,198.08,317.19,202.38,318.6,206.54Z" fill="#fb3164"/><path d="M275,314.49a40.06,40.06,0,0,0,5.92-3.17c3.71-2,7.35-4.16,11-6.26l14.79-8.46c3.6-2,7.23-4,10.82-6.09,4.94-2.81,9.85-5.65,14.78-8.47,1.46-.83,2.9-1.68,4.38-2.45.63-.34.73-.61.53-1.35-2.53-9.54-5-19.1-7.5-28.66q-3.39-12.92-6.82-25.83a1.58,1.58,0,0,1,0-.53l15.55,8.58c0,.36,0,.72,0,1.07,0,5-.45,9.92-.28,14.88a3.22,3.22,0,0,0,1.81,3.17,21.67,21.67,0,0,1,2.1,1.18c2.07,1.31,4.4,2.19,6.34,3.72-.11,1.43-.21,2.85-.32,4.28a11.1,11.1,0,0,0-4.82,1.53c-2.86,1.83-2.8,4.71,0,6.59a11.56,11.56,0,0,0,6.4,1.66A12,12,0,0,0,357.2,268a3.5,3.5,0,0,0,.46-5.56,9.59,9.59,0,0,0-5.89-2.3c0-1.43,0-2.85,0-4.28,2.37-1.6,4.93-2.9,7.41-4.32.65-.38,1.43-.58,1.73-1.39h0a.56.56,0,0,0,.53-.54,1.75,1.75,0,0,0,.56-1.41c0-1.05,0-2.1,0-3.15a50,50,0,0,1,5.88,3.11c3.42,1.83,6.75,3.81,10.13,5.7q9.15,5.13,18.32,10.23c1.15.64,2.33,1.26,3.71,2-1.87,1.09-3.54,2.08-5.22,3Q384.64,275,374.5,280.75c-5.5,3.13-11,6.21-16.51,9.33-6.16,3.51-12.29,7.05-18.44,10.55-5.3,3-10.61,6-15.91,9-6.19,3.53-12.36,7.09-18.55,10.62-4.84,2.75-9.7,5.46-14.53,8.22-5.38,3.06-10.73,6.17-16.11,9.24-4.17,2.38-8.37,4.74-12.54,7.12-3.56,2-7.13,4.05-10.65,6.13a2.26,2.26,0,0,1-2.57,0c-5.67-3.27-11.36-6.5-17-9.75-6-3.41-11.88-6.85-17.84-10.25-4.83-2.75-9.7-5.46-14.53-8.22-5.38-3.06-10.73-6.17-16.1-9.24-4.84-2.76-9.69-5.48-14.53-8.23s-9.5-5.46-14.26-8.17c-4.21-2.4-8.45-4.78-12.66-7.18-4.76-2.71-9.5-5.45-14.26-8.17l-12.67-7.18c-4.91-2.79-9.81-5.59-14.8-8.44a28.65,28.65,0,0,1,4.4-2.62c7.54-4.22,15.11-8.39,22.66-12.6,3.38-1.88,6.75-3.8,10.12-5.69a6.17,6.17,0,0,1,.75-.3,12.63,12.63,0,0,1,0,1.74c-.33,2.52.9,3.93,3.08,5,2.47,1.21,4.8,2.71,7.19,4.09,0,1.43,0,2.86-.07,4.29a11.84,11.84,0,0,0-4.95,1.57,3.7,3.7,0,0,0-2.13,3.34,4.08,4.08,0,0,0,2.2,3.31,11.37,11.37,0,0,0,6.3,1.56,11.78,11.78,0,0,0,7.17-1.78c2.07-1.45,2.52-3.4,1-5.37s-3.72-2.32-6-2.6c-.11-1.43-.21-2.87-.32-4.3a4.28,4.28,0,0,1,1.4-1l7.27-4c.49-.27.94-.55,1-1.17.64-.53.54-1.27.57-2,.19-5.26-.35-10.51-.28-15.77q7.89-4.42,15.79-8.85c.61-.34,1.29-.58,1.93-.87a2.83,2.83,0,0,1-.08.78q-5.59,15.15-11.22,30.26c-.15.39-.2.62.1.94a12.23,12.23,0,0,0,4.74,3.56l.29.27q5.55,3.1,11.11,6.23,8.82,5,17.63,10l16.24,9.13c0,3.27,0,6.54,0,9.81a3.21,3.21,0,0,0,1.76,3.2c1.26.68,2.52,1.36,3.73,2.12,1.58,1,3.38,1.64,4.77,2.93,0,1.34,0,2.67-.05,4a15.45,15.45,0,0,0-4.93,1.62,4,4,0,0,0-2.23,3.41,3.8,3.8,0,0,0,2.38,3.47,14,14,0,0,0,13-.06,3.85,3.85,0,0,0,2.3-3.35c.1-1.68-1-2.68-2.25-3.54a12.39,12.39,0,0,0-4.68-1.52c0-1.43,0-2.86,0-4.3,2.77-1.76,5.65-3.37,8.57-4.88a29.78,29.78,0,0,1,5.09,2.68c6.43,3.62,12.8,7.32,19.26,10.89,1.61.89,3.05,2.25,5.06,2.3C270.09,313.43,273.25,315,275,314.49Z" fill="#228c7e"/><path d="M275,314.49c-1.77.47-4.93-1.06-5.39-2.44-.75-3.42-1.76-6.77-2.66-10.15Q261.66,282,256.46,262a2.09,2.09,0,0,0-1.16-1.47c-2.42-1.33-4.82-2.66-7.22-4q-8.12-4.57-16.23-9.18c-3.94-2.23-7.84-4.53-11.83-6.68-2.77-1.5-5.39-3.26-8.31-4.5-.16-.49-.66-.54-1-.75-2.52-1.41-5.07-2.78-7.58-4.2-5.3-3-10.6-6-15.85-9-1.08-.63-1.51-.28-1.85.66-1.05,2.91-2.08,5.83-3.14,8.74q-4.8,13.08-9.63,26.15a12.23,12.23,0,0,1-4.74-3.56c-.3-.32-.25-.55-.1-.94q5.63-15.12,11.22-30.26a2.83,2.83,0,0,0,.08-.78,72.61,72.61,0,0,0,3.12-8q4.08-10.92,8.11-21.85l10.25-27.75q5.12-13.89,10.24-27.76c2.52-6.82,4.87-13.71,7.63-20.44.48.44,1,.88,1.43,1.33s.82.92,1.54.63a2.43,2.43,0,0,0,1.85.52c.6,3.43,1.68,6.75,2.56,10.11q5.19,19.88,10.45,39.73,4.29,16.24,8.59,32.47Q251,224,257,247q4.26,16.1,8.54,32.21l9.27,34.92A1.51,1.51,0,0,0,275,314.49Zm-86.74-97.77,66,37.2c-.58-2.23-1.05-4.08-1.54-5.94q-3.28-12.36-6.59-24.74-2.38-8.93-4.74-17.85-2.12-8-4.19-16.1c-.61-2.18-1.25-4.35-1.83-6.55q-3.31-12.6-6.61-25.22-2.76-10.52-5.54-21c-.79-3-1.63-6-2.52-9.19-.7,1.91-1.29,3.54-1.9,5.18q-4.57,12.41-9.17,24.81L200.57,182l-9.18,24.81c-1.08,2.91-2.22,5.79-3.23,8.72C188.07,215.74,187.06,216.47,188.28,216.72Z" fill="#9d1e3e"/><path d="M311.38,179.06c-.64-2.27-1.32-4.53-1.91-6.81-2-7.41-3.86-14.82-5.79-22.23-.12-.47-.25-.92-.38-1.38,2-1.11,4.08-2.18,6.06-3.37a1.15,1.15,0,0,1,1.32-.07q7.05,3.93,14.1,7.84c3.85,2.14,7.72,4.23,11.58,6.36l18.87,10.48a5.84,5.84,0,0,1-.64.47c-4.79,2.71-9.57,5.43-14.36,8.11s-9.77,5.43-14.65,8.15c-2.53-1-4.75-2.59-7.16-3.81S313.86,180.05,311.38,179.06Z" fill="#b9e2f0"/><path d="M325.58,186.61c4.88-2.72,9.77-5.42,14.65-8.15s9.57-5.4,14.36-8.11a5.84,5.84,0,0,0,.64-.47c.42.36.25.84.25,1.26,0,2.56.19,5.13,0,7.67-.4,4.61-.13,9.22-.22,13.83a1.37,1.37,0,0,1-.8,1.37q-12.4,6.9-24.78,13.86-2.14,1.2-4.31,2.38C325.45,202.37,325.06,194.48,325.58,186.61Z" fill="#c2ecf9"/><path d="M348.5,255.82c-1.94-1.53-4.27-2.41-6.34-3.72a21.67,21.67,0,0,0-2.1-1.18,3.22,3.22,0,0,1-1.81-3.17c-.17-5,.28-9.92.28-14.88,0-.35,0-.71,0-1.07,0-1.05,0-2.1,0-3.15a1.7,1.7,0,0,1,.54-1.4,3.24,3.24,0,0,0,2.16,1.35c2.2,1.53,4.63,2.67,6.95,4a3.75,3.75,0,0,0,2.19.9c0,.43,0,.87.05,1.31-.07,7.16.07,14.32-.27,21.48Z" fill="#1c7976"/><path d="M148.2,255.81c-2.39-1.38-4.72-2.88-7.19-4.09-2.18-1.06-3.41-2.47-3.08-5a12.63,12.63,0,0,0,0-1.74q0-8,0-15.91c0-.67-.06-1.34.54-1.83,1.12,1.36,2.78,1.88,4.24,2.71,2.2,1.24,4.25,2.78,6.72,3.51l.12,1.32c-.11,7.16,0,14.32.27,21.48A4.14,4.14,0,0,1,148.2,255.81Z" fill="#1c7976"/><path d="M149.56,234.79l-.12-1.32c0-.36,0-.73,0-1.09l9.06-4.93c1-.56.76-1-.11-1.42s-2-.68-2.43-1.74a23.44,23.44,0,0,1,4.39,2.42,2.38,2.38,0,0,1,1,2.08c0,1,0,2,0,3.06-.07,5.26.47,10.51.28,15.77,0,.71.07,1.45-.57,2-3,1.66-5.93,3.34-8.9,5-1.22.67-1.31.61-1.31-.78,0-5.92,0-11.84,0-17.75C150.9,235,150.64,234.54,149.56,234.79Z" fill="#2db6b1"/><path d="M350.41,234.79c0-.44,0-.88-.05-1.31a1.53,1.53,0,0,1,.94-1.6c2.57-1.41,5.11-2.89,7.66-4.35.33-.19.87-.23.86-.71s-.5-.57-.84-.78c-.85-.52-2-.69-2.41-1.75a22.35,22.35,0,0,1,4.41,2.45,2.76,2.76,0,0,1,1,2.51q0,7.89,0,15.79c0,1.05,0,2.1,0,3.15a1.75,1.75,0,0,1-.56,1.41l-.53.54h0a6.5,6.5,0,0,0-2.06.93c-2.1,1.19-4.18,2.41-6.26,3.62-.69.41-1.11.5-1.11-.57,0-6.12,0-12.24.07-18.37C351.53,234.66,351.24,234.59,350.41,234.79Z" fill="#2db6b1"/><path d="M325.58,186.61c-.52,7.87-.13,15.76-.24,23.64l-6.74-3.71c-1.41-4.16-2.28-8.46-3.46-12.68-1.29-4.65-2.46-9.35-3.68-14a4,4,0,0,1-.08-.78c2.48,1,4.67,2.54,7,3.74S323.05,185.61,325.58,186.61Z" fill="#86afbd"/><path d="M221.41,118.25c-.72.29-1.11-.2-1.54-.63s-1-.89-1.43-1.33a29.42,29.42,0,0,1,4.93-2.91c5.79-3.24,11.63-6.4,17.45-9.59q10.92-6,21.83-12c5.09-2.8,10.17-5.63,15.25-8.44a28.6,28.6,0,0,0,3-1.66c.53-.39.78-.39,1.18.07.59.66,1.22,1.29,1.84,1.94L267.18,92.9q-8.64,4.74-17.3,9.48c-6.82,3.75-13.65,7.48-20.44,11.3C226.76,115.19,224,116.49,221.41,118.25Z" fill="#f32f61"/><path d="M356.57,224.29c.46,1.06,1.56,1.23,2.41,1.75.34.21.83.32.84.78s-.53.52-.86.71c-2.55,1.46-5.09,2.94-7.66,4.35a1.53,1.53,0,0,0-.94,1.6,3.75,3.75,0,0,1-2.19-.9c-2.32-1.31-4.75-2.45-6.95-4,.14-.36.75-.71.13-1.11-1.33-.85-.38-1.15.33-1.55,2.82-1.6,5.71-3.08,8.42-4.87a1.63,1.63,0,0,1,1.49.35C353.26,222.35,354.91,223.33,356.57,224.29Z" fill="#2aada9"/><path d="M156,224.29c.47,1.06,1.55,1.28,2.43,1.74s1.14.86.11,1.42l-9.06,4.93c-2.71-1.54-5.43-3.07-8.12-4.63-.47-.27-1.32-.28-1.25-1s.85-.7,1.34-1l8.37-4.73c.79-.12,1.33.41,1.95.74A28.15,28.15,0,0,1,156,224.29Z" fill="#2aada9"/><path d="M221.41,118.25c2.54-1.76,5.35-3.06,8-4.57,6.79-3.82,13.62-7.55,20.44-11.3q8.64-4.75,17.3-9.48l16.71-9.17c.71.17,1.5-.26,2.16.28-2.92,1.64-5.84,3.29-8.77,4.91q-10.09,5.6-20.2,11.17c-4.82,2.65-9.66,5.27-14.48,7.93q-9.67,5.36-19.34,10.75A2.43,2.43,0,0,1,221.41,118.25Z" fill="#bf244c"/><path d="M149.8,221.05l-8.37,4.73c-.49.28-1.28.37-1.34,1s.78.72,1.25,1c2.69,1.56,5.41,3.09,8.12,4.63,0,.36,0,.73,0,1.09-2.47-.73-4.52-2.27-6.72-3.51-1.46-.83-3.12-1.35-4.24-2.71.88-1.22,2.32-1.61,3.54-2.31,2.08-1.2,4.18-2.37,6.29-3.53A2,2,0,0,1,149.8,221.05Z" fill="#228c7e"/><path d="M350.1,221.07c-2.71,1.79-5.6,3.27-8.42,4.87-.71.4-1.66.7-.33,1.55.62.4,0,.75-.13,1.11a3.24,3.24,0,0,1-2.16-1.35c.89-1.22,2.32-1.6,3.53-2.31,2.15-1.25,4.3-2.49,6.47-3.7A3.43,3.43,0,0,1,350.1,221.07Z" fill="#228c7e"/><path d="M211.71,236.1c2.92,1.24,5.54,3,8.31,4.5,4,2.15,7.89,4.45,11.83,6.68q8.11,4.59,16.23,9.18c2.4,1.36,4.8,2.69,7.22,4a2.09,2.09,0,0,1,1.16,1.47q5.21,20,10.51,39.95c.9,3.38,1.91,6.73,2.66,10.15-2-.05-3.45-1.41-5.06-2.3-6.46-3.57-12.83-7.27-19.26-10.89a29.78,29.78,0,0,0-5.09-2.68c.21-.32.69-.38.76-.82a2.83,2.83,0,0,0,.64-1.73c0-6.5,0-13,0-19.51a2.68,2.68,0,0,0-1.27-2.39c-1.34-.8-2.74-1.5-4.11-2.25-1.7-1-3.38-2-5.09-2.89-.57-.31-1.18-.68-1.88-.27a7.06,7.06,0,0,0-1.12.39c-2.55,1.43-5.1,2.86-7.63,4.34-.77.44-1.85.57-2.06,1.71a2.26,2.26,0,0,0-.53,1.85c0,2.88,0,5.77,0,8.65l-16.24-9.13q-8.82-5-17.63-10-5.55-3.14-11.11-6.23,9.17-5.17,18.33-10.35Q201.48,241.83,211.71,236.1Z" fill="#1f7f73"/><path d="M211.71,236.1q-10.23,5.75-20.46,11.49-9.18,5.16-18.33,10.35l-.29-.27q4.81-13.08,9.63-26.15c1.06-2.91,2.09-5.83,3.14-8.74.34-.94.77-1.29,1.85-.66,5.25,3.06,10.55,6,15.85,9,2.51,1.42,5.06,2.79,7.58,4.2C211.05,235.56,211.55,235.61,211.71,236.1Z" fill="#24c9fe"/><path d="M217.9,283.26c0-2.88,0-5.77,0-8.65a2.26,2.26,0,0,1,.53-1.85c.36.19.64.52,1.08.53A114.51,114.51,0,0,0,229.74,279l0,1.3V301.5c-.57.2-1.09-.13-1.64-.18-1.39-1.29-3.19-1.93-4.77-2.93-1.21-.76-2.47-1.44-3.73-2.12a3.21,3.21,0,0,1-1.76-3.2C217.94,289.8,217.91,286.53,217.9,283.26Z" fill="#1c7976"/><path d="M231.69,305.36a12.39,12.39,0,0,1,4.68,1.52c1.28.86,2.35,1.86,2.25,3.54a3.85,3.85,0,0,1-2.3,3.35,14,14,0,0,1-13,.06,3.8,3.8,0,0,1-2.38-3.47,4,4,0,0,1,2.23-3.41,15.45,15.45,0,0,1,4.93-1.62c0,1.42.06,2.85,0,4.27,0,1.19.46,1.72,1.66,1.67s1.92-.26,1.87-1.64S231.68,306.79,231.69,305.36Z" fill="#1f7f73"/><path d="M351.77,260.13a9.59,9.59,0,0,1,5.89,2.3,3.5,3.5,0,0,1-.46,5.56,12,12,0,0,1-7.41,1.89,11.56,11.56,0,0,1-6.4-1.66c-2.83-1.88-2.89-4.76,0-6.59a11.1,11.1,0,0,1,4.82-1.53c0,1.42.05,2.85,0,4.27s1,1.56,1.88,1.6,1.72-.3,1.65-1.57S351.76,261.55,351.77,260.13Z" fill="#1f7f73"/><path d="M151.73,260.13c2.25.28,4.48.69,6,2.6s1.09,3.92-1,5.37a11.78,11.78,0,0,1-7.17,1.78,11.37,11.37,0,0,1-6.3-1.56,4.08,4.08,0,0,1-2.2-3.31,3.7,3.7,0,0,1,2.13-3.34,11.84,11.84,0,0,1,4.95-1.57c0,1.33.12,2.68,0,4s.46,1.84,1.63,1.89,1.88-.63,1.9-2S151.71,261.42,151.73,260.13Z" fill="#1f7f73"/><path d="M229.79,301.5V280.28c.94-.46,1.33-.14,1.32.87,0,1.7,0,3.41,0,5.11,0,4.35,0,8.7,0,13.05,0,.92.19,1.31,1.14.7a27.55,27.55,0,0,1,2.79-1.6c2-1,3.73-2.5,5.95-3.05-.07.44-.55.5-.76.82-2.92,1.51-5.8,3.12-8.57,4.88A3,3,0,0,1,229.79,301.5Z" fill="#2aada9"/><path d="M149.56,234.79c1.08-.25,1.34.22,1.33,1.27,0,5.91,0,11.83,0,17.75,0,1.39.09,1.45,1.31.78,3-1.65,5.94-3.33,8.9-5-.06.62-.51.9-1,1.17l-7.27,4a4.28,4.28,0,0,0-1.4,1l-1.58.44C149.52,249.11,149.45,242,149.56,234.79Z" fill="#2aada9"/><path d="M229.79,301.5a3,3,0,0,0,1.86-.44c0,1.44,0,2.87,0,4.3s-.08,2.85,0,4.27-.78,1.6-1.87,1.64-1.7-.48-1.66-1.67c0-1.42,0-2.85,0-4.27s0-2.67.05-4C228.7,301.37,229.22,301.7,229.79,301.5Z" fill="#6f5146"/><path d="M149.83,256.27l1.58-.44c.11,1.43.21,2.87.32,4.3s0,2.58,0,3.87-.65,2.05-1.9,2-1.73-.61-1.63-1.89,0-2.67,0-4,0-2.86.07-4.29A4.14,4.14,0,0,0,149.83,256.27Z" fill="#6f5146"/><path d="M351.77,260.13c0,1.42-.1,2.85,0,4.27S351,266,350.1,266s-1.89-.29-1.88-1.6,0-2.85,0-4.27.21-2.85.32-4.28l1.64.45,1.59-.42C351.74,257.28,351.76,258.7,351.77,260.13Z" fill="#6f5146"/><path d="M351.73,255.85l-1.59.42c.34-7.16.2-14.32.27-21.48.83-.2,1.12-.13,1.1,1-.1,6.13,0,12.25-.07,18.37,0,1.07.42,1,1.11.57,2.08-1.21,4.16-2.43,6.26-3.62a6.5,6.5,0,0,1,2.06-.93c-.3.81-1.08,1-1.73,1.39C356.66,253,354.1,254.25,351.73,255.85Z" fill="#2aada9"/><path d="M360.87,250.14l.53-.54A.56.56,0,0,1,360.87,250.14Z" fill="#2aada9"/><path d="M237.25,189.29q2.08,8.06,4.19,16.1,2.34,8.93,4.74,17.85,3.3,12.38,6.59,24.74c.49,1.86,1,3.71,1.54,5.94l-66-37.2a.55.55,0,0,1,.3-.52c1.86-1,3.7-2,5.54-3q6.34-3.5,12.66-7,7.64-4.26,15.26-8.55c2.94-1.65,5.83-3.41,8.84-5C233,191.57,235,190.1,237.25,189.29Z" fill="#f1e546"/><path d="M237.25,189.29c-2.3.81-4.24,2.28-6.37,3.38-3,1.54-5.9,3.3-8.84,5q-7.62,4.29-15.26,8.55-6.32,3.53-12.66,7c-1.84,1-3.68,2-5.54,3a.55.55,0,0,0-.3.52c-1.22-.25-.21-1-.12-1.21,1-2.93,2.15-5.81,3.23-8.72L200.57,182l9.11-24.69q4.57-12.4,9.17-24.81c.61-1.64,1.2-3.27,1.9-5.18.89,3.22,1.73,6.2,2.52,9.19q2.79,10.51,5.54,21,3.31,12.61,6.61,25.22C236,184.94,236.64,187.11,237.25,189.29Z" fill="#24c9fe"/><path d="M241,295.36c-2.22.55-3.94,2.09-5.95,3.05a27.55,27.55,0,0,0-2.79,1.6c-1,.61-1.15.22-1.14-.7,0-4.35,0-8.7,0-13.05,0-1.7,0-3.41,0-5.11,0-1-.38-1.33-1.32-.87,0-.44,0-.87,0-1.31a1.65,1.65,0,0,1,1-1.8c2.67-1.45,5.31-3,7.95-4.47.29-.16.77-.2.73-.67s-.48-.36-.69-.57c-.78-.75-2.19-.69-2.55-2,1.37.75,2.77,1.45,4.11,2.25a2.68,2.68,0,0,1,1.27,2.39c0,6.5,0,13,0,19.51A2.83,2.83,0,0,1,241,295.36Z" fill="#2db6b1"/><path d="M236.22,269.48c.36,1.29,1.77,1.23,2.55,2,.21.21.66.22.69.57s-.44.51-.73.67c-2.64,1.5-5.28,3-7.95,4.47a1.65,1.65,0,0,0-1,1.8,114.51,114.51,0,0,1-10.22-5.68c.2-.67.3-1.35,1-1.76,2.17-1.16,4.3-2.38,6.43-3.61a5.38,5.38,0,0,0,2.25-1.6c.7-.41,1.31,0,1.88.27C232.84,267.52,234.52,268.51,236.22,269.48Z" fill="#2aada9"/><path d="M229.25,266.32a5.38,5.38,0,0,1-2.25,1.6c-2.13,1.23-4.26,2.45-6.43,3.61-.75.41-.85,1.09-1,1.76-.44,0-.72-.34-1.08-.53.21-1.14,1.29-1.27,2.06-1.71,2.53-1.48,5.08-2.91,7.63-4.34A7.06,7.06,0,0,1,229.25,266.32Z" fill="#228c7e"/></svg>