<?xml version="1.0" encoding="UTF-8"?> <svg xmlns="http://www.w3.org/2000/svg" id="Layer_1" data-name="Layer 1" viewBox="0 0 500 500"><title>BabylonJS</title><path d="M125.06,370h7.14v16c1.27-2.13,3.8-4.2,8.82-4.2,7.83,0,12.1,6.45,12.1,14.92,0,8.7-4.44,16.07-12.91,16.07-4.5,0-6.63-1.49-8.07-3.86a22.23,22.23,0,0,1-.28,3.17H125c.06-3.22.06-6.51.06-9.79Zm13.88,17.64c-5.18,0-7.08,3.45-7.08,9.79,0,5.42,1.67,9.62,7,9.62,4.49,0,7-4,7-10.14C145.8,391.52,143.61,387.67,138.94,387.67Z" fill="#bb464b"></path><path d="M182.27,404.89a60,60,0,0,0,.4,7.26h-6.85a14.94,14.94,0,0,1-.47-3.22c-1,1.78-3.16,3.92-8.58,3.92-7.09,0-10.08-4.67-10.08-9.22,0-6.69,5.36-9.8,14.06-9.8h4.48v-2c0-2.3-.75-4.72-5.18-4.72-3.92,0-4.73,1.79-5.13,4h-6.85c.4-4.83,3.46-9.27,12.27-9.21,7.72,0,11.93,3.11,11.93,10Zm-7-6.57h-3.86c-5.26,0-7.56,1.56-7.56,4.9,0,2.42,1.61,4.38,4.78,4.38,5.88,0,6.63-4,6.63-8.41Z" fill="#bb464b"></path><path d="M188.72,370h7.15v16c1.27-2.13,3.8-4.2,8.81-4.2,7.84,0,12.1,6.45,12.1,14.92,0,8.7-4.43,16.07-12.9,16.07-4.5,0-6.63-1.49-8.07-3.86a22.23,22.23,0,0,1-.29,3.17h-6.85c.05-3.22.05-6.51.05-9.79Zm13.89,17.64c-5.19,0-7.09,3.45-7.09,9.79,0,5.42,1.67,9.62,7,9.62,4.5,0,7-4,7-10.14C209.47,391.52,207.28,387.67,202.61,387.67Z" fill="#bb464b"></path><path d="M225.77,382.54c3.69,11.58,6.34,20.22,6.9,23.1h.08c.75-3.11,2.59-9.79,6.57-23.1h7.15l-10.19,30.65c-2.9,8.58-5.21,11-11.95,11a31.27,31.27,0,0,1-3.62-.23v-5.89c.64.06,1.5.11,2.25.11,3.23,0,4.73-1.21,6-5.07l-10.89-30.59Z" fill="#bb464b"></path><path d="M249.62,412.15V370h7.15v42.12Z" fill="#bb464b"></path><path d="M290.59,397.29c0,8.81-5.18,15.55-14.46,15.55-9,0-14.23-6.57-14.23-15.44s5.36-15.56,14.58-15.56C285.06,381.85,290.59,388,290.59,397.29Zm-21.43.06c0,6,2.7,9.79,7.14,9.79s7-3.74,7-9.74c0-6.39-2.48-9.86-7.08-9.86C271.81,387.55,269.16,390.89,269.16,397.35Z" fill="#bb464b"></path><path d="M295.77,390c0-2.53,0-5.19,0-7.43h6.9a31.91,31.91,0,0,1,.29,4.15c1-2.08,3.46-4.84,8.82-4.84,5.82,0,9.86,3.8,9.86,11.4v18.9h-7.15V394.08c0-3.69-1.31-6.34-5.26-6.34-4.2,0-6.28,2.71-6.28,8.18v16.25h-7.13Z" fill="#bb464b"></path><path d="M328.39,412.15v-9.56h7.66v9.56Z" fill="#bb464b"></path><path d="M347.86,383.17v30.54c0,7.89-1.9,10.54-7.56,10.54-.23,0-1.38-.06-1.78-.11v-3.46a8.11,8.11,0,0,0,1.21.06c3.86,0,4.27-2.07,4.27-6.46V383.17ZM344,375.68v-5.93h3.86v5.93Z" fill="#bb464b"></path><path d="M356.62,404c.92,3.46,3.46,5.59,7.72,5.59,4.72,0,6.63-2.13,6.63-5.13s-1.32-4.49-7.38-5.94c-7.89-1.9-9.68-4.32-9.68-8.18,0-4,3.06-7.88,10-7.88s10.08,4.14,10.54,8.24h-3.8c-.46-2.19-2.19-5-6.86-5s-5.93,2.25-5.93,4.38c0,2.42,1.27,3.63,6.8,5,8.47,2,10.37,4.84,10.37,9.16,0,5.18-4.15,8.64-10.77,8.64-7,0-10.72-3.63-11.47-8.81Z" fill="#bb464b"></path><path d="M253.23,62.66l-125,72.17V279.17l125,72.17,125-72.17V134.83Z" fill="#fff"></path><polygon points="378.23 134.83 339.11 112.24 301.48 133.97 340.59 156.56 378.23 134.83" fill="#e0684b"></polygon><polygon points="165.88 156.56 290.88 84.39 253.23 62.66 128.23 134.83 165.88 156.56" fill="#e0684b"></polygon><polygon points="214.12 229.59 253.23 252.17 292.36 229.59 253.23 207 214.12 229.59" fill="#e0684b"></polygon><polygon points="340.59 156.56 340.59 257.43 253.23 307.87 165.88 257.43 165.88 156.56 128.23 134.83 128.23 279.16 253.23 351.33 378.23 279.16 378.23 134.83 340.59 156.56" fill="#bb464b"></polygon><polygon points="253.23 161.81 214.12 184.4 214.12 229.59 253.23 207 292.36 229.59 292.36 184.4 253.23 161.81" fill="#bb464b"></polygon><polygon points="340.59 156.56 292.36 184.4 292.36 229.59 253.23 252.17 253.23 307.87 340.59 257.43 340.59 156.56" fill="#e0ded8"></polygon><polygon points="165.88 156.56 214.12 184.4 214.12 229.59 253.23 252.17 253.23 307.87 165.88 257.43 165.88 156.56" fill="#d5d2ca"></polygon><polygon points="290.88 84.39 339.11 112.24 301.48 133.97 340.59 156.56 292.36 184.4 253.23 161.81 214.12 184.4 165.88 156.56 290.88 84.39" fill="#fff"></polygon></svg> 