<svg id="Layer_1" data-name="Layer 1" xmlns="http://www.w3.org/2000/svg" viewBox="0 0 300 107.42"><g id="_Logos" data-name=" Logos"><path d="M309.44,297c-1.64,5.13-1.64,5.13-6.91,5.13h-1.17c-2.15,0-4.65.61-6.36-.28s-1.3-3.86-2.3-5.73c-1.49-6.52-3.55-12.88-5.57-19.25-4.53-15.42-9-30.85-13.63-46.24-.7-2.31-.25-2.88,2.12-2.78,4,.17,8.09.13,12.14,0,1.69,0,2.35.51,2.81,2.15,3.2,11.21,6.53,22.39,9.82,33.57.25.82.54,1.63.93,2.82,3.7-12.33,7.34-24.22,10.79-36.17.56-2,1.39-2.46,3.25-2.37a63.7,63.7,0,0,0,8.29,0c2.17-.19,2.87.78,3.41,2.62,3.3,11.19,6.71,22.34,10.06,33.5a3.4,3.4,0,0,0,1,1.95c3.44-11.87,6.9-23.64,10.2-35.46.55-1.94,1.26-2.71,3.37-2.61a111.05,111.05,0,0,0,11.54,0c2.55-.14,2.89.61,2.21,2.9-4.1,13.81-8.08,27.65-12.1,41.48-.19.66-.34,1.33-.51,2-2.07,6.52-4.13,13-5.62,19.73-.64,2.14-1.33,4.27-1.91,6.42a2,2,0,0,1-2.14,1.85l-.28,0a66.31,66.31,0,0,0-8.22,0c-2.4.17-3.93-.37-4.11-3a9.82,9.82,0,0,0-.6-2c-1.75-6.08-3.37-12.21-5.64-18.13l-4.72-16.21c-1.74,5.83-3.28,10.95-4.81,16.08Z" transform="translate(-100 -196.29)" fill="#fff"/><path d="M100.05,249.09V198.92c0-2,.4-2.64,2.54-2.63q32.43.14,64.85,0c2,0,2.53.53,2.45,2.45-.14,3.64-.2,7.29,0,10.92.15,2.49-.41,3.32-3.16,3.29-15.69-.16-31.39,0-47.08-.15-2.74,0-3.19.81-3.13,3.26.17,6.49.2,13,0,19.48-.08,2.58.78,3,3.14,3,10-.13,19.94,0,29.9-.1,2.16,0,3,.44,2.82,2.73-.2,3.83-.18,7.68,0,11.51.09,2.11-.61,2.62-2.65,2.6-9.77-.1-19.54,0-29.31,0-3.83,0-3.83,0-3.83,4,0,13.38,0,26.76,0,40.14,0,2.12-.4,3-2.73,2.82a105.36,105.36,0,0,0-11.24,0c-2.06.1-2.63-.47-2.62-2.57C100.09,282.74,100.05,265.92,100.05,249.09Z" transform="translate(-100 -196.29)" fill="#fff"/><path d="M266.79,293.12c-20.3,18.08-48.88,12.36-61.1-12.25,8.51.64,16.68,2.84,24.77,5.37a15.77,15.77,0,0,0,7.63,2.17c1.77,0,3.53.16,5.29.1,7.59-.28,16.18-6.92,18.46-14.2,2-3.56,1.17-7.45,1.38-11.22.53-9.7-10-22.49-24.5-21-13.71,1.39-21.84,11.36-21.38,25.12a142.81,142.81,0,0,1-14.9-1.13c0-20.18,14-36.68,33.84-38.86a37.85,37.85,0,0,1,42,33.11c.11,1,.19,1.93.23,2.89A48.6,48.6,0,0,1,277.33,276,50.2,50.2,0,0,1,266.79,293.12Z" transform="translate(-100 -196.29)" fill="#fff"/><path d="M261.84,274.31c-2.28,7.28-10.87,13.92-18.46,14.2-1.76.06-3.52-.06-5.28-.1-2.2-2-4.94-2-7.64-2.17-8.09-2.53-16.26-4.73-24.77-5.37-2.61-1.28-5.49-1.13-8.27-1.47a143.08,143.08,0,0,0-24.66-.8,6.65,6.65,0,0,0-1.64.51,67.42,67.42,0,0,0-16.46,2.4c-8.68,1.38-16.64,4.8-24.44,8.76,3.53-5.09,8.55-8.23,13.73-11.11,3.5-2,7.18-3.59,10.78-5.36l16.42-4.88a181.43,181.43,0,0,1,31.29-2.84,142.81,142.81,0,0,0,14.9,1.13c2.9,1.05,6,.94,9,1.48Q244,271.93,261.84,274.31Z" transform="translate(-100 -196.29)" fill="#30abe1"/><path d="M347.23,293.89c1.49-6.68,3.55-13.21,5.62-19.73,11.58-4,22.45-9.24,29.82-19.58a35,35,0,0,0,6.58-18.34c.59-9.46-6.12-17.51-16.76-20.34a26.52,26.52,0,0,0-16.24.69c-.12-.15-.25-.3-.38-.44,2.87-3,6.67-4,10.56-4.76,13.7-2.62,27.46,4.89,31.81,17.69,3.12,9.15,1.79,18.24-1.61,27.09-5,12.89-14.75,21.36-26.27,28.17A85.42,85.42,0,0,1,347.23,293.89Z" transform="translate(-100 -196.29)" fill="#30abe1"/><path d="M154.66,281.51a67.42,67.42,0,0,1,16.46-2.4c.08,6.46.08,6.46,6.58,6.46,8.38,0,16.76.11,25.13-.07,2.45-.05,2.92.76,2.82,3-.17,3.72-.14,7.46,0,11.19.06,1.87-.4,2.49-2.4,2.48q-23.07-.14-46.12,0c-2.19,0-2.54-.71-2.5-2.66C154.75,293.49,154.67,287.5,154.66,281.51Z" transform="translate(-100 -196.29)" fill="#fff"/><path d="M171.15,268.92l-16.42,4.88c0-14.55,0-29.09-.09-43.63,0-1.72.3-2.45,2.23-2.37,3.94.16,7.89.14,11.83,0,2-.06,2.5.55,2.49,2.5C171.11,243.17,171.15,256.05,171.15,268.92Z" transform="translate(-100 -196.29)" fill="#fff"/><path d="M266.79,293.12A50.2,50.2,0,0,0,277.33,276a43,43,0,0,0,9.8.78c2,6.37,4.08,12.73,5.57,19.25Z" transform="translate(-100 -196.29)" fill="#30abe1"/><path d="M309.44,297q2.69-9,5.36-18.06l9.53.13c2.27,5.92,3.89,12.05,5.64,18.13A182.61,182.61,0,0,1,309.44,297Z" transform="translate(-100 -196.29)" fill="#30abe1"/><path d="M356.25,216.59c-.24.33-.68.55-.9.24s.3-.48.53-.68Z" transform="translate(-100 -196.29)" fill="#30abe1"/></g></svg>