<svg id="Layer_1" data-name="Layer 1" xmlns="http://www.w3.org/2000/svg" viewBox="0 0 500 500"><path d="M259.32,375,399.91,294v27.69A27,27,0,0,1,386.4,345L259.32,418.41Z" fill="#50dc8c" fill-rule="evenodd"/><path d="M362.52,250.56V196.4L400,174.76v97.43l-93.72,54V283l56.28-32.46" fill="#50dc8c" fill-rule="evenodd"/><path d="M263.46,85.21l127.08,73.36L353,180.21,212.47,99.05l24-13.84A27,27,0,0,1,263.46,85.21Z" fill="#14a0ff" fill-rule="evenodd"/><path d="M193.67,109.88l93.72,54L250,185.63l-56.28-32.48-46.84,27-37.46-21.59Z" fill="#14a0ff" fill-rule="evenodd"/><path d="M100,174.81l37.39,21.59V358.73L113.51,345A27,27,0,0,1,100,321.59Z" fill="#e02843" fill-rule="evenodd"/><path d="M156.24,261.39,193.67,283V348l46.87,27v43.29l-84.3-48.64Z" fill="#e02843" fill-rule="evenodd"/></svg>