<?xml version="1.0" encoding="UTF-8"?> <svg xmlns="http://www.w3.org/2000/svg" id="Layer_1" data-name="Layer 1" viewBox="0 0 500 500"><title>WebGPU</title><path d="M249.92,205.12c.07.81-.49,1.37-.84,2Q230,240.58,210.85,274.06a2.67,2.67,0,0,1-2.64,1.59q-38.28-.06-76.54,0c-1.45,0-2-.18-1.64-1.84,2.15-10.24,4.2-20.5,6.27-30.75l11.23.06c2.09,0,4.53.66,6.2-.19s2.7-3.18,4-4.88q24.51-32.61,49-65.21c4.36-5.81,8.78-11.58,13.18-17.36.38.54.8,1.05,1.14,1.62Q235.49,181.1,249.92,205.12Z" fill="#fcd453"></path><path d="M280,155.42,330.16,75c13.32,66.84,26.52,133.13,39.73,199.41l-.34.16q-3.71-4.9-7.4-9.83c-5.14-6.8-10.44-13.48-15.52-20.31-6.06-8.16-12.07-16.36-18.15-24.5q-23.78-31.8-47.65-63.51a9.58,9.58,0,0,0-.81-.89Z" fill="#4986c6"></path><path d="M219.9,155.48c-4.4,5.78-8.82,11.55-13.18,17.36q-24.53,32.6-49,65.21c-1.28,1.7-2.27,4-4,4.88s-4.11.2-6.2.19l-11.23-.06L169.7,75.54c.87.29,1,1,1.33,1.51Q183.83,97.5,196.59,118l22,35.21c.45.72.88,1.45,1.31,2.18Z" fill="#ee7323"></path><path d="M175.59,377.75a47.53,47.53,0,0,1-5.78,6.2c-13.46,11.41-33.74,8.8-44.54-5.7-5.44-7.29-8-15.59-8.56-24.54-.66-9.7.11-19.24,4.23-28.19a33,33,0,0,1,44.17-16.61c4.7,2.3,8.4,5.82,11.92,10.34,0-3.53.08-6.62,0-9.7-.06-1.48.3-1.92,1.84-1.89,5.67.1,11.36.09,17,0,1.43,0,1.94.24,1.94,1.82-.06,24.53,0,49.06-.08,73.59a90.08,90.08,0,0,1-1.43,17.34c-2.17,11.05-8.32,18.73-19.24,21.81a69.93,69.93,0,0,1-41.38-.74C125.06,418,119,408.76,119.31,398c0-1.33.31-1.63,1.72-1.44,7.2,1,14.42,1.8,21.64,2.61,1.36.15,2.06.49,2.34,2,.75,4.11,3.9,5.72,7.6,6.26a34.23,34.23,0,0,0,14.48-.85c5.39-1.54,7.89-5.45,8.27-10.78C175.78,390,175.63,384.2,175.59,377.75Zm.36-30.13a39.31,39.31,0,0,0-1.34-10.95c-2.44-8.65-9-13.86-17.34-13.85s-14.52,5.12-16.83,14a47.14,47.14,0,0,0-.36,20.44c.92,5.08,3,9.5,7.28,12.67,8.33,6.2,20.78,2.86,25.64-6.87C175.38,358.33,176,353.21,176,347.62Z" fill="#050404"></path><path d="M234.76,319.77c5.09-7.08,11.32-11.66,19.43-13.26,14.82-2.92,28.68,4,35.89,17.64a45.74,45.74,0,0,1,5,18.16c.72,9.65.32,19.24-3.44,28.34-4.25,10.26-11.31,17.79-22.19,20.9s-20.73,1-29.12-6.8c-1.25-1.17-2.29-2.57-3.43-3.86l-.59.34v1.88c0,12.57,0,25.13,0,37.7,0,1.49-.36,1.92-1.88,1.9-6.14-.09-12.29-.08-18.44,0-1.33,0-1.83-.24-1.82-1.72q.06-55.85,0-111.7c0-1.37.44-1.62,1.69-1.61,5.75.06,11.49.07,17.24,0,1.33,0,1.67.36,1.64,1.66C234.7,312.64,234.76,316,234.76,319.77Zm38.1,29.48a38,38,0,0,0-2-14c-2.56-7-8.62-11.77-15.23-12a17.54,17.54,0,0,0-17.17,11A29.69,29.69,0,0,0,236.17,345c-.32,7,.06,14,3.36,20.44,3.62,7,10.23,10.46,18.17,9.61,6.12-.65,11.51-5.74,13.57-12.79A44.16,44.16,0,0,0,272.86,349.25Z" fill="#050404"></path><path d="M363,379.41a39.63,39.63,0,0,1-13.3,10.25,32.82,32.82,0,0,1-23.57,1.85c-10.21-3-15.94-9.89-17.56-20.33a74.81,74.81,0,0,1-.81-11.58q0-25,0-49.93c0-1.48.25-2.05,1.91-2,6.15.12,12.3.1,18.44,0,1.41,0,1.76.35,1.76,1.75-.06,11.9-.05,23.8,0,35.7,0,6.61.12,13.23.75,19.82a11.83,11.83,0,0,0,11.45,11,18.2,18.2,0,0,0,9.88-1.9,16,16,0,0,0,8.8-13.41c.55-6.34.71-12.68.73-19,0-10.63.06-21.25,0-31.88,0-1.73.49-2.06,2.1-2,6.08.1,12.16.08,18.24,0,1.35,0,1.81.26,1.81,1.72q-.08,40,0,80c0,1.33-.37,1.68-1.67,1.67q-8.62-.1-17.24,0c-1.36,0-1.69-.4-1.65-1.69C363,386.06,363,382.73,363,379.41Z" fill="#050404"></path><path d="M219.9,155.48l0-.14q14.38-19.14,28.73-38.29c1-1.4,1.48-1.74,2.71-.08,7.61,10.32,15.35,20.54,23,30.8,1.9,2.54,3.78,5.1,5.67,7.65v.11c-3.39,5.6-6.81,11.18-10.18,16.79q-9.39,15.62-18.74,31.24c-.34.55-.52,1.24-1.18,1.56q-14.43-24-28.88-48C220.7,156.53,220.28,156,219.9,155.48Z" fill="#87b540"></path></svg> 