<svg id="WebGL" xmlns="http://www.w3.org/2000/svg" viewBox="0 0 500 500"><title>webgl</title><polygon points="441.5 276.86 438.8 276.86 438.8 283.92 436.44 283.92 436.44 276.86 433.7 276.86 433.7 274.82 441.5 274.82 441.5 276.86" fill="#900"/><polygon points="442.57 274.82 446.05 274.82 447.64 280.89 447.64 280.89 449.23 274.82 452.7 274.82 452.7 283.92 450.48 283.92 450.48 277 450.44 277 448.56 283.92 446.75 283.92 444.83 277 444.79 277 444.79 283.92 442.57 283.92 442.57 274.82" fill="#900"/><path d="M347.58,283.4a25.61,25.61,0,0,1-10,2.11,35.69,35.69,0,0,1-14.37-2.78,30.49,30.49,0,0,1-10.76-7.65,33.86,33.86,0,0,1-6.73-11.46,42.32,42.32,0,0,1-2.33-14.19,43.85,43.85,0,0,1,2.33-14.49,34.32,34.32,0,0,1,6.69-11.64,30.61,30.61,0,0,1,10.76-7.8,35.12,35.12,0,0,1,14.38-2.85,33.6,33.6,0,0,1,10.35,1.63,29.84,29.84,0,0,1,9.05,4.73,25.4,25.4,0,0,1,6.66,7.73,26.8,26.8,0,0,1,3.21,10.53H352.24a14.83,14.83,0,0,0-5.25-8.76,15.18,15.18,0,0,0-9.46-2.92,17.84,17.84,0,0,0-8.76,2,16.19,16.19,0,0,0-5.84,5.36,23.68,23.68,0,0,0-3.26,7.65,39.09,39.09,0,0,0-1,8.87,34.79,34.79,0,0,0,1,8.54,23,23,0,0,0,3.26,7.46,16.56,16.56,0,0,0,5.84,5.33,17.84,17.84,0,0,0,8.76,2c5.06,0,9-1.29,11.75-3.84s4.36-6.25,4.84-11.13H338.75V246.33h29.16v37.59h-9.72L356.64,276A22.64,22.64,0,0,1,347.58,283.4Z" fill="#900"/><path d="M392.71,214.39V271H426.6v12.9H377.45V214.39Z" fill="#900"/><path d="M320.56,292.53c-23.32,14.19-58.29,22.25-97.28,22.25-70.27,0-127.19-29.24-127.19-65.35s57-65.35,127.19-65.35c39.14,0,74.22,8.25,97.54,22.51-25.43-23.91-71.11-40.69-123.3-40.73-80,0-144.82,37.41-144.82,83.57S117.53,333,197.48,333C249.48,333,295,316.3,320.56,292.53Z" fill="#900"/><polygon points="192.41 208.96 179 266.99 162.81 208.96 150.54 208.96 134.35 266.99 120.93 208.96 108.25 208.96 128.14 284.62 140.04 284.62 156.78 225.19 173.31 284.62 185.25 284.62 205.83 208.96 192.41 208.96" fill="#900"/><path d="M239.32,240.82a18.61,18.61,0,0,0-6.91-6,21.51,21.51,0,0,0-9.69-2.11,26.09,26.09,0,0,0-10.9,2.19,20.42,20.42,0,0,0-7.61,6c-3.81,4.84-5.81,11.68-5.81,19.77a32.09,32.09,0,0,0,1.52,10,23.5,23.5,0,0,0,4.43,8c4.07,4.73,9.87,7.25,16.78,7.25a30.22,30.22,0,0,0,9.06-1.15,17.62,17.62,0,0,0,4.77-2.33,21.73,21.73,0,0,0,4.14-3.62,25.74,25.74,0,0,0,2.77-4,19.58,19.58,0,0,0,2.25-6.29l.12-.85h-9.87l0,.71c-.26,3.21-4.47,8.94-12,8.94-10.71,0-13.26-7.76-13.45-14.6h35.93V262a49.5,49.5,0,0,0-1.33-11.94A28.67,28.67,0,0,0,239.32,240.82Zm-17.74.78c7.95,0,12.2,4.28,13,13.08H208.83C209.23,247.55,214.89,241.6,221.58,241.6Z" fill="#900"/><path d="M294.47,248.06a24.46,24.46,0,0,0-4.18-8,19.46,19.46,0,0,0-6.8-5.39,21.09,21.09,0,0,0-9.13-2h0a17.86,17.86,0,0,0-8.28,2,17.55,17.55,0,0,0-5.4,4.37V215.83h-9.83v68.75h9.35v-4.69a15.27,15.27,0,0,0,3.29,3.21,16.25,16.25,0,0,0,9.76,2.89,21.41,21.41,0,0,0,10.9-2.74,20.33,20.33,0,0,0,7-6.91,30,30,0,0,0,3.66-9.09,41.46,41.46,0,0,0,1.07-9.39A31.36,31.36,0,0,0,294.47,248.06Zm-8.84,11.17c0,5.39-1.07,9.9-3.14,13.08a10.62,10.62,0,0,1-9.42,5.06c-5.88,0-12.76-4.1-12.76-15.7,0-5.55.71-9.84,2.11-13.09,2-4.69,5.47-7,10.46-7,5.32,0,8.91,2.07,10.9,6.4C285.41,251.58,285.63,255.9,285.63,259.23Z" fill="#900"/></svg>